%FSTAX23Y23*%
%MOIN*%
%SFA1B1*%

%IPPOS*%
%ADD13C,0.010000*%
%ADD20R,0.047240X0.047240*%
%ADD21C,0.047240*%
%ADD29C,0.030000*%
%ADD30R,0.078740X0.078740*%
%ADD31C,0.055000*%
%ADD32C,0.118110*%
%ADD33C,0.059060*%
%ADD34R,0.059060X0.059060*%
%ADD35R,0.059060X0.059060*%
%ADD36C,0.100000*%
%ADD37C,0.060000*%
%ADD38C,0.050000*%
%ADD39C,0.196850*%
%LNpcb1-1*%
%LPD*%
G36*
X064Y018D02*
X056D01*
Y031*
X055Y032*
X0534*
X05337Y03203*
X05337Y03205*
Y03214*
X05334Y03224*
X0533Y03233*
X05323Y0324*
X05314Y03244*
X05304Y03247*
X05295*
X05286Y03245*
X05195Y03336*
Y03838*
X05201Y03841*
X05208Y03848*
X05212Y03856*
X05215Y03856*
X05217Y03856*
X05221Y03848*
X05228Y03841*
X05234Y03838*
Y03436*
X05219Y0342*
X05215Y03415*
X05214Y0341*
Y0338*
X05215Y03374*
X05219Y03369*
X05264Y03323*
X05262Y03314*
Y03305*
X05265Y03295*
X05269Y03286*
X05276Y03279*
X05285Y03275*
X05295Y03272*
X05304*
X05314Y03275*
X05323Y03279*
X0533Y03286*
X05334Y03295*
X05337Y03305*
Y03314*
X05334Y03324*
X0533Y03333*
X05323Y0334*
X05314Y03344*
X05304Y03347*
X05295*
X05286Y03345*
X05245Y03386*
Y03403*
X05257Y03416*
X05259Y03415*
X05262Y03413*
Y03405*
X05265Y03395*
X05269Y03386*
X05276Y03379*
X05285Y03375*
X05295Y03372*
X05304*
X05314Y03375*
X05323Y03379*
X0533Y03386*
X05334Y03395*
X05337Y03405*
Y03414*
X05334Y03424*
X0533Y03433*
X05323Y0344*
X05314Y03444*
X05304Y03447*
X05295*
X05285Y03444*
X05276Y0344*
X0527Y03433*
X05268Y03433*
X05265Y03434*
Y03485*
X05268Y03486*
X0527Y03486*
X05276Y03479*
X05285Y03475*
X05295Y03472*
X05304*
X05314Y03475*
X05323Y03479*
X0533Y03486*
X05334Y03495*
X05337Y03505*
Y03514*
X05334Y03524*
X0533Y03533*
X05323Y0354*
X05314Y03544*
X05304Y03547*
X05295*
X05285Y03544*
X05276Y0354*
X0527Y03533*
X05268Y03533*
X05265Y03534*
Y03585*
X05268Y03586*
X0527Y03586*
X05276Y03579*
X05285Y03575*
X05295Y03572*
X05304*
X05314Y03575*
X05323Y03579*
X0533Y03586*
X05334Y03595*
X05337Y03605*
Y03614*
X05334Y03624*
X0533Y03633*
X05323Y0364*
X05314Y03644*
X05304Y03647*
X05295*
X05285Y03644*
X05276Y0364*
X0527Y03633*
X05268Y03633*
X05265Y03634*
Y03685*
X05268Y03686*
X0527Y03686*
X05276Y03679*
X05285Y03675*
X05295Y03672*
X05304*
X05314Y03675*
X05323Y03679*
X0533Y03686*
X05334Y03695*
X05337Y03705*
Y03714*
X05334Y03724*
X0533Y03733*
X05323Y0374*
X05314Y03744*
X05304Y03747*
X05295*
X05285Y03744*
X05276Y0374*
X0527Y03733*
X05268Y03733*
X05265Y03734*
Y03785*
X05268Y03786*
X0527Y03786*
X05276Y03779*
X05285Y03775*
X05295Y03772*
X05304*
X05314Y03775*
X05323Y03779*
X0533Y03786*
X05334Y03795*
X05337Y03805*
Y03814*
X05334Y03824*
X0533Y03833*
X05323Y0384*
X05314Y03844*
X05304Y03847*
X05295*
X05285Y03844*
X05276Y0384*
X05271Y03834*
X05266Y03836*
X05266Y03839*
X05271Y03841*
X05278Y03848*
X05282Y03856*
X05285Y03865*
Y03874*
X05282Y03883*
X05278Y03891*
X05272Y03897*
X05273Y03902*
X05331*
X05414Y03819*
Y0356*
X05416Y0355*
X05421Y03541*
X0566Y03303*
Y0326*
X05674*
Y0273*
X05668Y02724*
X05663Y02715*
X0566Y02705*
Y02694*
X05663Y02684*
X05668Y02675*
X05675Y02668*
X05684Y02663*
X05694Y0266*
X05705*
X05715Y02663*
X05724Y02668*
X0573Y02674*
X05799*
X05894Y02579*
Y0247*
X05896Y0246*
X05901Y02451*
X06071Y02281*
X0608Y02276*
X0609Y02274*
X0616*
Y0226*
X06239*
Y02339*
X0616*
Y02325*
X061*
X05945Y0248*
Y0259*
X05943Y02599*
X05938Y02608*
X05828Y02718*
X05819Y02723*
X0581Y02725*
X0573*
X05725Y0273*
Y0326*
X05739*
Y03274*
X05838*
X0584Y03269*
X05837Y03263*
X05835Y03254*
Y03245*
X05837Y03236*
X05841Y03228*
X05848Y03221*
X05854Y03218*
Y03136*
X05791Y03073*
X05784Y03075*
X05775*
X05766Y03072*
X05758Y03068*
X05751Y03061*
X05747Y03053*
X05745Y03044*
Y03035*
X05747Y03026*
X05751Y03018*
X05758Y03011*
X05766Y03007*
X05775Y03005*
X05784*
X05793Y03007*
X05801Y03011*
X05808Y03018*
X05812Y03026*
X05815Y03035*
Y03044*
X05813Y03051*
X0588Y03119*
X05884Y03124*
X05885Y0313*
Y03218*
X05891Y03221*
X05898Y03228*
X05902Y03236*
X05905Y03245*
Y03254*
X05902Y03263*
X05899Y03269*
X05901Y03274*
X0616*
Y0326*
X06239*
Y03339*
X0616*
Y03325*
X05739*
Y03339*
X05696*
X05521Y03514*
X05524Y03518*
X05526Y03517*
X05535Y03515*
X05544*
X05553Y03517*
X05561Y03521*
X05568Y03528*
X05572Y03536*
X05575Y03545*
Y03554*
X05573Y03561*
X0576Y03749*
X05764Y03754*
X05765Y0376*
Y04743*
X05784Y04763*
X05794Y0476*
X05805*
X05815Y04763*
X05824Y04768*
X05831Y04775*
X05836Y04784*
X05839Y04794*
Y04805*
X05836Y04815*
X05831Y04824*
X05824Y04831*
X05815Y04836*
X05805Y04839*
X05794*
X05784Y04836*
X05775Y04831*
X05768Y04824*
X05763Y04815*
X0576Y04805*
Y04794*
X05763Y04784*
X05739Y0476*
X05735Y04755*
X05734Y0475*
Y04138*
X05733Y04133*
X05729*
X05666*
Y04066*
X05733*
X05734Y04061*
Y04038*
X05729Y04037*
X05726Y04041*
X0572Y04048*
X05712Y04052*
X05704Y04054*
X05695*
X05687Y04052*
X05679Y04048*
X05673Y04041*
X05668Y04034*
X05666Y04025*
Y04016*
X05668Y04008*
X05673Y04*
X05679Y03994*
X05687Y03989*
X05695Y03987*
X05704*
X05712Y03989*
X0572Y03994*
X05726Y04*
X05729Y04005*
X05734Y04004*
Y03766*
X05551Y03583*
X05544Y03585*
X05535*
X05526Y03582*
X05518Y03578*
X05511Y03571*
X05507Y03563*
X05505Y03554*
Y03545*
X05507Y03536*
X05508Y03534*
X05504Y03531*
X05465Y0357*
Y0383*
X05463Y03839*
X05458Y03848*
X0536Y03945*
X05352Y03951*
X05342Y03953*
X05107*
X05097Y03951*
X05089Y03945*
X04995Y03851*
X04991Y03854*
X04992Y03856*
X04995Y03865*
Y03874*
X04992Y03883*
X04989Y03888*
X05Y039*
X05004Y03904*
X05005Y0391*
Y04398*
X05011Y04401*
X05018Y04408*
X05022Y04416*
X05025Y04425*
Y04434*
X05022Y04443*
X05018Y04451*
X05011Y04458*
X05003Y04462*
X04994Y04465*
X04985*
X04976Y04462*
X04968Y04458*
X04961Y04451*
X04957Y04443*
X04955Y04434*
Y04425*
X04957Y04416*
X04961Y04408*
X04968Y04401*
X04974Y04398*
Y03917*
X04962Y03905*
X04955*
X04946Y03902*
X04938Y03898*
X04931Y03891*
X04927Y03883*
X04925Y03874*
Y03865*
X04927Y03856*
X04931Y03848*
X04938Y03841*
X04939Y03841*
X04938Y03836*
X04349*
Y03859*
X0425*
Y0376*
X04349*
Y03785*
X04511*
X04512Y0378*
X04508Y03778*
X04501Y03771*
X04497Y03763*
X04495Y03754*
Y03745*
X04497Y03736*
X04501Y03728*
X04508Y03721*
X04514Y03718*
Y03347*
X04367Y032*
X0434*
X04337Y03203*
X04337Y03205*
Y03214*
X04335Y03224*
X0442Y0331*
X04424Y03314*
X04425Y0332*
Y03678*
X04431Y03681*
X04438Y03688*
X04442Y03696*
X04445Y03705*
Y03714*
X04442Y03723*
X04438Y03731*
X04431Y03738*
X04423Y03742*
X04414Y03745*
X04405*
X04396Y03742*
X04388Y03738*
X04381Y03731*
X04377Y03723*
X04375Y03714*
Y03705*
X04377Y03696*
X04381Y03688*
X04388Y03681*
X04394Y03678*
Y03327*
X04312Y03245*
X04304Y03247*
X04295*
X04285Y03244*
X04276Y0324*
X04269Y03233*
X04265Y03224*
X04262Y03214*
Y03205*
X04262Y03203*
X04259Y032*
X041*
X04Y031*
Y018*
X018*
Y053*
X064*
Y018*
G37*
G36*
X04772Y0378D02*
X04768Y03778D01*
X04761Y03771*
X04757Y03763*
X04755Y03754*
Y03745*
X04757Y03736*
X04761Y03728*
X04768Y03721*
X04776Y03717*
X04784Y03715*
Y03294*
X04776Y03292*
X0477Y03288*
X04765Y0329*
X04765Y03291*
Y03294*
X04762Y03303*
X04758Y03311*
X04751Y03318*
X04743Y03322*
X0474Y03323*
Y03641*
X04741Y03641*
X04748Y03648*
X04752Y03656*
X04755Y03665*
Y03674*
X04752Y03683*
X04748Y03691*
X04741Y03698*
X04733Y03702*
X04724Y03705*
X04715*
X04706Y03702*
X04698Y03698*
X04691Y03691*
X04687Y03683*
X04685Y03674*
Y03665*
X04687Y03656*
X04691Y03648*
X04698Y03641*
X04706Y03637*
X04709Y03636*
Y03318*
X04708Y03318*
X04701Y03311*
X04697Y03303*
X04695Y03294*
Y03285*
X04697Y03276*
X04701Y03268*
X04708Y03261*
X04716Y03257*
X04725Y03255*
X04734*
X04743Y03257*
X0475Y03261*
X04754Y03259*
X04755Y03258*
Y03255*
X04757Y03246*
X04761Y03238*
X04768Y03231*
X04776Y03227*
X04785Y03225*
X04794*
X04803Y03227*
X04811Y03231*
X04818Y03238*
X04822Y03246*
X04825Y03255*
Y03264*
X04822Y03273*
X04818Y03281*
X04815Y03284*
X04815Y03285*
Y0363*
X0482Y03631*
X04821Y03628*
X04828Y03621*
X04834Y03618*
Y032*
X04417*
X04415Y03204*
X0454Y0333*
X04544Y03334*
X04545Y0334*
Y03718*
X04551Y03721*
X04558Y03728*
X04562Y03736*
X04565Y03745*
Y03754*
X04562Y03763*
X04558Y03771*
X04551Y03778*
X04547Y0378*
X04548Y03785*
X04631*
X04632Y0378*
X04628Y03778*
X04621Y03771*
X04617Y03763*
X04615Y03754*
Y03745*
X04617Y03736*
X04621Y03728*
X04628Y03721*
X04636Y03717*
X04639Y03716*
Y03656*
X04634Y03655*
X04632Y03663*
X04628Y03671*
X04621Y03678*
X04613Y03682*
X04604Y03685*
X04595*
X04586Y03682*
X04578Y03678*
X04571Y03671*
X04567Y03663*
X04565Y03654*
Y03645*
X04567Y03636*
X04571Y03628*
X04578Y03621*
X04584Y03618*
Y03501*
X04578Y03498*
X04571Y03491*
X04567Y03483*
X04565Y03474*
Y03465*
X04567Y03456*
X04571Y03448*
X04578Y03441*
X04586Y03437*
X04595Y03435*
X04604*
X04613Y03437*
X04621Y03441*
X04628Y03448*
X04632Y03456*
X04634Y03464*
X04639Y03463*
Y03438*
X04638Y03438*
X04631Y03431*
X04627Y03423*
X04625Y03414*
Y03405*
X04627Y03396*
X04631Y03388*
X04638Y03381*
X04646Y03377*
X04655Y03375*
X04664*
X04673Y03377*
X04681Y03381*
X04688Y03388*
X04692Y03396*
X04695Y03405*
Y03414*
X04692Y03423*
X04688Y03431*
X04681Y03438*
X04673Y03442*
X0467Y03443*
Y03721*
X04671Y03721*
X04678Y03728*
X04682Y03736*
X04685Y03745*
Y03754*
X04682Y03763*
X04678Y03771*
X04671Y03778*
X04667Y0378*
X04668Y03785*
X04771*
X04772Y0378*
G37*
G36*
X04639Y03643D02*
Y03476D01*
X04634Y03475*
X04632Y03483*
X04628Y03491*
X04621Y03498*
X04615Y03501*
Y03618*
X04621Y03621*
X04628Y03628*
X04632Y03636*
X04634Y03644*
X04639Y03643*
G37*
G36*
X05151Y03848D02*
X05158Y03841D01*
X05164Y03838*
Y0333*
X05165Y03324*
X05169Y03319*
X05264Y03223*
X05262Y03214*
Y03205*
X05262Y03203*
X05259Y032*
X05131*
X05125Y03205*
Y03828*
X05131Y03831*
X05138Y03838*
X05142Y03846*
X05144Y03851*
X05149Y03852*
X05151Y03848*
G37*
G36*
X05075Y03852D02*
X05077Y03846D01*
X05082Y03838*
X05088Y03831*
X05095Y03828*
Y032*
X05032*
X04985Y03247*
Y03588*
X04991Y03591*
X04998Y03598*
X05002Y03606*
X05005Y03615*
Y03624*
X05002Y03633*
X04998Y03641*
X04991Y03648*
X04983Y03652*
X04974Y03655*
X04965*
X04956Y03652*
X04948Y03648*
X04941Y03641*
X04937Y03633*
X04935Y03624*
Y03615*
X04937Y03606*
X04941Y03598*
X04948Y03591*
X04954Y03588*
Y0324*
X04955Y03234*
X04959Y0323*
X04984Y03204*
X04982Y032*
X04932*
X04925Y03207*
Y03708*
X04931Y03711*
X04938Y03718*
X04942Y03726*
X04945Y03735*
Y03744*
X04942Y03753*
X04938Y03761*
X04931Y03768*
X04923Y03772*
X04914Y03775*
X04905*
X04896Y03772*
X04888Y03768*
X04881Y03761*
X04877Y03753*
X04875Y03744*
Y03735*
X04877Y03726*
X04881Y03718*
X04888Y03711*
X04894Y03708*
Y032*
X04894Y032*
X04865*
Y03618*
X04871Y03621*
X04878Y03628*
X04882Y03636*
X04885Y03645*
Y03654*
X04882Y03663*
X04878Y03671*
X04871Y03678*
X04863Y03682*
X04854Y03685*
X04845*
X04836Y03682*
X04828Y03678*
X04821Y03671*
X0482Y03668*
X04815Y03669*
Y03725*
X04818Y03728*
X04822Y03736*
X04825Y03745*
Y03754*
X04822Y03763*
X04818Y03771*
X04811Y03778*
X04807Y0378*
X04808Y03785*
X0499*
X05Y03787*
X05008Y03792*
X0507Y03854*
X05075Y03852*
G37*
%LNpcb1-2*%
%LPC*%
G36*
X06208Y05208D02*
X06191D01*
X06174Y05205*
X06158Y052*
X06143Y05192*
X06129Y05182*
X06117Y0517*
X06107Y05156*
X06099Y05141*
X06094Y05125*
X06091Y05108*
Y05091*
X06094Y05074*
X06099Y05058*
X06107Y05043*
X06117Y05029*
X06129Y05017*
X06143Y05007*
X06158Y04999*
X06174Y04994*
X06191Y04991*
X06208*
X06225Y04994*
X06241Y04999*
X06256Y05007*
X0627Y05017*
X06282Y05029*
X06292Y05043*
X063Y05058*
X06305Y05074*
X06308Y05091*
Y05108*
X06305Y05125*
X063Y05141*
X06292Y05156*
X06282Y0517*
X0627Y05182*
X06256Y05192*
X06241Y052*
X06225Y05205*
X06208Y05208*
G37*
G36*
X02008D02*
X01991D01*
X01974Y05205*
X01958Y052*
X01943Y05192*
X01929Y05182*
X01917Y0517*
X01907Y05156*
X01899Y05141*
X01894Y05125*
X01891Y05108*
Y05091*
X01894Y05074*
X01899Y05058*
X01907Y05043*
X01917Y05029*
X01929Y05017*
X01943Y05007*
X01958Y04999*
X01974Y04994*
X01991Y04991*
X02008*
X02025Y04994*
X02041Y04999*
X02056Y05007*
X0207Y05017*
X02082Y05029*
X02092Y05043*
X021Y05058*
X02105Y05074*
X02108Y05091*
Y05108*
X02105Y05125*
X021Y05141*
X02092Y05156*
X02082Y0517*
X0207Y05182*
X02056Y05192*
X02041Y052*
X02025Y05205*
X02008Y05208*
G37*
G36*
X06239Y04839D02*
X0616D01*
Y0476*
X06239*
Y04839*
G37*
G36*
X06105D02*
X06094D01*
X06084Y04836*
X06075Y04831*
X06068Y04824*
X06063Y04815*
X0606Y04805*
Y04794*
X06063Y04784*
X06068Y04775*
X06075Y04768*
X06084Y04763*
X06094Y0476*
X06105*
X06115Y04763*
X06124Y04768*
X06131Y04775*
X06136Y04784*
X06139Y04794*
Y04805*
X06136Y04815*
X06131Y04824*
X06124Y04831*
X06115Y04836*
X06105Y04839*
G37*
G36*
X06005D02*
X05994D01*
X05984Y04836*
X05975Y04831*
X05968Y04824*
X05963Y04815*
X0596Y04805*
Y04794*
X05963Y04784*
X05968Y04775*
X05975Y04768*
X05984Y04763*
X05994Y0476*
X06005*
X06015Y04763*
X06024Y04768*
X06031Y04775*
X06036Y04784*
X06039Y04794*
Y04805*
X06036Y04815*
X06031Y04824*
X06024Y04831*
X06015Y04836*
X06005Y04839*
G37*
G36*
X05284Y05155D02*
X05275D01*
X05266Y05152*
X05258Y05148*
X05251Y05141*
X05248Y05135*
X0427*
X04264Y05134*
X04259Y0513*
X04019Y0489*
X04015Y04885*
X04014Y0488*
Y0377*
X04015Y03764*
X04019Y03759*
X04178Y036*
X04183Y03596*
X04189Y03595*
X04265*
X04265*
X04269Y03586*
X04276Y03579*
X04285Y03575*
X04295Y03572*
X04304*
X04314Y03575*
X04323Y03579*
X0433Y03586*
X04334Y03595*
X04337Y03605*
Y03614*
X04334Y03624*
X0433Y03633*
X04323Y0364*
X04314Y03644*
X04304Y03647*
X04295*
X04285Y03644*
X04276Y0364*
X04269Y03633*
X04266Y03626*
X04195*
X04045Y03776*
Y04873*
X04276Y05104*
X05248*
X0525Y051*
X05248Y05095*
X0462*
X04614Y05094*
X04609Y0509*
X04439Y0492*
X04435Y04915*
X04434Y0491*
Y04828*
X04429Y04826*
X04424Y04831*
X04415Y04836*
Y04928*
X04421Y04931*
X04428Y04938*
X04432Y04946*
X04435Y04955*
Y04964*
X04432Y04973*
X04428Y04981*
X04421Y04988*
X04413Y04992*
X04404Y04995*
X04395*
X04386Y04992*
X04378Y04988*
X04371Y04981*
X04367Y04973*
X04365Y04964*
Y04955*
X04367Y04946*
X04371Y04938*
X04378Y04931*
X04384Y04928*
Y04836*
X04375Y04831*
X0437Y04826*
X04365Y04828*
Y0493*
X04364Y04935*
X0436Y0494*
X04353Y04948*
X04355Y04955*
Y04964*
X04352Y04973*
X04348Y04981*
X04341Y04988*
X04333Y04992*
X04324Y04995*
X04315*
X04306Y04992*
X04298Y04988*
X04291Y04981*
X04287Y04973*
X04285Y04964*
Y04955*
X04287Y04946*
X04291Y04938*
X04298Y04931*
X04306Y04927*
X04315Y04925*
X04324*
X0433Y04926*
X04334Y04923*
Y04828*
X04329Y04826*
X04324Y04831*
X04315Y04836*
X04305Y04839*
X04294*
X04284Y04836*
X04275Y04831*
X04268Y04824*
X04263Y04815*
X0426Y04805*
Y04794*
X04263Y04784*
X04268Y04775*
X04275Y04768*
X04284Y04763*
X04294Y0476*
X04305*
X04315Y04763*
X04324Y04768*
X04329Y04773*
X04334Y04771*
Y0473*
X04335Y04724*
X04339Y04719*
X04345Y04713*
Y04705*
X04347Y04696*
X04351Y04688*
X04358Y04681*
X04366Y04677*
X04375Y04675*
X04384*
X04393Y04677*
X04401Y04681*
X04408Y04688*
X04412Y04696*
X04415Y04705*
Y04714*
X04412Y04723*
X04408Y04731*
X04401Y04738*
X04393Y04742*
X04384Y04745*
X04375*
X0437Y04743*
X04365Y04747*
Y04771*
X0437Y04773*
X04375Y04768*
X04384Y04763*
X04394Y0476*
X04405*
X04415Y04763*
X04424Y04768*
X04429Y04773*
X04434Y04771*
Y0473*
X04435Y04724*
X04439Y04719*
X04474Y04683*
Y04301*
X04468Y04298*
X04461Y04291*
X04457Y04283*
X04455Y04274*
Y04265*
X04457Y04256*
X04461Y04248*
X04468Y04241*
X04476Y04237*
X04485Y04235*
X04494*
X04503Y04237*
X04511Y04241*
X04518Y04248*
X04522Y04256*
X04525Y04265*
Y04274*
X04522Y04283*
X04518Y04291*
X04511Y04298*
X04505Y04301*
Y0469*
X04504Y04695*
X045Y047*
X04465Y04736*
Y04771*
X0447Y04773*
X04475Y04768*
X04484Y04763*
X04494Y0476*
X04505*
X04515Y04763*
X04524Y04768*
X04529Y04773*
X04534Y04771*
Y04495*
X04535Y04489*
X04539Y04484*
X04554Y04469*
Y04101*
X04548Y04098*
X04541Y04091*
X04537Y04083*
X04535Y04074*
Y04065*
X04537Y04056*
X04541Y04048*
X04548Y04041*
X04556Y04037*
X04565Y04035*
X04574*
X04583Y04037*
X04591Y04041*
X04598Y04048*
X04602Y04056*
X04605Y04065*
Y04074*
X04602Y04083*
X04598Y04091*
X04591Y04098*
X04585Y04101*
Y04475*
X04584Y04481*
X0458Y04486*
X04565Y04501*
Y04771*
X0457Y04773*
X04575Y04768*
X04584Y04763*
X04594Y0476*
X04605*
X04615Y04763*
X04624Y04768*
X04629Y04773*
X04634Y04771*
Y04766*
X04629Y0476*
X04625Y04755*
X04624Y0475*
Y04151*
X04618Y04148*
X04611Y04141*
X04607Y04133*
X04605Y04124*
Y04115*
X04607Y04106*
X04611Y04098*
X04618Y04091*
X04626Y04087*
X04635Y04085*
X04644*
X04653Y04087*
X04661Y04091*
X04668Y04098*
X04672Y04106*
X04675Y04115*
Y04124*
X04672Y04133*
X04668Y04141*
X04661Y04148*
X04655Y04151*
Y04743*
X0466Y04749*
X04664Y04754*
X04665Y0476*
Y04771*
X0467Y04773*
X04675Y04768*
X04684Y04763*
X04694Y0476*
X04705*
X04715Y04763*
X04724Y04768*
X04731Y04775*
X04736Y04784*
X04739Y04794*
Y04805*
X04736Y04815*
X04731Y04824*
X04724Y04831*
X04715Y04836*
X04705Y04839*
X04694*
X04684Y04836*
X04675Y04831*
X0467Y04826*
X04665Y04828*
Y04883*
X04686Y04904*
X05173*
X05263Y04815*
X0526Y04805*
Y04794*
X05263Y04784*
X05268Y04775*
X05275Y04768*
X05284Y04763*
X05294Y0476*
X05305*
X05315Y04763*
X05324Y04768*
X05331Y04775*
X05336Y04784*
X05339Y04794*
Y04805*
X05336Y04815*
X05331Y04824*
X05324Y04831*
X05315Y04836*
X05305Y04839*
X05294*
X05284Y04836*
X0519Y0493*
X05185Y04934*
X0518Y04935*
X0468*
X04674Y04934*
X04669Y0493*
X04639Y049*
X04635Y04895*
X04634Y0489*
Y04828*
X04629Y04826*
X04624Y04831*
X04615Y04836*
X04605Y04839*
X04594*
X04584Y04836*
X04575Y04831*
X0457Y04826*
X04565Y04828*
Y04883*
X04676Y04994*
X05193*
X05366Y04821*
X05363Y04815*
X0536Y04805*
Y04794*
X05363Y04784*
X05368Y04775*
X05375Y04768*
X05384Y04763*
X05394Y0476*
X05405*
X05415Y04763*
X05424Y04768*
X05431Y04775*
X05436Y04784*
X05439Y04794*
Y04805*
X05436Y04815*
X05431Y04824*
X05424Y04831*
X05415Y04836*
X05405Y04839*
X05394*
X05392Y04838*
X0521Y0502*
X05205Y05024*
X052Y05025*
X0467*
X04664Y05024*
X04659Y0502*
X04539Y049*
X04535Y04895*
X04534Y0489*
Y04828*
X04529Y04826*
X04524Y04831*
X04515Y04836*
X04505Y04839*
X04494*
X04484Y04836*
X04475Y04831*
X0447Y04826*
X04465Y04828*
Y04903*
X04626Y05064*
X05613*
X05863Y04815*
X0586Y04805*
Y04794*
X05863Y04784*
X05868Y04775*
X05875Y04768*
X05884Y04763*
X05894Y0476*
X05905*
X05915Y04763*
X05924Y04768*
X05931Y04775*
X05936Y04784*
X05939Y04794*
Y04805*
X05936Y04815*
X05931Y04824*
X05924Y04831*
X05915Y04836*
X05905Y04839*
X05894*
X05884Y04836*
X0563Y0509*
X05625Y05094*
X0562Y05095*
X05311*
X05309Y051*
X05312Y05106*
X05315Y05115*
Y05124*
X05312Y05133*
X05308Y05141*
X05301Y05148*
X05293Y05152*
X05284Y05155*
G37*
G36*
X05705Y04839D02*
X05694D01*
X05684Y04836*
X05675Y04831*
X05668Y04824*
X05663Y04815*
X0566Y04805*
Y04794*
X05663Y04784*
X05569Y0469*
X05565Y04685*
X05564Y0468*
Y03921*
X05558Y03918*
X05551Y03911*
X05547Y03903*
X05545Y03894*
Y03885*
X05547Y03876*
X05551Y03868*
X05558Y03861*
X05566Y03857*
X05575Y03855*
X05584*
X05593Y03857*
X05601Y03861*
X05608Y03868*
X05612Y03876*
X05615Y03885*
Y03894*
X05612Y03903*
X05608Y03911*
X05601Y03918*
X05595Y03921*
Y04673*
X05684Y04763*
X05694Y0476*
X05705*
X05715Y04763*
X05724Y04768*
X05731Y04775*
X05736Y04784*
X05739Y04794*
Y04805*
X05736Y04815*
X05731Y04824*
X05724Y04831*
X05715Y04836*
X05705Y04839*
G37*
G36*
X05605D02*
X05594D01*
X05584Y04836*
X05575Y04831*
X05568Y04824*
X05563Y04815*
X0556Y04805*
Y04794*
X05563Y04784*
X05568Y04775*
X05575Y04768*
X05584Y04763*
X05594Y0476*
X05605*
X05615Y04763*
X05624Y04768*
X05631Y04775*
X05636Y04784*
X05639Y04794*
Y04805*
X05636Y04815*
X05631Y04824*
X05624Y04831*
X05615Y04836*
X05605Y04839*
G37*
G36*
X05505D02*
X05494D01*
X05484Y04836*
X05475Y04831*
X05468Y04824*
X05463Y04815*
X0546Y04805*
Y04794*
X05463Y04784*
X05468Y04775*
X05475Y04768*
X05484Y04763*
X05494Y0476*
X05505*
X05515Y04763*
X05524Y04768*
X05531Y04775*
X05536Y04784*
X05539Y04794*
Y04805*
X05536Y04815*
X05531Y04824*
X05524Y04831*
X05515Y04836*
X05505Y04839*
G37*
G36*
X0493Y04885D02*
X0488D01*
X04874Y04884*
X04869Y0488*
X04839Y0485*
X04835Y04845*
X04834Y0484*
Y04828*
X04829Y04826*
X04824Y04831*
X04815Y04836*
X04805Y04839*
X04794*
X04784Y04836*
X04775Y04831*
X04768Y04824*
X04763Y04815*
X0476Y04805*
Y04794*
X04763Y04784*
X04768Y04775*
X04775Y04768*
X04784Y04763*
X04794Y0476*
X04805*
X04815Y04763*
X04824Y04768*
X04829Y04773*
X04834Y04771*
Y04616*
X04709Y0449*
X04705Y04485*
X04704Y0448*
Y04011*
X04698Y04008*
X04691Y04001*
X04687Y03993*
X04685Y03984*
Y03975*
X04687Y03966*
X04691Y03958*
X04698Y03951*
X04706Y03947*
X04715Y03945*
X04724*
X04733Y03947*
X04741Y03951*
X04748Y03958*
X04752Y03966*
X04755Y03975*
Y03984*
X04752Y03993*
X04748Y04001*
X04741Y04008*
X04735Y04011*
Y0403*
X0474Y04031*
X04741Y04028*
X04748Y04021*
X04756Y04017*
X04765Y04015*
X04774*
X04783Y04017*
X04791Y04021*
X04798Y04028*
X04802Y04036*
X04805Y04045*
Y04054*
X04802Y04063*
X04798Y04071*
X04791Y04078*
X04785Y04081*
Y04463*
X0491Y04589*
X04914Y04594*
X04915Y046*
Y04763*
X04924Y04768*
X04931Y04775*
X04936Y04784*
X04939Y04794*
Y04805*
X04936Y04815*
X04931Y04824*
X04924Y04831*
X04915Y04836*
X04905Y04839*
X04894*
X04884Y04836*
X04875Y04831*
X0487Y04826*
X04865Y04828*
Y04833*
X04886Y04854*
X04923*
X0496Y04817*
Y0476*
X05039*
Y04839*
X04982*
X0494Y0488*
X04935Y04884*
X0493Y04885*
G37*
G36*
X04205Y04839D02*
X04194D01*
X04184Y04836*
X04175Y04831*
X04168Y04824*
X04163Y04815*
X0416Y04805*
Y04794*
X04163Y04784*
X04168Y04775*
X04175Y04768*
X04184Y04763*
X04194Y0476*
X04205*
X04215Y04763*
X04224Y04768*
X04231Y04775*
X04236Y04784*
X04239Y04794*
Y04805*
X04236Y04815*
X04231Y04824*
X04224Y04831*
X04215Y04836*
X04205Y04839*
G37*
G36*
X04105D02*
X04094D01*
X04084Y04836*
X04075Y04831*
X04068Y04824*
X04063Y04815*
X0406Y04805*
Y04794*
X04063Y04784*
X04068Y04775*
X04075Y04768*
X04084Y04763*
X04094Y0476*
X04105*
X04115Y04763*
X04124Y04768*
X04131Y04775*
X04136Y04784*
X04139Y04794*
Y04805*
X04136Y04815*
X04131Y04824*
X04124Y04831*
X04115Y04836*
X04105Y04839*
G37*
G36*
X03805Y0467D02*
X03794D01*
X03784Y04667*
X03775Y04662*
X03767Y04654*
X03762Y04645*
X0376Y04635*
Y04624*
X03762Y04614*
X03767Y04605*
X03775Y04597*
X03784Y04592*
X03794Y0459*
X03805*
X03815Y04592*
X03824Y04597*
X03832Y04605*
X03837Y04614*
X0384Y04624*
Y04635*
X03837Y04645*
X03832Y04654*
X03824Y04662*
X03815Y04667*
X03805Y0467*
G37*
G36*
X03405D02*
X03394D01*
X03384Y04667*
X03375Y04662*
X03367Y04654*
X03362Y04645*
X0336Y04635*
Y04624*
X03362Y04614*
X03367Y04605*
X03375Y04597*
X03384Y04592*
X03394Y0459*
X03405*
X03415Y04592*
X03424Y04597*
X03432Y04605*
X03437Y04614*
X0344Y04624*
Y04635*
X03437Y04645*
X03432Y04654*
X03424Y04662*
X03415Y04667*
X03405Y0467*
G37*
G36*
X04234Y04645D02*
X04225D01*
X04216Y04642*
X04208Y04638*
X04201Y04631*
X04197Y04623*
X04195Y04614*
Y04605*
X04196Y04598*
X04169Y0457*
X04165Y04565*
X04164Y0456*
Y03811*
X04158Y03808*
X04151Y03801*
X04147Y03793*
X04145Y03784*
Y03775*
X04147Y03766*
X04151Y03758*
X04158Y03751*
X04166Y03747*
X04175Y03745*
X04184*
X04193Y03747*
X04201Y03751*
X04208Y03758*
X04212Y03766*
X04215Y03775*
Y03784*
X04212Y03793*
X04208Y03801*
X04201Y03808*
X04195Y03811*
Y04553*
X04218Y04576*
X04225Y04575*
X04234*
X04243Y04577*
X04251Y04581*
X04258Y04588*
X04262Y04596*
X04265Y04605*
Y04614*
X04262Y04623*
X04258Y04631*
X04251Y04638*
X04243Y04642*
X04234Y04645*
G37*
G36*
X04954Y04565D02*
X04945D01*
X04936Y04562*
X04928Y04558*
X04921Y04551*
X04917Y04543*
X04915Y04534*
Y04525*
X04916Y04518*
X04829Y0443*
X04825Y04425*
X04824Y0442*
Y03991*
X04818Y03988*
X04811Y03981*
X04807Y03973*
X04805Y03964*
Y03955*
X04807Y03946*
X04811Y03938*
X04818Y03931*
X04826Y03927*
X04835Y03925*
X04844*
X04853Y03927*
X04861Y03931*
X04868Y03938*
X0487Y03941*
X04875Y0394*
Y03935*
X04877Y03926*
X04881Y03918*
X04888Y03911*
X04896Y03907*
X04905Y03905*
X04914*
X04923Y03907*
X04931Y03911*
X04938Y03918*
X04942Y03926*
X04945Y03935*
Y03944*
X04942Y03953*
X04938Y03961*
X04931Y03968*
X04923Y03972*
X04922Y03972*
Y04184*
X04926Y04186*
X04933Y04193*
X04938Y04201*
X0494Y0421*
Y04219*
X04938Y04228*
X04933Y04236*
X04926Y04243*
X04918Y04247*
X0491Y0425*
X049*
X04891Y04247*
X04883Y04243*
X04877Y04236*
X04872Y04228*
X0487Y04219*
Y0421*
X04872Y04201*
X04877Y04193*
X04883Y04186*
X04891Y04182*
X04892Y04182*
Y0397*
X04888Y03968*
X04881Y03961*
X0488Y03958*
X04875Y03959*
Y03964*
X04872Y03973*
X04868Y03981*
X04861Y03988*
X04855Y03991*
Y04413*
X04938Y04496*
X04945Y04495*
X04954*
X04963Y04497*
X04971Y04501*
X04978Y04508*
X04982Y04516*
X04985Y04525*
Y04534*
X04982Y04543*
X04978Y04551*
X04971Y04558*
X04963Y04562*
X04954Y04565*
G37*
G36*
X05288Y04192D02*
X05274D01*
X05261Y04189*
X05248Y04184*
X05237Y04177*
X05227Y04167*
X0522Y04156*
X05215Y04143*
X05212Y0413*
Y04116*
X05215Y04103*
X0522Y0409*
X05227Y04079*
X05237Y04069*
X05248Y04062*
X05261Y04056*
X05274Y04054*
X05288*
X05301Y04056*
X05314Y04062*
X05325Y04069*
X05335Y04079*
X05342Y0409*
X05347Y04103*
X0535Y04116*
Y0413*
X05347Y04143*
X05342Y04156*
X05335Y04167*
X05325Y04177*
X05314Y04184*
X05301Y04189*
X05288Y04192*
G37*
G36*
X04323D02*
X04309D01*
X04296Y04189*
X04283Y04184*
X04272Y04177*
X04262Y04167*
X04255Y04156*
X0425Y04143*
X04247Y0413*
Y04116*
X0425Y04103*
X04255Y0409*
X04262Y04079*
X04272Y04069*
X04283Y04062*
X04296Y04056*
X04309Y04054*
X04323*
X04336Y04056*
X04349Y04062*
X0436Y04069*
X0437Y04079*
X04377Y0409*
X04382Y04103*
X04385Y04116*
Y0413*
X04382Y04143*
X04377Y04156*
X0437Y04167*
X0436Y04177*
X04349Y04184*
X04336Y04189*
X04323Y04192*
G37*
G36*
X04434Y04665D02*
X04425D01*
X04416Y04662*
X04408Y04658*
X04401Y04651*
X04397Y04643*
X04395Y04634*
Y04625*
X04397Y04616*
X04401Y04608*
X04408Y04601*
X04414Y04598*
Y04086*
X04309Y0398*
X04305Y03975*
X04304Y0397*
Y03951*
X04298Y03948*
X04291Y03941*
X04287Y03933*
X04285Y03924*
Y03915*
X04287Y03906*
X04291Y03898*
X04298Y03891*
X04306Y03887*
X04315Y03885*
X04324*
X04333Y03887*
X04341Y03891*
X04348Y03898*
X04352Y03906*
X04355Y03915*
Y03924*
X04352Y03933*
X04348Y03941*
X04341Y03948*
X04335Y03951*
Y03963*
X0444Y04069*
X04444Y04074*
X04445Y0408*
Y04598*
X04451Y04601*
X04458Y04608*
X04462Y04616*
X04465Y04625*
Y04634*
X04462Y04643*
X04458Y04651*
X04451Y04658*
X04443Y04662*
X04434Y04665*
G37*
G36*
X03805Y0394D02*
X03794D01*
X03784Y03937*
X03775Y03932*
X03767Y03924*
X03762Y03915*
X0376Y03905*
Y03894*
X03762Y03884*
X03767Y03875*
X03775Y03867*
X03784Y03862*
X03794Y0386*
X03805*
X03815Y03862*
X03824Y03867*
X03832Y03875*
X03837Y03884*
X0384Y03894*
Y03905*
X03837Y03915*
X03832Y03924*
X03824Y03932*
X03815Y03937*
X03805Y0394*
G37*
G36*
X03405D02*
X03394D01*
X03384Y03937*
X03375Y03932*
X03367Y03924*
X03362Y03915*
X0336Y03905*
Y03894*
X03362Y03884*
X03367Y03875*
X03375Y03867*
X03384Y03862*
X03394Y0386*
X03405*
X03415Y03862*
X03424Y03867*
X03432Y03875*
X03437Y03884*
X0344Y03894*
Y03905*
X03437Y03915*
X03432Y03924*
X03424Y03932*
X03415Y03937*
X03405Y0394*
G37*
G36*
X04304Y03747D02*
X04295D01*
X04285Y03744*
X04276Y0374*
X04269Y03733*
X04265Y03724*
X04262Y03714*
Y03705*
X04265Y03695*
X04269Y03686*
X04276Y03679*
X04285Y03675*
X04295Y03672*
X04304*
X04314Y03675*
X04323Y03679*
X0433Y03686*
X04334Y03695*
X04337Y03705*
Y03714*
X04334Y03724*
X0433Y03733*
X04323Y0374*
X04314Y03744*
X04304Y03747*
G37*
G36*
X04004Y03733D02*
X03995D01*
X03987Y03731*
X03979Y03726*
X03973Y0372*
X03968Y03712*
X03966Y03704*
Y03695*
X03968Y03687*
X03973Y03679*
X03979Y03673*
X03987Y03668*
X03995Y03666*
X04004*
X04012Y03668*
X0402Y03673*
X04026Y03679*
X04031Y03687*
X04033Y03695*
Y03704*
X04031Y03712*
X04026Y0372*
X0402Y03726*
X04012Y03731*
X04004Y03733*
G37*
G36*
X04033Y03654D02*
X03966D01*
Y03587*
X04033*
Y03654*
G37*
G36*
X05705Y03639D02*
X05694D01*
X05684Y03636*
X05675Y03631*
X05668Y03624*
X05663Y03615*
X0566Y03605*
Y03594*
X05663Y03584*
X05668Y03575*
X05675Y03568*
X05684Y03563*
X05694Y0356*
X05705*
X05715Y03563*
X05724Y03568*
X05731Y03575*
X05736Y03584*
X05739Y03594*
Y03605*
X05736Y03615*
X05731Y03624*
X05724Y03631*
X05715Y03636*
X05705Y03639*
G37*
G36*
X04304Y03547D02*
X04295D01*
X04285Y03544*
X04276Y0354*
X04269Y03533*
X04265Y03524*
X04262Y03514*
Y03505*
X04265Y03495*
X04269Y03486*
X04276Y03479*
X04285Y03475*
X04295Y03472*
X04304*
X04314Y03475*
X04323Y03479*
X0433Y03486*
X04334Y03495*
X04337Y03505*
Y03514*
X04334Y03524*
X0433Y03533*
X04323Y0354*
X04314Y03544*
X04304Y03547*
G37*
G36*
X06205Y03539D02*
X06194D01*
X06184Y03536*
X06175Y03531*
X06168Y03524*
X06163Y03515*
X0616Y03505*
Y03494*
X06163Y03484*
X06168Y03475*
X06175Y03468*
X06184Y03463*
X06194Y0346*
X06205*
X06215Y03463*
X06224Y03468*
X06231Y03475*
X06236Y03484*
X06239Y03494*
Y03505*
X06236Y03515*
X06231Y03524*
X06224Y03531*
X06215Y03536*
X06205Y03539*
G37*
G36*
X05705D02*
X05694D01*
X05684Y03536*
X05675Y03531*
X05668Y03524*
X05663Y03515*
X0566Y03505*
Y03494*
X05663Y03484*
X05668Y03475*
X05675Y03468*
X05684Y03463*
X05694Y0346*
X05705*
X05715Y03463*
X05724Y03468*
X05731Y03475*
X05736Y03484*
X05739Y03494*
Y03505*
X05736Y03515*
X05731Y03524*
X05724Y03531*
X05715Y03536*
X05705Y03539*
G37*
G36*
X04304Y03447D02*
X04295D01*
X04285Y03444*
X04276Y0344*
X04269Y03433*
X04265Y03424*
X04262Y03414*
Y03405*
X04265Y03395*
X04269Y03386*
X04276Y03379*
X04285Y03375*
X04295Y03372*
X04304*
X04314Y03375*
X04323Y03379*
X0433Y03386*
X04334Y03395*
X04337Y03405*
Y03414*
X04334Y03424*
X0433Y03433*
X04323Y0344*
X04314Y03444*
X04304Y03447*
G37*
G36*
X06205Y03439D02*
X06194D01*
X06184Y03436*
X06175Y03431*
X06168Y03424*
X06163Y03415*
X0616Y03405*
Y03394*
X06163Y03384*
X06168Y03375*
X06175Y03368*
X06184Y03363*
X06194Y0336*
X06205*
X06215Y03363*
X06224Y03368*
X06231Y03375*
X06236Y03384*
X06239Y03394*
Y03405*
X06236Y03415*
X06231Y03424*
X06224Y03431*
X06215Y03436*
X06205Y03439*
G37*
G36*
X05705D02*
X05694D01*
X05684Y03436*
X05675Y03431*
X05668Y03424*
X05663Y03415*
X0566Y03405*
Y03394*
X05663Y03384*
X05668Y03375*
X05675Y03368*
X05684Y03363*
X05694Y0336*
X05705*
X05715Y03363*
X05724Y03368*
X05731Y03375*
X05736Y03384*
X05739Y03394*
Y03405*
X05736Y03415*
X05731Y03424*
X05724Y03431*
X05715Y03436*
X05705Y03439*
G37*
G36*
X04304Y03347D02*
X04295D01*
X04285Y03344*
X04276Y0334*
X04269Y03333*
X04265Y03324*
X04262Y03314*
Y03305*
X04265Y03295*
X04269Y03286*
X04276Y03279*
X04285Y03275*
X04295Y03272*
X04304*
X04314Y03275*
X04323Y03279*
X0433Y03286*
X04334Y03295*
X04337Y03305*
Y03314*
X04334Y03324*
X0433Y03333*
X04323Y0334*
X04314Y03344*
X04304Y03347*
G37*
G36*
X03855Y0334D02*
X03844D01*
X03834Y03337*
X03825Y03332*
X03817Y03324*
X03812Y03315*
X0381Y03305*
Y03294*
X03812Y03284*
X03817Y03275*
X03825Y03267*
X03834Y03262*
X03844Y0326*
X03855*
X03865Y03262*
X03874Y03267*
X03882Y03275*
X03887Y03284*
X0389Y03294*
Y03305*
X03887Y03315*
X03882Y03324*
X03874Y03332*
X03865Y03337*
X03855Y0334*
G37*
G36*
X02605Y0506D02*
X02594D01*
X02582Y05057*
X02571Y05053*
X02561Y05046*
X02553Y05038*
X02546Y05028*
X02542Y05017*
X0254Y05005*
Y04994*
X02542Y04982*
X02546Y04971*
X02553Y04961*
X02561Y04953*
X02571Y04946*
X02574Y04945*
Y0442*
X02576Y0441*
X02581Y04401*
X0368Y03303*
Y03294*
X03682Y03284*
X03687Y03275*
X03695Y03267*
X03704Y03262*
X03714Y0326*
X03725*
X03735Y03262*
X03744Y03267*
X03752Y03275*
X03757Y03284*
X0376Y03294*
Y03305*
X03757Y03315*
X03752Y03324*
X03744Y03332*
X03735Y03337*
X03725Y0334*
X03716*
X02625Y0443*
Y04945*
X02628Y04946*
X02638Y04953*
X02646Y04961*
X02653Y04971*
X02657Y04982*
X0266Y04994*
Y05005*
X02657Y05017*
X02653Y05028*
X02646Y05038*
X02638Y05046*
X02628Y05053*
X02617Y05057*
X02605Y0506*
G37*
G36*
X03435Y0334D02*
X03424D01*
X03414Y03337*
X03405Y03332*
X03397Y03324*
X03392Y03315*
X0339Y03305*
Y03294*
X03392Y03284*
X03397Y03275*
X03405Y03267*
X03414Y03262*
X03424Y0326*
X03435*
X03445Y03262*
X03454Y03267*
X03462Y03275*
X03467Y03284*
X0347Y03294*
Y03305*
X03467Y03315*
X03462Y03324*
X03454Y03332*
X03445Y03337*
X03435Y0334*
G37*
G36*
X03305D02*
X03294D01*
X03284Y03337*
X03275Y03332*
X03267Y03324*
X03262Y03315*
X0326Y03305*
Y03294*
X03262Y03284*
X03267Y03275*
X03275Y03267*
X03284Y03262*
X03294Y0326*
X03305*
X03315Y03262*
X03324Y03267*
X03332Y03275*
X03337Y03284*
X0334Y03294*
Y03305*
X03337Y03315*
X03332Y03324*
X03324Y03332*
X03315Y03337*
X03305Y0334*
G37*
G36*
X06205Y02739D02*
X06194D01*
X06184Y02736*
X06175Y02731*
X06168Y02724*
X06163Y02715*
X0616Y02705*
Y02694*
X06163Y02684*
X06168Y02675*
X06175Y02668*
X06184Y02663*
X06194Y0266*
X06205*
X06215Y02663*
X06224Y02668*
X06231Y02675*
X06236Y02684*
X06239Y02694*
Y02705*
X06236Y02715*
X06231Y02724*
X06224Y02731*
X06215Y02736*
X06205Y02739*
G37*
G36*
Y02639D02*
X06194D01*
X06184Y02636*
X06175Y02631*
X06168Y02624*
X06163Y02615*
X0616Y02605*
Y02594*
X06163Y02584*
X06168Y02575*
X06175Y02568*
X06184Y02563*
X06194Y0256*
X06205*
X06215Y02563*
X06224Y02568*
X06231Y02575*
X06236Y02584*
X06239Y02594*
Y02605*
X06236Y02615*
X06231Y02624*
X06224Y02631*
X06215Y02636*
X06205Y02639*
G37*
G36*
X05705D02*
X05694D01*
X05684Y02636*
X05675Y02631*
X05668Y02624*
X05663Y02615*
X0566Y02605*
Y02594*
X05663Y02584*
X05668Y02575*
X05675Y02568*
X05684Y02563*
X05694Y0256*
X05705*
X05715Y02563*
X05724Y02568*
X05731Y02575*
X05736Y02584*
X05739Y02594*
Y02605*
X05736Y02615*
X05731Y02624*
X05724Y02631*
X05715Y02636*
X05705Y02639*
G37*
G36*
X06205Y02539D02*
X06194D01*
X06184Y02536*
X06175Y02531*
X06168Y02524*
X06163Y02515*
X0616Y02505*
Y02494*
X06163Y02484*
X06168Y02475*
X06175Y02468*
X06184Y02463*
X06194Y0246*
X06205*
X06215Y02463*
X06224Y02468*
X06231Y02475*
X06236Y02484*
X06239Y02494*
Y02505*
X06236Y02515*
X06231Y02524*
X06224Y02531*
X06215Y02536*
X06205Y02539*
G37*
G36*
X05705D02*
X05694D01*
X05684Y02536*
X05675Y02531*
X05668Y02524*
X05663Y02515*
X0566Y02505*
Y02494*
X05663Y02484*
X05668Y02475*
X05675Y02468*
X05684Y02463*
X05694Y0246*
X05705*
X05715Y02463*
X05724Y02468*
X05731Y02475*
X05736Y02484*
X05739Y02494*
Y02505*
X05736Y02515*
X05731Y02524*
X05724Y02531*
X05715Y02536*
X05705Y02539*
G37*
G36*
X06205Y02439D02*
X06194D01*
X06184Y02436*
X06175Y02431*
X06168Y02424*
X06163Y02415*
X0616Y02405*
Y02394*
X06163Y02384*
X06168Y02375*
X06175Y02368*
X06184Y02363*
X06194Y0236*
X06205*
X06215Y02363*
X06224Y02368*
X06231Y02375*
X06236Y02384*
X06239Y02394*
Y02405*
X06236Y02415*
X06231Y02424*
X06224Y02431*
X06215Y02436*
X06205Y02439*
G37*
G36*
X05705D02*
X05694D01*
X05684Y02436*
X05675Y02431*
X05668Y02424*
X05663Y02415*
X0566Y02405*
Y02394*
X05663Y02384*
X05668Y02375*
X05675Y02368*
X05684Y02363*
X05694Y0236*
X05705*
X05715Y02363*
X05724Y02368*
X05731Y02375*
X05736Y02384*
X05739Y02394*
Y02405*
X05736Y02415*
X05731Y02424*
X05724Y02431*
X05715Y02436*
X05705Y02439*
G37*
G36*
X03855Y0244D02*
X03844D01*
X03834Y02437*
X03825Y02432*
X03817Y02424*
X03812Y02415*
X0381Y02405*
Y02394*
X03812Y02384*
X03817Y02375*
X03825Y02367*
X03834Y02362*
X03844Y0236*
X03855*
X03865Y02362*
X03874Y02367*
X03882Y02375*
X03887Y02384*
X0389Y02394*
Y02405*
X03887Y02415*
X03882Y02424*
X03874Y02432*
X03865Y02437*
X03855Y0244*
G37*
G36*
X03305D02*
X03294D01*
X03284Y02437*
X03275Y02432*
X03267Y02424*
X03262Y02415*
X0326Y02405*
Y02394*
X03262Y02384*
X03267Y02375*
X03275Y02367*
X03284Y02362*
X03294Y0236*
X03305*
X03315Y02362*
X03324Y02367*
X03332Y02375*
X03337Y02384*
X0334Y02394*
Y02405*
X03337Y02415*
X03332Y02424*
X03324Y02432*
X03315Y02437*
X03305Y0244*
G37*
G36*
X05739Y02339D02*
X0566D01*
Y0226*
X05739*
Y02339*
G37*
G36*
X02605Y0206D02*
X02594D01*
X02582Y02057*
X02571Y02053*
X02561Y02046*
X02553Y02038*
X02546Y02028*
X02542Y02017*
X0254Y02005*
Y01994*
X02542Y01982*
X02546Y01971*
X02553Y01961*
X02561Y01953*
X02571Y01946*
X02582Y01942*
X02594Y0194*
X02605*
X02617Y01942*
X02628Y01946*
X02638Y01953*
X02646Y01961*
X02653Y01971*
X02657Y01982*
X0266Y01994*
Y02005*
X02657Y02017*
X02653Y02028*
X02646Y02038*
X02638Y02046*
X02628Y02053*
X02617Y02057*
X02605Y0206*
G37*
G36*
X03644Y02D02*
X03634D01*
X03624Y01997*
X03615Y01992*
X03607Y01984*
X03602Y01975*
X036Y01965*
Y01955*
X03602Y01945*
X03607Y01936*
X03615Y01928*
X03624Y01923*
X03634Y0192*
X03644*
X03654Y01923*
X03663Y01928*
X03671Y01936*
X03676Y01945*
X03679Y01955*
Y01965*
X03676Y01975*
X03671Y01984*
X03663Y01992*
X03654Y01997*
X03644Y02*
G37*
G36*
X03579D02*
X035D01*
Y0192*
X03579*
Y02*
G37*
G36*
X06208Y02108D02*
X06191D01*
X06174Y02105*
X06158Y021*
X06143Y02092*
X06129Y02082*
X06117Y0207*
X06107Y02056*
X06099Y02041*
X06094Y02025*
X06091Y02008*
Y01991*
X06094Y01974*
X06099Y01958*
X06107Y01943*
X06117Y01929*
X06129Y01917*
X06143Y01907*
X06158Y01899*
X06174Y01894*
X06191Y01891*
X06208*
X06225Y01894*
X06241Y01899*
X06256Y01907*
X0627Y01917*
X06282Y01929*
X06292Y01943*
X063Y01958*
X06305Y01974*
X06308Y01991*
Y02008*
X06305Y02025*
X063Y02041*
X06292Y02056*
X06282Y0207*
X0627Y02082*
X06256Y02092*
X06241Y021*
X06225Y02105*
X06208Y02108*
G37*
G36*
X02008D02*
X01991D01*
X01974Y02105*
X01958Y021*
X01943Y02092*
X01929Y02082*
X01917Y0207*
X01907Y02056*
X01899Y02041*
X01894Y02025*
X01891Y02008*
Y01991*
X01894Y01974*
X01899Y01958*
X01907Y01943*
X01917Y01929*
X01929Y01917*
X01943Y01907*
X01958Y01899*
X01974Y01894*
X01991Y01891*
X02008*
X02025Y01894*
X02041Y01899*
X02056Y01907*
X0207Y01917*
X02082Y01929*
X02092Y01943*
X021Y01958*
X02105Y01974*
X02108Y01991*
Y02008*
X02105Y02025*
X021Y02041*
X02092Y02056*
X02082Y0207*
X0207Y02082*
X02056Y02092*
X02041Y021*
X02025Y02105*
X02008Y02108*
G37*
%LNpcb1-3*%
%LPD*%
G36*
X04875Y04768D02*
X04884Y04763D01*
Y04606*
X04759Y0448*
X04755Y04475*
X04754Y0447*
Y04081*
X04748Y04078*
X04741Y04071*
X0474Y04068*
X04735Y04069*
Y04473*
X0486Y04599*
X04864Y04604*
X04865Y0461*
Y04771*
X0487Y04773*
X04875Y04768*
G37*
G54D13*
X0523Y0341D02*
X0525Y0343D01*
Y0387*
X0464Y0475D02*
X0465Y0476D01*
X0464Y0412D02*
Y0475D01*
X0465Y0476D02*
Y0489D01*
X0468Y0492*
X0484Y0442D02*
X0495Y0453D01*
X0484Y0396D02*
Y0442D01*
X04907Y03942D02*
X0491Y0394D01*
X04907Y03942D02*
Y04212D01*
X04905Y04215D02*
X04907Y04212D01*
X053Y0241D02*
X05305D01*
X05545Y0265*
X0555*
X0449Y027D02*
X048D01*
X0438Y0281D02*
X0449Y027D01*
X043Y0281D02*
X0438D01*
X043Y0281D02*
X043Y0281D01*
X04797Y03267D02*
Y03283D01*
X048Y03285*
Y03729*
X0479Y0326D02*
X04797Y03267D01*
X0496Y0388D02*
X0499Y0391D01*
X0496Y0387D02*
Y0388D01*
X0499Y0391D02*
Y0443D01*
X0477Y0447D02*
X049Y046D01*
X0477Y0405D02*
Y0447D01*
X0472Y0448D02*
X0485Y0461D01*
X0472Y0398D02*
Y0448D01*
X0497Y0324D02*
Y0362D01*
X0485Y0316D02*
Y0365D01*
X0472Y0367D02*
X04725Y03665D01*
Y03295D02*
Y03665D01*
X0468Y0492D02*
X0518D01*
X046Y0347D02*
Y0365D01*
X0578Y0304D02*
X0587Y0313D01*
Y0325*
X053Y0251D02*
X0554Y0275D01*
Y0288*
X0575Y0376D02*
Y0475D01*
X058Y048*
X0554Y0355D02*
X0575Y0376D01*
X0558Y0468D02*
X057Y048D01*
X0558Y0389D02*
Y0468D01*
X0435Y0473D02*
X0437Y0471D01*
X0438*
X0435Y0473D02*
Y0493D01*
X0432Y0496D02*
X0435Y0493D01*
X0523Y0338D02*
Y0341D01*
Y0338D02*
X053Y0331D01*
X0529Y0322D02*
X053D01*
X0518Y0333D02*
Y0387D01*
Y0333D02*
X0529Y0322D01*
X053Y0321D02*
Y0322D01*
X0511Y03199D02*
X053Y0301D01*
X0511Y03199D02*
Y03859D01*
X0497Y0324D02*
X053Y0291D01*
X0491Y032D02*
Y0374D01*
Y032D02*
X053Y0281D01*
X05299Y0271D02*
X053D01*
X0485Y0316D02*
X05299Y0271D01*
X0479Y03739D02*
X048Y03729D01*
X0479Y03739D02*
Y0375D01*
X049Y046D02*
Y048D01*
X0485Y0461D02*
Y0484D01*
X04725Y03295D02*
X0473Y0329D01*
X0465Y0375D02*
X04655Y03745D01*
Y03415D02*
Y03745D01*
Y03415D02*
X0466Y0341D01*
X0453Y0334D02*
Y0375D01*
X043Y0311D02*
X0453Y0334D01*
X044Y048D02*
Y0496D01*
X0443Y0408D02*
Y0463D01*
X0427Y0512D02*
X0528D01*
X0403Y0488D02*
X0427Y0512D01*
X0403Y0377D02*
Y0488D01*
X04189Y0361D02*
X043D01*
X0403Y0377D02*
X04189Y0361D01*
X0418Y0456D02*
X0423Y0461D01*
X0418Y0378D02*
Y0456D01*
X0432Y0397D02*
X0443Y0408D01*
X0432Y0392D02*
Y0397D01*
X043Y0321D02*
X0441Y0332D01*
Y0371*
X0562Y0508D02*
X059Y048D01*
X0462Y0508D02*
X0562D01*
X0445Y0491D02*
X0462Y0508D01*
X0445Y0473D02*
Y0491D01*
Y0473D02*
X0449Y0469D01*
Y0427D02*
Y0469D01*
X0455Y04495D02*
X0457Y04475D01*
X0455Y04495D02*
Y0489D01*
X0457Y0407D02*
Y04475D01*
X0455Y0489D02*
X0467Y0501D01*
X052*
X054Y048D02*
Y0481D01*
X052Y0501D02*
X054Y0481D01*
X0518Y0492D02*
X053Y048D01*
X0493Y0487D02*
X05Y048D01*
X0488Y0487D02*
X0493D01*
X0485Y0484D02*
X0488Y0487D01*
X0619Y0259D02*
X062Y026D01*
X043Y0251D02*
X04569D01*
X0457Y0251*
X043Y0251D02*
X043Y0251D01*
X034Y04622D02*
Y0463D01*
X03398Y04621D02*
X034Y04622D01*
G54D20*
X04Y03621D03*
X057Y041D03*
G54D21*
X04Y037D03*
X057Y04021D03*
G54D29*
X026Y0442D02*
X0372Y033D01*
X026Y0442D02*
Y05D01*
X05107Y03927D02*
X05342D01*
X043Y0381D02*
X0499D01*
X05107Y03927*
X05342D02*
X0544Y0383D01*
Y0356D02*
X057Y033D01*
X0544Y0356D02*
Y0383D01*
X057Y027D02*
Y033D01*
X062*
X0581Y027D02*
X0592Y0259D01*
X057Y027D02*
X0581D01*
X0592Y0247D02*
Y0259D01*
X0609Y023D02*
X062D01*
X0592Y0247D02*
X0609Y023D01*
G54D30*
X043Y0381D03*
G54D31*
X043Y0371D03*
Y0361D03*
Y0351D03*
Y0341D03*
Y0331D03*
Y0321D03*
Y0311D03*
Y0301D03*
Y0291D03*
Y0281D03*
Y0271D03*
Y0261D03*
Y0251D03*
Y0241D03*
X053Y0381D03*
Y0371D03*
Y0361D03*
Y0351D03*
Y0341D03*
Y0331D03*
Y0321D03*
Y0311D03*
Y0301D03*
Y0291D03*
Y0281D03*
Y0271D03*
Y0261D03*
Y0251D03*
Y0241D03*
G54D32*
X04316Y02274D03*
X05281D03*
Y04123D03*
X04316D03*
G54D33*
X062Y035D03*
Y034D03*
X057Y024D03*
Y025D03*
Y026D03*
Y027D03*
Y034D03*
Y035D03*
Y036D03*
X048Y048D03*
X041D03*
X042D03*
X043D03*
X044D03*
X045D03*
X046D03*
X047D03*
X049D03*
X03639Y0196D03*
X061Y048D03*
X059D03*
X058D03*
X057D03*
X056D03*
X055D03*
X054D03*
X053D03*
X06D03*
X062Y027D03*
Y026D03*
Y025D03*
Y024D03*
G54D34*
X062Y033D03*
X057Y023D03*
Y033D03*
X062Y023D03*
G54D35*
X05Y048D03*
X03539Y0196D03*
X062Y048D03*
G54D36*
X026Y02D03*
Y05D03*
G54D37*
X0385Y033D03*
X033D03*
X0343D03*
X0385Y024D03*
X0372Y033D03*
X033Y024D03*
X034Y039D03*
X038D03*
X034Y0463D03*
X038D03*
G54D38*
X0525Y0387D03*
X0495Y0453D03*
X04905Y04215D03*
X0555Y0265D03*
X048Y027D03*
X0479Y0326D03*
X0496Y0387D03*
X0491Y0394D03*
X0484Y0396D03*
X0477Y0405D03*
X0472Y0398D03*
X0497Y0362D03*
X0485Y0365D03*
X0472Y0367D03*
X0464Y0412D03*
X046Y0365D03*
X0587Y0325D03*
X0578Y0304D03*
X0554Y0288D03*
Y0355D03*
X0558Y0389D03*
X0438Y0471D03*
X0432Y0496D03*
X0518Y0387D03*
X0511Y03859D03*
X0499Y0443D03*
X0491Y0374D03*
X0479Y0375D03*
X0473Y0329D03*
X0466Y0341D03*
X0465Y0375D03*
X046Y0347D03*
X0453Y0375D03*
X044Y0496D03*
X0443Y0463D03*
X0528Y0512D03*
X0423Y0461D03*
X0418Y0378D03*
X0432Y0392D03*
X0441Y0371D03*
X0449Y0427D03*
X0457Y0407D03*
Y0251D03*
G54D39*
X062Y02D03*
Y051D03*
X02Y02D03*
Y051D03*
M02*