%FSTAX23Y23*%
%MOIN*%
%SFA1B1*%

%IPPOS*%
%ADD12C,0.005000*%
%LNpcb1-1*%
%LPD*%
G54D12*
X04282Y0381D02*
X04317D01*
X043Y03792D02*
Y03827D01*
X04282Y0371D02*
X04317D01*
X043Y03692D02*
Y03727D01*
X04282Y0361D02*
X04317D01*
X043Y03592D02*
Y03627D01*
X04282Y0351D02*
X04317D01*
X043Y03492D02*
Y03527D01*
X04282Y0341D02*
X04317D01*
X043Y03392D02*
Y03427D01*
X04282Y0331D02*
X04317D01*
X043Y03292D02*
Y03327D01*
X04282Y0321D02*
X04317D01*
X043Y03192D02*
Y03227D01*
X04282Y0311D02*
X04317D01*
X043Y03092D02*
Y03127D01*
X04282Y0301D02*
X04317D01*
X043Y02992D02*
Y03027D01*
X04282Y0291D02*
X04317D01*
X043Y02892D02*
Y02927D01*
X04282Y0281D02*
X04317D01*
X043Y02792D02*
Y02827D01*
X04282Y0271D02*
X04317D01*
X043Y02692D02*
Y02727D01*
X04282Y0261D02*
X04317D01*
X043Y02592D02*
Y02627D01*
X04282Y0251D02*
X04317D01*
X043Y02492D02*
Y02527D01*
X04282Y0241D02*
X04317D01*
X043Y02392D02*
Y02427D01*
X05282Y0381D02*
X05317D01*
X053Y03792D02*
Y03827D01*
X05282Y0371D02*
X05317D01*
X053Y03692D02*
Y03727D01*
X05282Y0361D02*
X05317D01*
X053Y03592D02*
Y03627D01*
X05282Y0351D02*
X05317D01*
X053Y03492D02*
Y03527D01*
X05282Y0341D02*
X05317D01*
X053Y03392D02*
Y03427D01*
X05282Y0331D02*
X05317D01*
X053Y03292D02*
Y03327D01*
X05282Y0321D02*
X05317D01*
X053Y03192D02*
Y03227D01*
X05282Y0311D02*
X05317D01*
X053Y03092D02*
Y03127D01*
X05282Y0301D02*
X05317D01*
X053Y02992D02*
Y03027D01*
X05282Y0291D02*
X05317D01*
X053Y02892D02*
Y02927D01*
X05282Y0281D02*
X05317D01*
X053Y02792D02*
Y02827D01*
X05282Y0271D02*
X05317D01*
X053Y02692D02*
Y02727D01*
X05282Y0261D02*
X05317D01*
X053Y02592D02*
Y02627D01*
X05282Y0251D02*
X05317D01*
X053Y02492D02*
Y02527D01*
X05282Y0241D02*
X05317D01*
X053Y02392D02*
Y02427D01*
X04257Y02274D02*
X04375D01*
X04316Y02215D02*
Y02334D01*
X05222Y02274D02*
X0534D01*
X05281Y02215D02*
Y02334D01*
X05222Y04123D02*
X0534D01*
X05281Y04064D02*
Y04182D01*
X04257Y04123D02*
X04375D01*
X04316Y04064D02*
Y04182D01*
X03986Y03621D02*
X04013D01*
X04Y03607D02*
Y03635D01*
X03986Y037D02*
X04013D01*
X04Y03686D02*
Y03713D01*
X06182Y035D02*
X06217D01*
X062Y03482D02*
Y03517D01*
X06182Y034D02*
X06217D01*
X062Y03382D02*
Y03417D01*
X06182Y033D02*
X06217D01*
X062Y03282D02*
Y03317D01*
X05682Y023D02*
X05717D01*
X057Y02282D02*
Y02317D01*
X05682Y024D02*
X05717D01*
X057Y02382D02*
Y02417D01*
X05682Y025D02*
X05717D01*
X057Y02482D02*
Y02517D01*
X05682Y026D02*
X05717D01*
X057Y02582D02*
Y02617D01*
X05682Y027D02*
X05717D01*
X057Y02682D02*
Y02717D01*
X05682Y033D02*
X05717D01*
X057Y03282D02*
Y03317D01*
X05682Y034D02*
X05717D01*
X057Y03382D02*
Y03417D01*
X05682Y035D02*
X05717D01*
X057Y03482D02*
Y03517D01*
X05682Y036D02*
X05717D01*
X057Y03582D02*
Y03617D01*
X04782Y048D02*
X04817D01*
X048Y04782D02*
Y04817D01*
X04082Y048D02*
X04117D01*
X041Y04782D02*
Y04817D01*
X04182Y048D02*
X04217D01*
X042Y04782D02*
Y04817D01*
X04282Y048D02*
X04317D01*
X043Y04782D02*
Y04817D01*
X04382Y048D02*
X04417D01*
X044Y04782D02*
Y04817D01*
X04482Y048D02*
X04517D01*
X045Y04782D02*
Y04817D01*
X04582Y048D02*
X04617D01*
X046Y04782D02*
Y04817D01*
X04682Y048D02*
X04717D01*
X047Y04782D02*
Y04817D01*
X04882Y048D02*
X04917D01*
X049Y04782D02*
Y04817D01*
X04982Y048D02*
X05017D01*
X05Y04782D02*
Y04817D01*
X03621Y0196D02*
X03657D01*
X03639Y01942D02*
Y01978D01*
X03521Y0196D02*
X03557D01*
X03539Y01942D02*
Y01978D01*
X02565Y02D02*
X02635D01*
X026Y01965D02*
Y02035D01*
X02565Y05D02*
X02635D01*
X026Y04965D02*
Y05035D01*
X03835Y033D02*
X03865D01*
X0385Y03285D02*
Y03315D01*
X03285Y033D02*
X03315D01*
X033Y03285D02*
Y03315D01*
X03415Y033D02*
X03445D01*
X0343Y03285D02*
Y03315D01*
X03835Y024D02*
X03865D01*
X0385Y02385D02*
Y02415D01*
X03705Y033D02*
X03735D01*
X0372Y03285D02*
Y03315D01*
X03285Y024D02*
X03315D01*
X033Y02385D02*
Y02415D01*
X03385Y039D02*
X03415D01*
X034Y03885D02*
Y03915D01*
X03785Y039D02*
X03815D01*
X038Y03885D02*
Y03915D01*
X03385Y0463D02*
X03415D01*
X034Y04615D02*
Y04645D01*
X03785Y0463D02*
X03815D01*
X038Y04615D02*
Y04645D01*
X06182Y048D02*
X06217D01*
X062Y04782D02*
Y04817D01*
X06082Y048D02*
X06117D01*
X061Y04782D02*
Y04817D01*
X05882Y048D02*
X05917D01*
X059Y04782D02*
Y04817D01*
X05782Y048D02*
X05817D01*
X058Y04782D02*
Y04817D01*
X05682Y048D02*
X05717D01*
X057Y04782D02*
Y04817D01*
X05582Y048D02*
X05617D01*
X056Y04782D02*
Y04817D01*
X05482Y048D02*
X05517D01*
X055Y04782D02*
Y04817D01*
X05382Y048D02*
X05417D01*
X054Y04782D02*
Y04817D01*
X05282Y048D02*
X05317D01*
X053Y04782D02*
Y04817D01*
X05982Y048D02*
X06017D01*
X06Y04782D02*
Y04817D01*
X06182Y027D02*
X06217D01*
X062Y02682D02*
Y02717D01*
X06182Y026D02*
X06217D01*
X062Y02582D02*
Y02617D01*
X06182Y025D02*
X06217D01*
X062Y02482D02*
Y02517D01*
X06182Y024D02*
X06217D01*
X062Y02382D02*
Y02417D01*
X06182Y023D02*
X06217D01*
X062Y02282D02*
Y02317D01*
X05686Y04021D02*
X05713D01*
X057Y04007D02*
Y04035D01*
X05686Y041D02*
X05713D01*
X057Y04086D02*
Y04113D01*
X05236Y0387D02*
X05264D01*
X0525Y03856D02*
Y03884D01*
X04936Y0453D02*
X04964D01*
X0495Y04516D02*
Y04544D01*
X04891Y04215D02*
X04919D01*
X04905Y04201D02*
Y04229D01*
X05536Y0265D02*
X05564D01*
X0555Y02636D02*
Y02664D01*
X04786Y027D02*
X04814D01*
X048Y02686D02*
Y02714D01*
X04776Y0326D02*
X04804D01*
X0479Y03246D02*
Y03274D01*
X04946Y0387D02*
X04974D01*
X0496Y03856D02*
Y03884D01*
X04896Y0394D02*
X04924D01*
X0491Y03926D02*
Y03954D01*
X04826Y0396D02*
X04854D01*
X0484Y03946D02*
Y03974D01*
X04756Y0405D02*
X04784D01*
X0477Y04036D02*
Y04064D01*
X04706Y0398D02*
X04734D01*
X0472Y03966D02*
Y03994D01*
X04956Y0362D02*
X04984D01*
X0497Y03606D02*
Y03634D01*
X04836Y0365D02*
X04864D01*
X0485Y03636D02*
Y03664D01*
X04706Y0367D02*
X04734D01*
X0472Y03656D02*
Y03684D01*
X04626Y0412D02*
X04654D01*
X0464Y04106D02*
Y04134D01*
X04586Y0365D02*
X04614D01*
X046Y03636D02*
Y03664D01*
X05856Y0325D02*
X05884D01*
X0587Y03236D02*
Y03264D01*
X05766Y0304D02*
X05794D01*
X0578Y03026D02*
Y03054D01*
X05526Y0288D02*
X05554D01*
X0554Y02866D02*
Y02894D01*
X05526Y0355D02*
X05554D01*
X0554Y03536D02*
Y03564D01*
X05566Y0389D02*
X05594D01*
X0558Y03876D02*
Y03904D01*
X04366Y0471D02*
X04394D01*
X0438Y04696D02*
Y04724D01*
X04306Y0496D02*
X04334D01*
X0432Y04946D02*
Y04974D01*
X05166Y0387D02*
X05194D01*
X0518Y03856D02*
Y03884D01*
X05096Y03859D02*
X05124D01*
X0511Y03845D02*
Y03873D01*
X04976Y0443D02*
X05004D01*
X0499Y04416D02*
Y04444D01*
X04896Y0374D02*
X04924D01*
X0491Y03726D02*
Y03754D01*
X04776Y0375D02*
X04804D01*
X0479Y03736D02*
Y03764D01*
X04716Y0329D02*
X04744D01*
X0473Y03276D02*
Y03304D01*
X04646Y0341D02*
X04674D01*
X0466Y03396D02*
Y03424D01*
X04636Y0375D02*
X04664D01*
X0465Y03736D02*
Y03764D01*
X04586Y0347D02*
X04614D01*
X046Y03456D02*
Y03484D01*
X04516Y0375D02*
X04544D01*
X0453Y03736D02*
Y03764D01*
X04386Y0496D02*
X04414D01*
X044Y04946D02*
Y04974D01*
X04416Y0463D02*
X04444D01*
X0443Y04616D02*
Y04644D01*
X05266Y0512D02*
X05294D01*
X0528Y05106D02*
Y05134D01*
X04216Y0461D02*
X04244D01*
X0423Y04596D02*
Y04624D01*
X04166Y0378D02*
X04194D01*
X0418Y03766D02*
Y03794D01*
X04306Y0392D02*
X04334D01*
X0432Y03906D02*
Y03934D01*
X04396Y0371D02*
X04424D01*
X0441Y03696D02*
Y03724D01*
X04476Y0427D02*
X04504D01*
X0449Y04256D02*
Y04284D01*
X04556Y0407D02*
X04584D01*
X0457Y04056D02*
Y04084D01*
X04556Y0251D02*
X04584D01*
X0457Y02496D02*
Y02524D01*
X0614Y02D02*
X06259D01*
X062Y0194D02*
Y02059D01*
X0614Y051D02*
X06259D01*
X062Y0504D02*
Y05159D01*
X0194Y02D02*
X02059D01*
X02Y0194D02*
Y02059D01*
X0194Y051D02*
X02059D01*
X02Y0504D02*
Y05159D01*
M02*