G04*
G04 #@! TF.GenerationSoftware,Altium Limited,Altium Designer,23.3.1 (30)*
G04*
G04 Layer_Color=32768*
%FSLAX25Y25*%
%MOIN*%
G70*
G04*
G04 #@! TF.SameCoordinates,27A53AFF-B7D0-4960-851C-DE89EC337BCC*
G04*
G04*
G04 #@! TF.FilePolarity,Positive*
G04*
G01*
G75*
%ADD10C,0.00787*%
%ADD40C,0.00394*%
%ADD41C,0.00197*%
D10*
X400000Y377284D02*
X398994Y377238D01*
X397996Y377103D01*
X397015Y376879D01*
X396057Y376568D01*
X395132Y376172D01*
X394245Y375695D01*
X393405Y375141D01*
X392618Y374513D01*
X391890Y373817D01*
X391228Y373059D01*
X390636Y372244D01*
X390119Y371380D01*
X389683Y370473D01*
X389329Y369530D01*
X389061Y368560D01*
X388881Y367569D01*
X388791Y366566D01*
Y365560D01*
X388881Y364557D01*
X389061Y363566D01*
X389329Y362596D01*
X389683Y361653D01*
X390119Y360746D01*
X390636Y359882D01*
X391228Y359067D01*
X391890Y358309D01*
X392618Y357613D01*
X393405Y356985D01*
X394245Y356431D01*
X395132Y355954D01*
X396057Y355558D01*
X397015Y355247D01*
X397996Y355023D01*
X398994Y354888D01*
X400000Y354842D01*
X400000D02*
X401006Y354888D01*
X402003Y355023D01*
X402985Y355247D01*
X403943Y355558D01*
X404868Y355954D01*
X405755Y356431D01*
X406595Y356985D01*
X407382Y357613D01*
X408110Y358309D01*
X408773Y359067D01*
X409364Y359882D01*
X409881Y360746D01*
X410318Y361653D01*
X410671Y362596D01*
X410939Y363566D01*
X411119Y364557D01*
X411209Y365560D01*
Y366566D01*
X411119Y367569D01*
X410939Y368560D01*
X410671Y369530D01*
X410318Y370473D01*
X409881Y371380D01*
X409364Y372244D01*
X408773Y373059D01*
X408110Y373817D01*
X407382Y374513D01*
X406595Y375141D01*
X405755Y375695D01*
X404868Y376172D01*
X403943Y376568D01*
X402985Y376879D01*
X402003Y377103D01*
X401006Y377238D01*
X400000Y377284D01*
X570000Y417283D02*
X568994Y417238D01*
X567997Y417103D01*
X567015Y416879D01*
X566057Y416568D01*
X565132Y416172D01*
X564245Y415695D01*
X563405Y415140D01*
X562618Y414513D01*
X561890Y413817D01*
X561228Y413059D01*
X560636Y412244D01*
X560119Y411380D01*
X559683Y410473D01*
X559329Y409530D01*
X559061Y408560D01*
X558881Y407569D01*
X558791Y406566D01*
Y405560D01*
X558881Y404557D01*
X559061Y403566D01*
X559329Y402596D01*
X559683Y401653D01*
X560119Y400746D01*
X560636Y399882D01*
X561228Y399067D01*
X561890Y398309D01*
X562618Y397613D01*
X563405Y396985D01*
X564245Y396431D01*
X565132Y395954D01*
X566057Y395558D01*
X567015Y395247D01*
X567997Y395023D01*
X568994Y394888D01*
X570000Y394843D01*
X570000D02*
X571006Y394888D01*
X572004Y395023D01*
X572985Y395247D01*
X573943Y395558D01*
X574868Y395954D01*
X575755Y396431D01*
X576595Y396985D01*
X577382Y397613D01*
X578110Y398309D01*
X578772Y399067D01*
X579364Y399882D01*
X579881Y400746D01*
X580317Y401653D01*
X580671Y402596D01*
X580939Y403566D01*
X581119Y404557D01*
X581209Y405560D01*
Y406566D01*
X581119Y407569D01*
X580939Y408560D01*
X580671Y409530D01*
X580317Y410473D01*
X579881Y411380D01*
X579364Y412244D01*
X578772Y413059D01*
X578110Y413817D01*
X577382Y414513D01*
X576595Y415140D01*
X575755Y415695D01*
X574868Y416172D01*
X573943Y416568D01*
X572985Y416879D01*
X572004Y417103D01*
X571006Y417238D01*
X570000Y417283D01*
X417724Y436161D02*
X432717D01*
X417724D02*
Y443839D01*
X432717D01*
Y436161D02*
Y443839D01*
X412276Y436161D02*
Y443839D01*
X397283D02*
X412276D01*
X397283Y436161D02*
Y443839D01*
Y436161D02*
X412276D01*
D40*
X410000Y388032D02*
Y391968D01*
X408032Y390000D02*
X411969D01*
X548032Y400000D02*
X551968D01*
X550000Y398031D02*
Y401968D01*
D41*
X422795Y218638D02*
Y421197D01*
Y218638D02*
X537008D01*
Y421197D01*
X422795D02*
X537008D01*
X406063Y396693D02*
X413937D01*
X406063Y383307D02*
X413937D01*
Y396693D01*
X406063Y383307D02*
Y396693D01*
X546063Y393307D02*
Y406693D01*
X553937Y393307D02*
Y406693D01*
X546063Y393307D02*
X553937D01*
X546063Y406693D02*
X553937D01*
M02*
