G04*
G04 #@! TF.GenerationSoftware,Altium Limited,Altium Designer,23.3.1 (30)*
G04*
G04 Layer_Color=16711935*
%FSLAX25Y25*%
%MOIN*%
G70*
G04*
G04 #@! TF.SameCoordinates,27A53AFF-B7D0-4960-851C-DE89EC337BCC*
G04*
G04*
G04 #@! TF.FilePolarity,Positive*
G04*
G01*
G75*
%ADD10C,0.00787*%
G36*
X399352Y369874D02*
X399956D01*
Y369565D01*
X399352D01*
Y368469D01*
X399068D01*
X397438Y369623D01*
Y369874D01*
X399068D01*
Y370216D01*
X399352D01*
Y369874D01*
D02*
G37*
G36*
X399177Y368287D02*
X399199Y368280D01*
X399228Y368269D01*
X399261Y368258D01*
X399301Y368243D01*
X399345Y368225D01*
X399392Y368203D01*
X399494Y368152D01*
X399596Y368087D01*
X399647Y368047D01*
X399698Y368007D01*
X399742Y367963D01*
X399785Y367912D01*
X399789Y367908D01*
X399796Y367901D01*
X399803Y367883D01*
X399818Y367865D01*
X399836Y367836D01*
X399854Y367807D01*
X399873Y367766D01*
X399891Y367726D01*
X399913Y367679D01*
X399931Y367628D01*
X399949Y367573D01*
X399967Y367515D01*
X399982Y367453D01*
X399989Y367388D01*
X399996Y367319D01*
X400000Y367246D01*
Y367206D01*
X399996Y367177D01*
Y367144D01*
X399993Y367104D01*
X399986Y367060D01*
X399978Y367009D01*
X399960Y366904D01*
X399931Y366795D01*
X399891Y366685D01*
X399865Y366634D01*
X399836Y366583D01*
X399833Y366580D01*
X399829Y366572D01*
X399818Y366558D01*
X399803Y366543D01*
X399789Y366522D01*
X399767Y366496D01*
X399742Y366467D01*
X399712Y366438D01*
X399680Y366409D01*
X399647Y366376D01*
X399563Y366310D01*
X399465Y366249D01*
X399356Y366194D01*
X399352D01*
X399341Y366187D01*
X399323Y366183D01*
X399301Y366172D01*
X399272Y366165D01*
X399236Y366154D01*
X399196Y366139D01*
X399152Y366128D01*
X399105Y366118D01*
X399050Y366103D01*
X398937Y366085D01*
X398810Y366070D01*
X398679Y366063D01*
X398675D01*
X398660D01*
X398639D01*
X398613Y366067D01*
X398577D01*
X398540Y366070D01*
X398493Y366074D01*
X398446Y366081D01*
X398340Y366099D01*
X398224Y366125D01*
X398107Y366161D01*
X397994Y366212D01*
X397991Y366216D01*
X397980Y366219D01*
X397965Y366227D01*
X397947Y366241D01*
X397922Y366256D01*
X397892Y366274D01*
X397827Y366321D01*
X397754Y366383D01*
X397681Y366456D01*
X397609Y366540D01*
X397547Y366638D01*
X397543Y366642D01*
X397539Y366653D01*
X397532Y366667D01*
X397521Y366685D01*
X397510Y366715D01*
X397499Y366744D01*
X397485Y366780D01*
X397470Y366820D01*
X397456Y366864D01*
X397441Y366911D01*
X397419Y367013D01*
X397401Y367129D01*
X397394Y367250D01*
Y367286D01*
X397397Y367312D01*
X397401Y367344D01*
X397405Y367384D01*
X397408Y367424D01*
X397419Y367472D01*
X397441Y367570D01*
X397474Y367679D01*
X397496Y367734D01*
X397521Y367785D01*
X397554Y367836D01*
X397587Y367887D01*
X397590Y367890D01*
X397594Y367898D01*
X397605Y367912D01*
X397623Y367930D01*
X397641Y367949D01*
X397667Y367974D01*
X397696Y367999D01*
X397725Y368028D01*
X397761Y368058D01*
X397805Y368087D01*
X397849Y368120D01*
X397896Y368149D01*
X397951Y368174D01*
X398005Y368203D01*
X398064Y368225D01*
X398129Y368247D01*
X398205Y367919D01*
X398202D01*
X398195Y367916D01*
X398180Y367908D01*
X398162Y367901D01*
X398140Y367894D01*
X398111Y367883D01*
X398053Y367854D01*
X397987Y367817D01*
X397922Y367774D01*
X397860Y367719D01*
X397805Y367661D01*
X397798Y367654D01*
X397783Y367632D01*
X397765Y367595D01*
X397740Y367548D01*
X397718Y367486D01*
X397696Y367417D01*
X397681Y367333D01*
X397678Y367242D01*
Y367213D01*
X397681Y367195D01*
Y367169D01*
X397685Y367140D01*
X397696Y367071D01*
X397710Y366995D01*
X397736Y366915D01*
X397772Y366831D01*
X397820Y366755D01*
Y366751D01*
X397827Y366747D01*
X397845Y366722D01*
X397874Y366689D01*
X397918Y366649D01*
X397973Y366602D01*
X398034Y366558D01*
X398111Y366518D01*
X398195Y366481D01*
X398198D01*
X398205Y366478D01*
X398216Y366474D01*
X398235Y366471D01*
X398256Y366463D01*
X398282Y366456D01*
X398344Y366445D01*
X398417Y366431D01*
X398497Y366416D01*
X398584Y366409D01*
X398679Y366405D01*
X398682D01*
X398693D01*
X398711D01*
X398733D01*
X398759Y366409D01*
X398792D01*
X398828Y366412D01*
X398868Y366416D01*
X398955Y366427D01*
X399050Y366445D01*
X399145Y366467D01*
X399239Y366496D01*
X399243D01*
X399250Y366500D01*
X399261Y366507D01*
X399279Y366514D01*
X399323Y366536D01*
X399374Y366569D01*
X399432Y366609D01*
X399494Y366660D01*
X399549Y366718D01*
X399600Y366787D01*
Y366791D01*
X399603Y366798D01*
X399611Y366809D01*
X399618Y366824D01*
X399625Y366842D01*
X399636Y366864D01*
X399658Y366915D01*
X399680Y366980D01*
X399698Y367053D01*
X399712Y367133D01*
X399716Y367217D01*
Y367242D01*
X399712Y367264D01*
Y367290D01*
X399709Y367315D01*
X399694Y367381D01*
X399676Y367457D01*
X399647Y367533D01*
X399607Y367614D01*
X399585Y367654D01*
X399556Y367690D01*
X399552Y367694D01*
X399549Y367697D01*
X399538Y367708D01*
X399527Y367723D01*
X399509Y367737D01*
X399487Y367756D01*
X399465Y367777D01*
X399436Y367796D01*
X399403Y367817D01*
X399367Y367843D01*
X399330Y367865D01*
X399287Y367887D01*
X399239Y367905D01*
X399188Y367923D01*
X399134Y367941D01*
X399076Y367956D01*
X399159Y368291D01*
X399163D01*
X399177Y368287D01*
D02*
G37*
G36*
X425221Y437481D02*
X424052D01*
X424023Y437485D01*
X423990D01*
X423914Y437488D01*
X423834Y437499D01*
X423747Y437510D01*
X423667Y437529D01*
X423627Y437539D01*
X423594Y437550D01*
X423590D01*
X423587Y437554D01*
X423565Y437565D01*
X423532Y437579D01*
X423492Y437605D01*
X423448Y437638D01*
X423401Y437681D01*
X423357Y437732D01*
X423314Y437790D01*
Y437794D01*
X423310Y437798D01*
X423295Y437820D01*
X423281Y437856D01*
X423259Y437903D01*
X423241Y437958D01*
X423222Y438024D01*
X423211Y438093D01*
X423208Y438169D01*
Y438173D01*
Y438180D01*
Y438195D01*
X423211Y438213D01*
Y438238D01*
X423215Y438264D01*
X423230Y438326D01*
X423252Y438398D01*
X423281Y438475D01*
X423324Y438551D01*
X423353Y438588D01*
X423383Y438624D01*
X423386Y438628D01*
X423390Y438631D01*
X423401Y438642D01*
X423415Y438653D01*
X423434Y438668D01*
X423455Y438682D01*
X423485Y438701D01*
X423514Y438722D01*
X423550Y438741D01*
X423590Y438759D01*
X423634Y438781D01*
X423681Y438799D01*
X423736Y438813D01*
X423790Y438832D01*
X423852Y438842D01*
X423918Y438853D01*
X423910Y438857D01*
X423896Y438864D01*
X423874Y438879D01*
X423845Y438894D01*
X423779Y438934D01*
X423747Y438959D01*
X423717Y438981D01*
X423710Y438988D01*
X423692Y439006D01*
X423663Y439035D01*
X423627Y439072D01*
X423587Y439123D01*
X423539Y439177D01*
X423492Y439243D01*
X423441Y439316D01*
X423008Y440000D01*
X423423D01*
X423754Y439476D01*
Y439472D01*
X423761Y439465D01*
X423769Y439454D01*
X423779Y439439D01*
X423805Y439399D01*
X423838Y439349D01*
X423878Y439294D01*
X423918Y439236D01*
X423958Y439181D01*
X423994Y439130D01*
X423998Y439126D01*
X424009Y439112D01*
X424027Y439090D01*
X424052Y439065D01*
X424107Y439010D01*
X424136Y438984D01*
X424165Y438963D01*
X424169Y438959D01*
X424176Y438955D01*
X424191Y438948D01*
X424213Y438937D01*
X424234Y438926D01*
X424260Y438915D01*
X424318Y438897D01*
X424322D01*
X424329Y438894D01*
X424344D01*
X424362Y438890D01*
X424387Y438886D01*
X424416D01*
X424456Y438882D01*
X424886D01*
Y440000D01*
X425221D01*
Y437481D01*
D02*
G37*
G36*
X422855Y439996D02*
Y439982D01*
Y439960D01*
X422851Y439931D01*
X422848Y439898D01*
X422840Y439862D01*
X422833Y439825D01*
X422818Y439785D01*
Y439782D01*
X422815Y439778D01*
X422808Y439756D01*
X422793Y439723D01*
X422771Y439680D01*
X422742Y439629D01*
X422706Y439571D01*
X422666Y439512D01*
X422615Y439450D01*
Y439447D01*
X422607Y439443D01*
X422589Y439421D01*
X422556Y439389D01*
X422509Y439341D01*
X422454Y439287D01*
X422385Y439221D01*
X422302Y439148D01*
X422211Y439072D01*
X422207Y439068D01*
X422192Y439057D01*
X422170Y439039D01*
X422145Y439017D01*
X422112Y438988D01*
X422072Y438955D01*
X422032Y438919D01*
X421985Y438879D01*
X421894Y438792D01*
X421803Y438704D01*
X421759Y438660D01*
X421719Y438617D01*
X421683Y438577D01*
X421654Y438537D01*
Y438533D01*
X421646Y438529D01*
X421639Y438518D01*
X421632Y438504D01*
X421606Y438464D01*
X421577Y438417D01*
X421552Y438358D01*
X421526Y438297D01*
X421512Y438227D01*
X421504Y438162D01*
Y438158D01*
Y438155D01*
X421508Y438133D01*
X421512Y438096D01*
X421523Y438056D01*
X421537Y438005D01*
X421563Y437954D01*
X421595Y437903D01*
X421639Y437852D01*
X421646Y437845D01*
X421664Y437831D01*
X421690Y437812D01*
X421730Y437787D01*
X421781Y437765D01*
X421839Y437743D01*
X421908Y437729D01*
X421985Y437725D01*
X422007D01*
X422021Y437729D01*
X422065Y437732D01*
X422116Y437743D01*
X422170Y437758D01*
X422232Y437783D01*
X422291Y437816D01*
X422345Y437860D01*
X422353Y437867D01*
X422367Y437885D01*
X422389Y437914D01*
X422411Y437958D01*
X422436Y438009D01*
X422458Y438074D01*
X422473Y438147D01*
X422480Y438231D01*
X422797Y438198D01*
Y438195D01*
X422793Y438184D01*
Y438166D01*
X422789Y438140D01*
X422782Y438111D01*
X422775Y438078D01*
X422764Y438038D01*
X422753Y437998D01*
X422724Y437911D01*
X422680Y437823D01*
X422655Y437780D01*
X422622Y437736D01*
X422589Y437696D01*
X422553Y437660D01*
X422549Y437656D01*
X422542Y437652D01*
X422531Y437641D01*
X422513Y437630D01*
X422491Y437616D01*
X422465Y437601D01*
X422436Y437583D01*
X422400Y437565D01*
X422360Y437547D01*
X422316Y437529D01*
X422269Y437514D01*
X422218Y437499D01*
X422163Y437488D01*
X422105Y437477D01*
X422043Y437474D01*
X421978Y437470D01*
X421941D01*
X421916Y437474D01*
X421887Y437477D01*
X421850Y437481D01*
X421810Y437488D01*
X421770Y437496D01*
X421675Y437521D01*
X421581Y437558D01*
X421533Y437579D01*
X421486Y437605D01*
X421443Y437638D01*
X421403Y437674D01*
X421399Y437678D01*
X421392Y437681D01*
X421384Y437696D01*
X421370Y437711D01*
X421351Y437729D01*
X421333Y437754D01*
X421315Y437780D01*
X421293Y437812D01*
X421257Y437882D01*
X421220Y437969D01*
X421206Y438013D01*
X421199Y438064D01*
X421191Y438115D01*
X421188Y438169D01*
Y438176D01*
Y438195D01*
X421191Y438224D01*
X421195Y438264D01*
X421202Y438307D01*
X421217Y438358D01*
X421231Y438413D01*
X421253Y438468D01*
X421257Y438475D01*
X421264Y438493D01*
X421279Y438522D01*
X421301Y438562D01*
X421330Y438606D01*
X421366Y438660D01*
X421410Y438715D01*
X421461Y438777D01*
X421468Y438784D01*
X421486Y438806D01*
X421504Y438824D01*
X421523Y438842D01*
X421544Y438864D01*
X421573Y438894D01*
X421603Y438923D01*
X421639Y438955D01*
X421675Y438992D01*
X421719Y439032D01*
X421767Y439072D01*
X421817Y439119D01*
X421876Y439166D01*
X421934Y439217D01*
X421938Y439221D01*
X421945Y439228D01*
X421959Y439239D01*
X421978Y439254D01*
X421999Y439276D01*
X422025Y439297D01*
X422083Y439345D01*
X422145Y439399D01*
X422203Y439454D01*
X422254Y439501D01*
X422276Y439520D01*
X422294Y439538D01*
X422298Y439541D01*
X422309Y439552D01*
X422323Y439567D01*
X422342Y439589D01*
X422360Y439614D01*
X422382Y439640D01*
X422425Y439702D01*
X421184D01*
Y440000D01*
X422855D01*
Y439996D01*
D02*
G37*
G36*
X404779Y437481D02*
X403611D01*
X403582Y437485D01*
X403549D01*
X403473Y437488D01*
X403392Y437499D01*
X403305Y437510D01*
X403225Y437529D01*
X403185Y437539D01*
X403152Y437550D01*
X403149D01*
X403145Y437554D01*
X403123Y437565D01*
X403090Y437579D01*
X403050Y437605D01*
X403007Y437638D01*
X402959Y437681D01*
X402915Y437732D01*
X402872Y437790D01*
Y437794D01*
X402868Y437798D01*
X402854Y437820D01*
X402839Y437856D01*
X402817Y437903D01*
X402799Y437958D01*
X402781Y438024D01*
X402770Y438093D01*
X402766Y438169D01*
Y438173D01*
Y438180D01*
Y438195D01*
X402770Y438213D01*
Y438238D01*
X402774Y438264D01*
X402788Y438326D01*
X402810Y438398D01*
X402839Y438475D01*
X402883Y438551D01*
X402912Y438588D01*
X402941Y438624D01*
X402945Y438628D01*
X402948Y438631D01*
X402959Y438642D01*
X402974Y438653D01*
X402992Y438668D01*
X403014Y438682D01*
X403043Y438701D01*
X403072Y438722D01*
X403109Y438741D01*
X403149Y438759D01*
X403192Y438781D01*
X403239Y438799D01*
X403294Y438813D01*
X403349Y438832D01*
X403411Y438842D01*
X403476Y438853D01*
X403469Y438857D01*
X403454Y438864D01*
X403432Y438879D01*
X403403Y438894D01*
X403338Y438934D01*
X403305Y438959D01*
X403276Y438981D01*
X403269Y438988D01*
X403250Y439006D01*
X403221Y439035D01*
X403185Y439072D01*
X403145Y439123D01*
X403098Y439177D01*
X403050Y439243D01*
X402999Y439316D01*
X402566Y440000D01*
X402981D01*
X403312Y439476D01*
Y439472D01*
X403320Y439465D01*
X403327Y439454D01*
X403338Y439439D01*
X403363Y439399D01*
X403396Y439349D01*
X403436Y439294D01*
X403476Y439236D01*
X403516Y439181D01*
X403553Y439130D01*
X403556Y439126D01*
X403567Y439112D01*
X403585Y439090D01*
X403611Y439065D01*
X403665Y439010D01*
X403694Y438984D01*
X403724Y438963D01*
X403727Y438959D01*
X403734Y438955D01*
X403749Y438948D01*
X403771Y438937D01*
X403793Y438926D01*
X403818Y438915D01*
X403876Y438897D01*
X403880D01*
X403887Y438894D01*
X403902D01*
X403920Y438890D01*
X403946Y438886D01*
X403975D01*
X404015Y438882D01*
X404444D01*
Y440000D01*
X404779D01*
Y437481D01*
D02*
G37*
G36*
X401514Y438031D02*
X401518Y438034D01*
X401536Y438049D01*
X401558Y438071D01*
X401594Y438096D01*
X401634Y438129D01*
X401685Y438166D01*
X401744Y438205D01*
X401809Y438246D01*
X401813D01*
X401816Y438249D01*
X401838Y438264D01*
X401874Y438282D01*
X401918Y438304D01*
X401969Y438329D01*
X402024Y438355D01*
X402078Y438380D01*
X402133Y438402D01*
Y438104D01*
X402129D01*
X402122Y438096D01*
X402107Y438093D01*
X402089Y438082D01*
X402067Y438071D01*
X402042Y438056D01*
X401980Y438020D01*
X401907Y437980D01*
X401834Y437929D01*
X401758Y437871D01*
X401682Y437809D01*
X401678Y437805D01*
X401674Y437802D01*
X401663Y437790D01*
X401649Y437780D01*
X401616Y437743D01*
X401572Y437700D01*
X401529Y437649D01*
X401481Y437590D01*
X401441Y437532D01*
X401405Y437470D01*
X401205D01*
Y440000D01*
X401514D01*
Y438031D01*
D02*
G37*
G36*
X571387Y406059D02*
X571423D01*
X571460Y406056D01*
X571507Y406052D01*
X571554Y406045D01*
X571660Y406027D01*
X571776Y406001D01*
X571893Y405965D01*
X572006Y405914D01*
X572009Y405910D01*
X572020Y405906D01*
X572035Y405899D01*
X572053Y405885D01*
X572078Y405870D01*
X572108Y405852D01*
X572173Y405805D01*
X572246Y405743D01*
X572319Y405670D01*
X572391Y405586D01*
X572453Y405488D01*
X572457Y405484D01*
X572461Y405473D01*
X572468Y405459D01*
X572479Y405441D01*
X572490Y405411D01*
X572501Y405382D01*
X572515Y405346D01*
X572530Y405306D01*
X572544Y405262D01*
X572559Y405215D01*
X572581Y405113D01*
X572599Y404996D01*
X572606Y404876D01*
Y404840D01*
X572603Y404814D01*
X572599Y404782D01*
X572595Y404742D01*
X572592Y404702D01*
X572581Y404654D01*
X572559Y404556D01*
X572526Y404447D01*
X572504Y404392D01*
X572479Y404341D01*
X572446Y404290D01*
X572413Y404239D01*
X572410Y404236D01*
X572406Y404228D01*
X572395Y404214D01*
X572377Y404196D01*
X572359Y404178D01*
X572333Y404152D01*
X572304Y404127D01*
X572275Y404097D01*
X572239Y404068D01*
X572195Y404039D01*
X572151Y404006D01*
X572104Y403977D01*
X572049Y403952D01*
X571995Y403923D01*
X571936Y403901D01*
X571871Y403879D01*
X571795Y404207D01*
X571798D01*
X571805Y404210D01*
X571820Y404217D01*
X571838Y404225D01*
X571860Y404232D01*
X571889Y404243D01*
X571947Y404272D01*
X572013Y404309D01*
X572078Y404352D01*
X572140Y404407D01*
X572195Y404465D01*
X572202Y404472D01*
X572217Y404494D01*
X572235Y404531D01*
X572260Y404578D01*
X572282Y404640D01*
X572304Y404709D01*
X572319Y404793D01*
X572322Y404884D01*
Y404913D01*
X572319Y404931D01*
Y404956D01*
X572315Y404986D01*
X572304Y405055D01*
X572290Y405131D01*
X572264Y405211D01*
X572228Y405295D01*
X572180Y405371D01*
Y405375D01*
X572173Y405379D01*
X572155Y405404D01*
X572126Y405437D01*
X572082Y405477D01*
X572027Y405524D01*
X571966Y405568D01*
X571889Y405608D01*
X571805Y405644D01*
X571802D01*
X571795Y405648D01*
X571784Y405652D01*
X571765Y405655D01*
X571743Y405663D01*
X571718Y405670D01*
X571656Y405681D01*
X571583Y405695D01*
X571503Y405710D01*
X571416Y405717D01*
X571321Y405721D01*
X571318D01*
X571307D01*
X571288D01*
X571267D01*
X571241Y405717D01*
X571208D01*
X571172Y405714D01*
X571132Y405710D01*
X571045Y405699D01*
X570950Y405681D01*
X570855Y405659D01*
X570761Y405630D01*
X570757D01*
X570750Y405626D01*
X570739Y405619D01*
X570721Y405612D01*
X570677Y405590D01*
X570626Y405557D01*
X570568Y405517D01*
X570506Y405466D01*
X570451Y405408D01*
X570400Y405339D01*
Y405335D01*
X570397Y405328D01*
X570389Y405317D01*
X570382Y405302D01*
X570375Y405284D01*
X570364Y405262D01*
X570342Y405211D01*
X570320Y405146D01*
X570302Y405073D01*
X570288Y404993D01*
X570284Y404909D01*
Y404884D01*
X570288Y404862D01*
Y404836D01*
X570291Y404811D01*
X570306Y404745D01*
X570324Y404669D01*
X570353Y404593D01*
X570393Y404512D01*
X570415Y404472D01*
X570444Y404436D01*
X570448Y404432D01*
X570451Y404429D01*
X570462Y404418D01*
X570473Y404403D01*
X570491Y404389D01*
X570513Y404370D01*
X570535Y404349D01*
X570564Y404330D01*
X570597Y404309D01*
X570633Y404283D01*
X570670Y404261D01*
X570713Y404239D01*
X570761Y404221D01*
X570812Y404203D01*
X570866Y404185D01*
X570925Y404170D01*
X570841Y403835D01*
X570837D01*
X570823Y403839D01*
X570801Y403846D01*
X570772Y403857D01*
X570739Y403868D01*
X570699Y403883D01*
X570655Y403901D01*
X570608Y403923D01*
X570506Y403974D01*
X570404Y404039D01*
X570353Y404079D01*
X570302Y404119D01*
X570258Y404163D01*
X570215Y404214D01*
X570211Y404217D01*
X570204Y404225D01*
X570196Y404243D01*
X570182Y404261D01*
X570164Y404290D01*
X570146Y404319D01*
X570127Y404359D01*
X570109Y404399D01*
X570087Y404447D01*
X570069Y404498D01*
X570051Y404552D01*
X570033Y404611D01*
X570018Y404673D01*
X570011Y404738D01*
X570004Y404807D01*
X570000Y404880D01*
Y404920D01*
X570004Y404949D01*
Y404982D01*
X570007Y405022D01*
X570014Y405066D01*
X570022Y405117D01*
X570040Y405222D01*
X570069Y405331D01*
X570109Y405441D01*
X570135Y405492D01*
X570164Y405543D01*
X570167Y405546D01*
X570171Y405553D01*
X570182Y405568D01*
X570196Y405583D01*
X570211Y405604D01*
X570233Y405630D01*
X570258Y405659D01*
X570288Y405688D01*
X570320Y405717D01*
X570353Y405750D01*
X570437Y405816D01*
X570535Y405877D01*
X570644Y405932D01*
X570648D01*
X570659Y405939D01*
X570677Y405943D01*
X570699Y405954D01*
X570728Y405961D01*
X570764Y405972D01*
X570804Y405987D01*
X570848Y405998D01*
X570895Y406008D01*
X570950Y406023D01*
X571063Y406041D01*
X571190Y406056D01*
X571321Y406063D01*
X571325D01*
X571340D01*
X571361D01*
X571387Y406059D01*
D02*
G37*
G36*
X571940Y403311D02*
X571947Y403304D01*
X571951Y403289D01*
X571962Y403271D01*
X571973Y403249D01*
X571987Y403224D01*
X572024Y403162D01*
X572064Y403089D01*
X572115Y403016D01*
X572173Y402940D01*
X572235Y402864D01*
X572239Y402860D01*
X572242Y402856D01*
X572253Y402845D01*
X572264Y402831D01*
X572300Y402798D01*
X572344Y402754D01*
X572395Y402711D01*
X572453Y402663D01*
X572512Y402623D01*
X572573Y402587D01*
Y402387D01*
X570044D01*
Y402696D01*
X572013D01*
X572009Y402700D01*
X571995Y402718D01*
X571973Y402740D01*
X571947Y402776D01*
X571915Y402816D01*
X571878Y402867D01*
X571838Y402925D01*
X571798Y402991D01*
Y402994D01*
X571795Y402998D01*
X571780Y403020D01*
X571762Y403056D01*
X571740Y403100D01*
X571714Y403151D01*
X571689Y403206D01*
X571663Y403260D01*
X571642Y403315D01*
X571940D01*
Y403311D01*
D02*
G37*
%LPC*%
G36*
X399068Y369565D02*
X397940D01*
X399068Y368771D01*
Y369565D01*
D02*
G37*
G36*
X424886Y438595D02*
X424136D01*
X424092Y438591D01*
X424042Y438588D01*
X423983Y438584D01*
X423925Y438577D01*
X423867Y438566D01*
X423816Y438551D01*
X423808Y438548D01*
X423794Y438540D01*
X423772Y438529D01*
X423743Y438515D01*
X423710Y438493D01*
X423677Y438468D01*
X423645Y438435D01*
X423619Y438398D01*
X423616Y438395D01*
X423608Y438380D01*
X423597Y438358D01*
X423583Y438329D01*
X423572Y438297D01*
X423561Y438260D01*
X423554Y438216D01*
X423550Y438173D01*
Y438169D01*
Y438166D01*
X423554Y438144D01*
X423557Y438111D01*
X423565Y438067D01*
X423583Y438024D01*
X423605Y437972D01*
X423637Y437925D01*
X423681Y437878D01*
X423688Y437874D01*
X423707Y437860D01*
X423736Y437842D01*
X423783Y437820D01*
X423838Y437798D01*
X423910Y437780D01*
X423994Y437765D01*
X424092Y437761D01*
X424886D01*
Y438595D01*
D02*
G37*
G36*
X404444D02*
X403694D01*
X403651Y438591D01*
X403600Y438588D01*
X403542Y438584D01*
X403483Y438577D01*
X403425Y438566D01*
X403374Y438551D01*
X403367Y438548D01*
X403352Y438540D01*
X403331Y438529D01*
X403301Y438515D01*
X403269Y438493D01*
X403236Y438468D01*
X403203Y438435D01*
X403178Y438398D01*
X403174Y438395D01*
X403167Y438380D01*
X403156Y438358D01*
X403141Y438329D01*
X403130Y438297D01*
X403119Y438260D01*
X403112Y438216D01*
X403109Y438173D01*
Y438169D01*
Y438166D01*
X403112Y438144D01*
X403116Y438111D01*
X403123Y438067D01*
X403141Y438024D01*
X403163Y437972D01*
X403196Y437925D01*
X403239Y437878D01*
X403247Y437874D01*
X403265Y437860D01*
X403294Y437842D01*
X403341Y437820D01*
X403396Y437798D01*
X403469Y437780D01*
X403553Y437765D01*
X403651Y437761D01*
X404444D01*
Y438595D01*
D02*
G37*
%LPD*%
D10*
X417724Y436161D02*
X432717D01*
X417724D02*
Y443839D01*
X432717D01*
Y436161D02*
Y443839D01*
X412276Y436161D02*
Y443839D01*
X397283D02*
X412276D01*
X397283Y436161D02*
Y443839D01*
Y436161D02*
X412276D01*
M02*
