M48
;Layer_Color=9474304
;FILE_FORMAT=2:4
INCH,TZ
;TYPE=PLATED
T1F00S00C0.0276
T2F00S00C0.0280
T3F00S00C0.0300
T4F00S00C0.0350
T5F00S00C0.0354
T6F00S00C0.0700
T7F00S00C0.1181
;TYPE=NON_PLATED
T8F00S00C0.1181
%
T01
X40000Y36213
Y37000
X57000Y40213
Y41000
T02
X48000Y27000
X55500Y26500
X55400Y28800
X57800Y30400
X45700Y25100
X46600Y34100
X46000Y34700
Y36500
X46500Y37500
X45300
X44100Y37100
X41800Y37800
X43200Y39200
X45700Y40700
X46400Y41200
X44900Y42700
X44300Y46300
X42300Y46100
X49500Y45300
X49900Y44300
X49054Y42150
X49100Y39400
X48400Y39600
X47200Y39800
X47700Y40500
X47900Y37500
X49100Y37400
X48500Y36500
X49700Y36200
X49600Y38700
X51104Y38596
X51800Y38700
X52500
X55800Y38900
X55400Y35500
X58700Y32500
X47900Y32600
X47300Y32900
X47200Y36700
X52800Y51200
X44000Y49600
X43200
X43800Y47100
T03
X33000Y24000
X38500
Y33000
X37200
X34300
X33000
X34000Y39000
X38000
Y46300
X34000
T04
X53000Y24100
Y25100
Y26100
Y27100
Y28100
Y29100
Y30100
Y31100
X43000
Y30100
Y29100
Y28100
Y27100
Y26100
Y25100
Y24100
Y32100
Y33100
Y34100
Y35100
Y36100
Y37100
Y38100
X53000
Y37100
Y36100
Y35100
Y34100
Y33100
Y32100
T05
X57000Y23000
Y24000
Y25000
Y26000
Y27000
X62000
Y26000
Y25000
Y24000
Y23000
X36395Y19605
X35395
X57000Y33000
Y34000
Y35000
Y36000
X62000Y35000
Y34000
Y33000
Y48000
X61000
X60000
X59000
X58000
X57000
X56000
X55000
X54000
X53000
X50000
X49000
X48000
X47000
X46000
X45000
X44000
X43000
X42000
X41000
T06
X26000Y20000
Y50000
T07
X62000Y20000
X20000
X62000Y51000
X20000
T08
X52815Y22750
X43165
Y41234
X52815
M30
