G04*
G04 #@! TF.GenerationSoftware,Altium Limited,Altium Designer,23.3.1 (30)*
G04*
G04 Layer_Physical_Order=1*
G04 Layer_Color=255*
%FSLAX25Y25*%
%MOIN*%
G70*
G04*
G04 #@! TF.SameCoordinates,27A53AFF-B7D0-4960-851C-DE89EC337BCC*
G04*
G04*
G04 #@! TF.FilePolarity,Positive*
G04*
G01*
G75*
%ADD13C,0.01000*%
%ADD14R,0.05709X0.05118*%
%ADD15R,0.03764X0.06528*%
%ADD20R,0.04724X0.04724*%
%ADD21C,0.04724*%
%ADD29C,0.03000*%
%ADD30R,0.07874X0.07874*%
%ADD31C,0.05500*%
%ADD32C,0.11811*%
%ADD33C,0.05906*%
%ADD34R,0.05906X0.05906*%
%ADD35R,0.05906X0.05906*%
%ADD36C,0.10000*%
%ADD37C,0.06000*%
%ADD38C,0.05000*%
%ADD39C,0.19685*%
G36*
X552145Y357971D02*
X551851Y357801D01*
X551199Y357149D01*
X550842Y356529D01*
X539000D01*
X538415Y356413D01*
X537919Y356081D01*
X534367Y352529D01*
X533447D01*
X533001Y353303D01*
X532333Y353971D01*
X532350Y354180D01*
X532428Y354471D01*
X534000D01*
X534585Y354587D01*
X535081Y354919D01*
X538633Y358471D01*
X552011D01*
X552145Y357971D01*
D02*
G37*
G36*
X551199Y352851D02*
X551851Y352199D01*
X552145Y352029D01*
X552011Y351529D01*
X539000D01*
X538415Y351413D01*
X538018Y351148D01*
X537699Y351536D01*
X539634Y353471D01*
X550842D01*
X551199Y352851D01*
D02*
G37*
G36*
X566837Y347573D02*
X567381Y347029D01*
X567173Y346529D01*
X565000D01*
X564415Y346413D01*
X563918Y346081D01*
X560366Y342529D01*
X533447D01*
X533001Y343303D01*
X532333Y343971D01*
X532350Y344180D01*
X532428Y344471D01*
X535000D01*
X535585Y344587D01*
X536081Y344919D01*
X539634Y348471D01*
X566319D01*
X566837Y347573D01*
D02*
G37*
G36*
X475408Y325937D02*
X475500Y325845D01*
Y325539D01*
X475685Y324848D01*
X470837Y320000D01*
X465816D01*
X465625Y320462D01*
X471175Y326012D01*
X471649Y325739D01*
X472539Y325500D01*
X473461D01*
X474351Y325739D01*
X475000Y326113D01*
X475408Y325937D01*
D02*
G37*
G36*
X640000Y180000D02*
X560000D01*
Y238471D01*
X566319D01*
X566837Y237573D01*
X567573Y236837D01*
X568474Y236317D01*
X569480Y236047D01*
X570520D01*
X571526Y236317D01*
X572427Y236837D01*
X573163Y237573D01*
X573681Y238471D01*
X595000D01*
X595585Y238587D01*
X596081Y238919D01*
X605633Y248471D01*
X616319D01*
X616837Y247573D01*
X617573Y246837D01*
X618474Y246317D01*
X619480Y246047D01*
X620520D01*
X621526Y246317D01*
X622427Y246837D01*
X623163Y247573D01*
X623683Y248474D01*
X623953Y249480D01*
Y250520D01*
X623683Y251526D01*
X623163Y252427D01*
X622427Y253163D01*
X621526Y253683D01*
X620520Y253953D01*
X619480D01*
X618474Y253683D01*
X617573Y253163D01*
X616837Y252427D01*
X616319Y251529D01*
X605000D01*
X604415Y251413D01*
X603919Y251081D01*
X594367Y241529D01*
X573681D01*
X573163Y242427D01*
X572427Y243163D01*
X571526Y243683D01*
X570520Y243953D01*
X569480D01*
X568474Y243683D01*
X567573Y243163D01*
X566837Y242427D01*
X566319Y241529D01*
X560000D01*
Y248471D01*
X566319D01*
X566837Y247573D01*
X567573Y246837D01*
X568474Y246317D01*
X569480Y246047D01*
X570520D01*
X571526Y246317D01*
X572427Y246837D01*
X573163Y247573D01*
X573681Y248471D01*
X593000D01*
X593585Y248587D01*
X594081Y248919D01*
X603633Y258471D01*
X616319D01*
X616837Y257573D01*
X617573Y256837D01*
X618474Y256317D01*
X619480Y256047D01*
X620520D01*
X621526Y256317D01*
X622427Y256837D01*
X623163Y257573D01*
X623683Y258474D01*
X623953Y259480D01*
Y260520D01*
X623683Y261526D01*
X623163Y262427D01*
X622427Y263163D01*
X621526Y263683D01*
X620520Y263953D01*
X619480D01*
X618474Y263683D01*
X617573Y263163D01*
X616837Y262427D01*
X616319Y261529D01*
X603000D01*
X602415Y261413D01*
X601919Y261081D01*
X592367Y251529D01*
X573681D01*
X573163Y252427D01*
X572427Y253163D01*
X571526Y253683D01*
X570520Y253953D01*
X569480D01*
X568474Y253683D01*
X567573Y253163D01*
X566837Y252427D01*
X566319Y251529D01*
X560000D01*
Y267837D01*
X576634Y284471D01*
X586000D01*
X586585Y284587D01*
X587081Y284919D01*
X630081Y327919D01*
X630413Y328415D01*
X630529Y329000D01*
Y408500D01*
X630413Y409085D01*
X630082Y409581D01*
X623982Y415681D01*
Y480547D01*
X623953Y480695D01*
Y483953D01*
X616047D01*
Y476047D01*
X620923D01*
Y415047D01*
X621040Y414462D01*
X621371Y413966D01*
X627471Y407866D01*
Y329633D01*
X624415Y326578D01*
X623953Y326769D01*
Y333953D01*
X616047D01*
Y326047D01*
X623231D01*
X623422Y325585D01*
X585366Y287529D01*
X576000D01*
X575415Y287413D01*
X574919Y287081D01*
X560462Y272625D01*
X560000Y272816D01*
Y291837D01*
X570634Y302471D01*
X574841D01*
X575199Y301851D01*
X575851Y301199D01*
X576649Y300739D01*
X577539Y300500D01*
X578461D01*
X579351Y300739D01*
X580149Y301199D01*
X580801Y301851D01*
X581261Y302649D01*
X581500Y303539D01*
Y304461D01*
X581261Y305351D01*
X580801Y306149D01*
X580149Y306801D01*
X579351Y307261D01*
X578461Y307500D01*
X577539D01*
X576649Y307261D01*
X575851Y306801D01*
X575199Y306149D01*
X574841Y305529D01*
X570000D01*
X569415Y305413D01*
X568919Y305081D01*
X560462Y296625D01*
X560000Y296816D01*
Y309553D01*
X586083D01*
X586668Y309670D01*
X587164Y310001D01*
X615633Y338471D01*
X616319D01*
X616837Y337573D01*
X617573Y336837D01*
X618474Y336317D01*
X619480Y336047D01*
X620520D01*
X621526Y336317D01*
X622427Y336837D01*
X623163Y337573D01*
X623683Y338474D01*
X623953Y339480D01*
Y340520D01*
X623683Y341526D01*
X623163Y342427D01*
X622427Y343163D01*
X621526Y343683D01*
X620520Y343953D01*
X619480D01*
X618474Y343683D01*
X617573Y343163D01*
X616837Y342427D01*
X616319Y341529D01*
X615000D01*
X614415Y341413D01*
X613919Y341081D01*
X585449Y312612D01*
X557388D01*
X555991Y314009D01*
X556183Y314471D01*
X569000D01*
X569585Y314587D01*
X570081Y314919D01*
X585081Y329919D01*
X585413Y330415D01*
X585529Y331000D01*
Y457367D01*
X601081Y472919D01*
X601413Y473415D01*
X601529Y474000D01*
Y476319D01*
X602427Y476837D01*
X603163Y477573D01*
X603683Y478474D01*
X603953Y479480D01*
Y480520D01*
X603683Y481526D01*
X603163Y482427D01*
X602427Y483163D01*
X601526Y483683D01*
X600520Y483953D01*
X599480D01*
X598474Y483683D01*
X597573Y483163D01*
X596837Y482427D01*
X596317Y481526D01*
X596047Y480520D01*
Y479480D01*
X596317Y478474D01*
X596837Y477573D01*
X597573Y476837D01*
X598471Y476319D01*
Y474634D01*
X582919Y459081D01*
X582587Y458585D01*
X582471Y458000D01*
Y331633D01*
X568366Y317529D01*
X552471D01*
X550000Y320000D01*
X534025D01*
X533721Y320397D01*
X533750Y320506D01*
Y321494D01*
X533494Y322447D01*
X533001Y323303D01*
X532303Y324001D01*
X531448Y324494D01*
X530494Y324750D01*
X529506D01*
X528552Y324494D01*
X527698Y324001D01*
X526999Y323303D01*
X526506Y322447D01*
X526250Y321494D01*
Y320506D01*
X526279Y320397D01*
X525975Y320000D01*
X491816D01*
X491625Y320462D01*
X515633Y344471D01*
X527572D01*
X527649Y344180D01*
X527667Y343971D01*
X526999Y343303D01*
X526506Y342447D01*
X526250Y341494D01*
Y340506D01*
X526506Y339553D01*
X526999Y338697D01*
X527698Y337999D01*
X528552Y337506D01*
X529506Y337250D01*
X530494D01*
X531448Y337506D01*
X532303Y337999D01*
X533001Y338697D01*
X533447Y339471D01*
X561000D01*
X561585Y339587D01*
X562081Y339919D01*
X565633Y343471D01*
X567173D01*
X567381Y342971D01*
X566837Y342427D01*
X566317Y341526D01*
X566047Y340520D01*
Y340500D01*
X570000D01*
X573953D01*
Y340520D01*
X573683Y341526D01*
X573163Y342427D01*
X572619Y342971D01*
X572826Y343471D01*
X575000D01*
X575585Y343587D01*
X576081Y343919D01*
X580081Y347919D01*
X580413Y348415D01*
X580529Y349000D01*
Y452000D01*
X580413Y452585D01*
X580081Y453081D01*
X561529Y471633D01*
Y476319D01*
X562427Y476837D01*
X563163Y477573D01*
X563683Y478474D01*
X563953Y479480D01*
Y480520D01*
X563683Y481526D01*
X563163Y482427D01*
X562427Y483163D01*
X561526Y483683D01*
X560520Y483953D01*
X559480D01*
X558474Y483683D01*
X557573Y483163D01*
X556837Y482427D01*
X556317Y481526D01*
X556047Y480520D01*
Y479480D01*
X556317Y478474D01*
X556837Y477573D01*
X557573Y476837D01*
X558471Y476319D01*
Y471000D01*
X558587Y470415D01*
X558919Y469919D01*
X577471Y451367D01*
Y349634D01*
X574367Y346529D01*
X572826D01*
X572619Y347029D01*
X573163Y347573D01*
X573683Y348474D01*
X573953Y349480D01*
Y350520D01*
X573683Y351526D01*
X573163Y352427D01*
X572427Y353163D01*
X571526Y353683D01*
X570520Y353953D01*
X569480D01*
X568474Y353683D01*
X567573Y353163D01*
X566837Y352427D01*
X566319Y351529D01*
X555989D01*
X555855Y352029D01*
X556149Y352199D01*
X556801Y352851D01*
X557262Y353649D01*
X557500Y354539D01*
Y355461D01*
X557262Y356351D01*
X556801Y357149D01*
X556149Y357801D01*
X555855Y357971D01*
X555989Y358471D01*
X566319D01*
X566837Y357573D01*
X567573Y356837D01*
X568474Y356317D01*
X569480Y356047D01*
X570520D01*
X571526Y356317D01*
X572427Y356837D01*
X573163Y357573D01*
X573683Y358474D01*
X573953Y359480D01*
Y360520D01*
X573683Y361526D01*
X573163Y362427D01*
X572427Y363163D01*
X571526Y363683D01*
X570520Y363953D01*
X569480D01*
X568474Y363683D01*
X567573Y363163D01*
X566837Y362427D01*
X566319Y361529D01*
X538000D01*
X537415Y361413D01*
X536918Y361081D01*
X533366Y357529D01*
X532428D01*
X532350Y357820D01*
X532333Y358029D01*
X533001Y358697D01*
X533494Y359553D01*
X533750Y360506D01*
Y361494D01*
X533519Y362356D01*
X556848Y385685D01*
X557539Y385500D01*
X558461D01*
X559351Y385738D01*
X560149Y386199D01*
X560801Y386851D01*
X561262Y387649D01*
X561500Y388539D01*
Y389461D01*
X561262Y390351D01*
X560801Y391149D01*
X560149Y391801D01*
X559351Y392262D01*
X558461Y392500D01*
X557539D01*
X556649Y392262D01*
X555851Y391801D01*
X555199Y391149D01*
X554739Y390351D01*
X554500Y389461D01*
Y388539D01*
X554685Y387848D01*
X531356Y364519D01*
X530494Y364750D01*
X529506D01*
X528552Y364494D01*
X527698Y364001D01*
X526999Y363303D01*
X526506Y362447D01*
X526250Y361494D01*
Y360506D01*
X526506Y359553D01*
X526999Y358697D01*
X527667Y358029D01*
X527649Y357820D01*
X527572Y357529D01*
X458000D01*
X457415Y357413D01*
X456919Y357081D01*
X442449Y342612D01*
X433399D01*
X433001Y343303D01*
X432303Y344001D01*
X431448Y344494D01*
X430494Y344750D01*
X429506D01*
X428552Y344494D01*
X427698Y344001D01*
X426999Y343303D01*
X426506Y342447D01*
X426250Y341494D01*
Y340506D01*
X426506Y339553D01*
X426999Y338697D01*
X427698Y337999D01*
X428552Y337506D01*
X429506Y337250D01*
X430494D01*
X431448Y337506D01*
X432303Y337999D01*
X433001Y338697D01*
X433494Y339553D01*
X433495Y339553D01*
X443083D01*
X443668Y339670D01*
X444164Y340001D01*
X458634Y354471D01*
X527572D01*
X527649Y354180D01*
X527667Y353971D01*
X526999Y353303D01*
X526506Y352447D01*
X526250Y351494D01*
Y350506D01*
X526506Y349553D01*
X526999Y348697D01*
X527667Y348029D01*
X527649Y347820D01*
X527572Y347529D01*
X515000D01*
X514415Y347413D01*
X513919Y347081D01*
X486837Y320000D01*
X475816D01*
X475625Y320462D01*
X477848Y322685D01*
X478539Y322500D01*
X479461D01*
X480351Y322739D01*
X481149Y323199D01*
X481801Y323851D01*
X482262Y324649D01*
X482500Y325539D01*
Y326461D01*
X482262Y327351D01*
X481801Y328149D01*
X481149Y328801D01*
X480351Y329261D01*
X479461Y329500D01*
X478539D01*
X477649Y329261D01*
X477000Y328887D01*
X476592Y329063D01*
X476500Y329155D01*
Y329461D01*
X476262Y330351D01*
X475801Y331149D01*
X475149Y331801D01*
X474351Y332261D01*
X473461Y332500D01*
X472539D01*
X471649Y332261D01*
X470851Y331801D01*
X470199Y331149D01*
X469738Y330351D01*
X469500Y329461D01*
Y328663D01*
X460837Y320000D01*
X460357D01*
X460166Y320462D01*
X467081Y327377D01*
X467413Y327873D01*
X467529Y328459D01*
Y337842D01*
X468149Y338199D01*
X468801Y338851D01*
X469262Y339649D01*
X469500Y340539D01*
Y341461D01*
X469262Y342351D01*
X468801Y343149D01*
X468149Y343801D01*
X467351Y344262D01*
X466461Y344500D01*
X465539D01*
X464649Y344262D01*
X463851Y343801D01*
X463199Y343149D01*
X462739Y342351D01*
X462500Y341461D01*
Y340539D01*
X462739Y339649D01*
X463199Y338851D01*
X463851Y338199D01*
X464471Y337842D01*
Y329092D01*
X455378Y320000D01*
X451733D01*
X451542Y320462D01*
X461081Y330001D01*
X461413Y330497D01*
X461529Y331083D01*
Y343842D01*
X462149Y344199D01*
X462801Y344851D01*
X463262Y345649D01*
X463500Y346539D01*
Y347461D01*
X463262Y348351D01*
X462801Y349149D01*
X462149Y349801D01*
X461351Y350261D01*
X460461Y350500D01*
X459539D01*
X458649Y350261D01*
X457851Y349801D01*
X457199Y349149D01*
X456739Y348351D01*
X456500Y347461D01*
Y346539D01*
X456739Y345649D01*
X457199Y344851D01*
X457851Y344199D01*
X458471Y343842D01*
Y331716D01*
X446754Y320000D01*
X434025D01*
X433721Y320397D01*
X433750Y320506D01*
Y321494D01*
X433494Y322447D01*
X433001Y323303D01*
X432303Y324001D01*
X431448Y324494D01*
X430494Y324750D01*
X429506D01*
X428552Y324494D01*
X427698Y324001D01*
X426999Y323303D01*
X426506Y322447D01*
X426250Y321494D01*
Y320506D01*
X426279Y320397D01*
X425975Y320000D01*
X410000D01*
X400000Y310000D01*
Y180000D01*
X180000D01*
Y530000D01*
X640000D01*
Y180000D01*
D02*
G37*
%LPC*%
G36*
X620853Y520843D02*
X619147D01*
X617461Y520576D01*
X615838Y520048D01*
X614317Y519273D01*
X612937Y518270D01*
X611730Y517063D01*
X610727Y515683D01*
X609952Y514162D01*
X609424Y512539D01*
X609158Y510853D01*
Y509147D01*
X609424Y507461D01*
X609952Y505838D01*
X610727Y504317D01*
X611730Y502937D01*
X612937Y501730D01*
X614317Y500727D01*
X615838Y499952D01*
X617461Y499425D01*
X619147Y499157D01*
X620853D01*
X622539Y499425D01*
X624162Y499952D01*
X625683Y500727D01*
X627063Y501730D01*
X628270Y502937D01*
X629273Y504317D01*
X630048Y505838D01*
X630576Y507461D01*
X630842Y509147D01*
Y510853D01*
X630576Y512539D01*
X630048Y514162D01*
X629273Y515683D01*
X628270Y517063D01*
X627063Y518270D01*
X625683Y519273D01*
X624162Y520048D01*
X622539Y520576D01*
X620853Y520843D01*
D02*
G37*
G36*
X200853D02*
X199147D01*
X197461Y520576D01*
X195838Y520048D01*
X194317Y519273D01*
X192937Y518270D01*
X191730Y517063D01*
X190727Y515683D01*
X189952Y514162D01*
X189425Y512539D01*
X189157Y510853D01*
Y509147D01*
X189425Y507461D01*
X189952Y505838D01*
X190727Y504317D01*
X191730Y502937D01*
X192937Y501730D01*
X194317Y500727D01*
X195838Y499952D01*
X197461Y499425D01*
X199147Y499157D01*
X200853D01*
X202539Y499425D01*
X204162Y499952D01*
X205683Y500727D01*
X207063Y501730D01*
X208270Y502937D01*
X209273Y504317D01*
X210048Y505838D01*
X210576Y507461D01*
X210842Y509147D01*
Y510853D01*
X210576Y512539D01*
X210048Y514162D01*
X209273Y515683D01*
X208270Y517063D01*
X207063Y518270D01*
X205683Y519273D01*
X204162Y520048D01*
X202539Y520576D01*
X200853Y520843D01*
D02*
G37*
G36*
X260591Y506000D02*
X259409D01*
X258250Y505769D01*
X257158Y505317D01*
X256175Y504661D01*
X255340Y503825D01*
X254683Y502842D01*
X254231Y501750D01*
X254000Y500591D01*
Y499409D01*
X254231Y498250D01*
X254683Y497158D01*
X255340Y496175D01*
X256175Y495339D01*
X257158Y494683D01*
X258250Y494231D01*
X259409Y494000D01*
X260591D01*
X261750Y494231D01*
X262842Y494683D01*
X263825Y495339D01*
X264661Y496175D01*
X265317Y497158D01*
X265769Y498250D01*
X266000Y499409D01*
Y500591D01*
X265769Y501750D01*
X265317Y502842D01*
X264661Y503825D01*
X263825Y504661D01*
X262842Y505317D01*
X261750Y505769D01*
X260591Y506000D01*
D02*
G37*
G36*
X590520Y483953D02*
X589480D01*
X588474Y483683D01*
X587573Y483163D01*
X586837Y482427D01*
X586317Y481526D01*
X586047Y480520D01*
Y479480D01*
X586317Y478474D01*
X586837Y477573D01*
X587573Y476837D01*
X588474Y476317D01*
X589480Y476047D01*
X590520D01*
X591526Y476317D01*
X592427Y476837D01*
X593163Y477573D01*
X593683Y478474D01*
X593953Y479480D01*
Y480520D01*
X593683Y481526D01*
X593163Y482427D01*
X592427Y483163D01*
X591526Y483683D01*
X590520Y483953D01*
D02*
G37*
G36*
X580520D02*
X579480D01*
X578474Y483683D01*
X577573Y483163D01*
X576837Y482427D01*
X576317Y481526D01*
X576047Y480520D01*
Y479480D01*
X576317Y478474D01*
X576837Y477573D01*
X577573Y476837D01*
X578474Y476317D01*
X579480Y476047D01*
X580520D01*
X581526Y476317D01*
X582427Y476837D01*
X583163Y477573D01*
X583683Y478474D01*
X583953Y479480D01*
Y480520D01*
X583683Y481526D01*
X583163Y482427D01*
X582427Y483163D01*
X581526Y483683D01*
X580520Y483953D01*
D02*
G37*
G36*
X570520D02*
X569480D01*
X568474Y483683D01*
X567573Y483163D01*
X566837Y482427D01*
X566317Y481526D01*
X566047Y480520D01*
Y479480D01*
X566317Y478474D01*
X566837Y477573D01*
X567573Y476837D01*
X568474Y476317D01*
X569480Y476047D01*
X570520D01*
X571526Y476317D01*
X572427Y476837D01*
X573163Y477573D01*
X573683Y478474D01*
X573953Y479480D01*
Y480520D01*
X573683Y481526D01*
X573163Y482427D01*
X572427Y483163D01*
X571526Y483683D01*
X570520Y483953D01*
D02*
G37*
G36*
X528461Y515500D02*
X527539D01*
X526649Y515262D01*
X525851Y514801D01*
X525199Y514149D01*
X524739Y513351D01*
X524500Y512461D01*
Y511539D01*
X524739Y510649D01*
X525199Y509851D01*
X525851Y509199D01*
X526649Y508739D01*
X527539Y508500D01*
X528461D01*
X529152Y508685D01*
X548471Y489366D01*
Y483681D01*
X547573Y483163D01*
X546837Y482427D01*
X546317Y481526D01*
X546047Y480520D01*
Y479480D01*
X546317Y478474D01*
X546837Y477573D01*
X547573Y476837D01*
X548474Y476317D01*
X549480Y476047D01*
X550520D01*
X551526Y476317D01*
X552427Y476837D01*
X553163Y477573D01*
X553683Y478474D01*
X553953Y479480D01*
Y480520D01*
X553683Y481526D01*
X553163Y482427D01*
X552427Y483163D01*
X551529Y483681D01*
Y490000D01*
X551413Y490585D01*
X551081Y491081D01*
X531315Y510848D01*
X531500Y511539D01*
Y512461D01*
X531261Y513351D01*
X530801Y514149D01*
X530149Y514801D01*
X529351Y515262D01*
X528461Y515500D01*
D02*
G37*
G36*
X540520Y483953D02*
X539480D01*
X538474Y483683D01*
X537573Y483163D01*
X536837Y482427D01*
X536317Y481526D01*
X536047Y480520D01*
Y479480D01*
X536317Y478474D01*
X536837Y477573D01*
X537573Y476837D01*
X538474Y476317D01*
X539480Y476047D01*
X540520D01*
X541526Y476317D01*
X542427Y476837D01*
X543163Y477573D01*
X543683Y478474D01*
X543953Y479480D01*
Y480520D01*
X543683Y481526D01*
X543163Y482427D01*
X542427Y483163D01*
X541526Y483683D01*
X540520Y483953D01*
D02*
G37*
G36*
X530520D02*
X529480D01*
X528474Y483683D01*
X527573Y483163D01*
X526837Y482427D01*
X526317Y481526D01*
X526047Y480520D01*
Y479480D01*
X526317Y478474D01*
X526837Y477573D01*
X527573Y476837D01*
X528474Y476317D01*
X529480Y476047D01*
X530520D01*
X531526Y476317D01*
X532427Y476837D01*
X533163Y477573D01*
X533683Y478474D01*
X533953Y479480D01*
Y480520D01*
X533683Y481526D01*
X533163Y482427D01*
X532427Y483163D01*
X531526Y483683D01*
X530520Y483953D01*
D02*
G37*
G36*
X450520D02*
X449480D01*
X448474Y483683D01*
X447573Y483163D01*
X446837Y482427D01*
X446317Y481526D01*
X446047Y480520D01*
Y479480D01*
X446315Y478478D01*
X441132Y473295D01*
X440655D01*
X440149Y473801D01*
X439351Y474262D01*
X438461Y474500D01*
X437539D01*
X436649Y474262D01*
X435851Y473801D01*
X435199Y473149D01*
X434738Y472351D01*
X434500Y471461D01*
Y470539D01*
X434738Y469649D01*
X435199Y468851D01*
X435851Y468199D01*
X436649Y467738D01*
X437539Y467500D01*
X438461D01*
X439351Y467738D01*
X440149Y468199D01*
X440801Y468851D01*
X441261Y469649D01*
X441419Y470236D01*
X441765D01*
X442351Y470352D01*
X442847Y470684D01*
X448478Y476315D01*
X449480Y476047D01*
X450520D01*
X451526Y476317D01*
X452427Y476837D01*
X453163Y477573D01*
X453683Y478474D01*
X453953Y479480D01*
Y480520D01*
X453683Y481526D01*
X453163Y482427D01*
X452427Y483163D01*
X451526Y483683D01*
X450520Y483953D01*
D02*
G37*
G36*
X440520D02*
X439480D01*
X438474Y483683D01*
X437573Y483163D01*
X436837Y482427D01*
X436317Y481526D01*
X436047Y480520D01*
Y479480D01*
X436317Y478474D01*
X436837Y477573D01*
X437573Y476837D01*
X438474Y476317D01*
X439480Y476047D01*
X440520D01*
X441526Y476317D01*
X442427Y476837D01*
X443163Y477573D01*
X443683Y478474D01*
X443953Y479480D01*
Y480520D01*
X443683Y481526D01*
X443163Y482427D01*
X442427Y483163D01*
X441526Y483683D01*
X440520Y483953D01*
D02*
G37*
G36*
X380527Y467000D02*
X380500D01*
Y463500D01*
X384000D01*
Y463527D01*
X383727Y464544D01*
X383201Y465456D01*
X382456Y466201D01*
X381544Y466727D01*
X380527Y467000D01*
D02*
G37*
G36*
X379500D02*
X379473D01*
X378456Y466727D01*
X377544Y466201D01*
X376799Y465456D01*
X376273Y464544D01*
X376000Y463527D01*
Y463500D01*
X379500D01*
Y467000D01*
D02*
G37*
G36*
X384000Y462500D02*
X380500D01*
Y459000D01*
X380527D01*
X381544Y459273D01*
X382456Y459799D01*
X383201Y460544D01*
X383727Y461456D01*
X384000Y462473D01*
Y462500D01*
D02*
G37*
G36*
X379500D02*
X376000D01*
Y462473D01*
X376273Y461456D01*
X376799Y460544D01*
X377544Y459799D01*
X378456Y459273D01*
X379473Y459000D01*
X379500D01*
Y462500D01*
D02*
G37*
G36*
X497000Y502529D02*
X433000D01*
X432415Y502413D01*
X431919Y502081D01*
X430919Y501081D01*
X430587Y500585D01*
X430471Y500000D01*
Y499158D01*
X429851Y498801D01*
X429199Y498149D01*
X428738Y497351D01*
X428500Y496461D01*
Y495539D01*
X428738Y494649D01*
X429199Y493851D01*
X429851Y493199D01*
X430649Y492738D01*
X431539Y492500D01*
X432461D01*
X433351Y492738D01*
X434149Y493199D01*
X434801Y493851D01*
X435261Y494649D01*
X435500Y495539D01*
Y496461D01*
X435261Y497351D01*
X434801Y498149D01*
X434149Y498801D01*
X433855Y498971D01*
X433989Y499471D01*
X438011D01*
X438145Y498971D01*
X437851Y498801D01*
X437199Y498149D01*
X436738Y497351D01*
X436500Y496461D01*
Y495539D01*
X436738Y494649D01*
X437199Y493851D01*
X437851Y493199D01*
X438649Y492738D01*
X439539Y492500D01*
X440461D01*
X441351Y492738D01*
X442149Y493199D01*
X442801Y493851D01*
X443158Y494471D01*
X494367D01*
X505471Y483366D01*
Y451634D01*
X500152Y446315D01*
X499461Y446500D01*
X498539D01*
X497649Y446262D01*
X496851Y445801D01*
X496199Y445149D01*
X495739Y444351D01*
X495500Y443461D01*
Y442539D01*
X495739Y441649D01*
X496199Y440851D01*
X496851Y440199D01*
X497649Y439739D01*
X498539Y439500D01*
X499461D01*
X500351Y439739D01*
X501149Y440199D01*
X501801Y440851D01*
X502261Y441649D01*
X502500Y442539D01*
Y443461D01*
X502315Y444152D01*
X508081Y449919D01*
X508413Y450415D01*
X508529Y451000D01*
Y484000D01*
X508413Y484585D01*
X508081Y485081D01*
X496081Y497081D01*
X495585Y497413D01*
X495000Y497529D01*
X443158D01*
X442801Y498149D01*
X442149Y498801D01*
X441855Y498971D01*
X441989Y499471D01*
X496367D01*
X517471Y478367D01*
Y403000D01*
X517587Y402415D01*
X517919Y401919D01*
X523471Y396367D01*
Y390159D01*
X522851Y389801D01*
X522199Y389149D01*
X521766Y388399D01*
X521500Y388358D01*
X521234Y388399D01*
X520801Y389149D01*
X520149Y389801D01*
X519351Y390262D01*
X518461Y390500D01*
X517539D01*
X516903Y390330D01*
X516529Y390652D01*
Y417041D01*
X516413Y417626D01*
X516081Y418123D01*
X486529Y447675D01*
Y477174D01*
X487029Y477381D01*
X487573Y476837D01*
X488474Y476317D01*
X489480Y476047D01*
X490520D01*
X491526Y476317D01*
X492427Y476837D01*
X492971Y477381D01*
X493471Y477174D01*
Y456158D01*
X492851Y455801D01*
X492199Y455149D01*
X491739Y454351D01*
X491500Y453461D01*
Y452539D01*
X491739Y451649D01*
X492199Y450851D01*
X492851Y450199D01*
X493649Y449739D01*
X494539Y449500D01*
X495461D01*
X496351Y449739D01*
X497149Y450199D01*
X497801Y450851D01*
X498261Y451649D01*
X498500Y452539D01*
Y453461D01*
X498261Y454351D01*
X497801Y455149D01*
X497149Y455801D01*
X496529Y456158D01*
Y476047D01*
X503953D01*
Y483953D01*
X496529D01*
Y487000D01*
X496413Y487585D01*
X496081Y488081D01*
X493081Y491081D01*
X492585Y491413D01*
X492000Y491529D01*
X419000D01*
X418415Y491413D01*
X417919Y491081D01*
X410733Y483896D01*
X410520Y483953D01*
X409480D01*
X408474Y483683D01*
X407573Y483163D01*
X406837Y482427D01*
X406317Y481526D01*
X406047Y480520D01*
Y479480D01*
X406317Y478474D01*
X406837Y477573D01*
X407573Y476837D01*
X408474Y476317D01*
X409480Y476047D01*
X410520D01*
X411526Y476317D01*
X412427Y476837D01*
X413163Y477573D01*
X413683Y478474D01*
X413953Y479480D01*
Y480520D01*
X413683Y481526D01*
X413319Y482156D01*
X419633Y488471D01*
X491366D01*
X493471Y486367D01*
Y482827D01*
X492971Y482619D01*
X492427Y483163D01*
X491526Y483683D01*
X490520Y483953D01*
X489480D01*
X488474Y483683D01*
X487573Y483163D01*
X487029Y482619D01*
X486529Y482827D01*
Y485000D01*
X486413Y485585D01*
X486081Y486081D01*
X485081Y487081D01*
X484585Y487413D01*
X484000Y487529D01*
X466000D01*
X465415Y487413D01*
X464919Y487081D01*
X461522Y483684D01*
X460520Y483953D01*
X459480D01*
X458474Y483683D01*
X457573Y483163D01*
X456837Y482427D01*
X456317Y481526D01*
X456047Y480520D01*
Y479480D01*
X456317Y478474D01*
X456837Y477573D01*
X457573Y476837D01*
X458474Y476317D01*
X459480Y476047D01*
X460520D01*
X461526Y476317D01*
X462427Y476837D01*
X463163Y477573D01*
X463683Y478474D01*
X463953Y479480D01*
Y480520D01*
X463685Y481522D01*
X466634Y484471D01*
X483366D01*
X483471Y484367D01*
Y482827D01*
X482971Y482619D01*
X482427Y483163D01*
X481526Y483683D01*
X480520Y483953D01*
X479480D01*
X478474Y483683D01*
X477573Y483163D01*
X476837Y482427D01*
X476317Y481526D01*
X476047Y480520D01*
Y479480D01*
X476317Y478474D01*
X476837Y477573D01*
X477573Y476837D01*
X478471Y476319D01*
Y466634D01*
X471367Y459529D01*
X444989D01*
X444855Y460029D01*
X445149Y460199D01*
X445801Y460851D01*
X446262Y461649D01*
X446500Y462539D01*
Y463461D01*
X446315Y464152D01*
X450633Y468471D01*
X464000D01*
X464585Y468587D01*
X465081Y468919D01*
X470629Y474466D01*
X470960Y474962D01*
X471077Y475547D01*
Y476196D01*
X471526Y476317D01*
X472427Y476837D01*
X473163Y477573D01*
X473683Y478474D01*
X473953Y479480D01*
Y480520D01*
X473683Y481526D01*
X473163Y482427D01*
X472427Y483163D01*
X471526Y483683D01*
X470520Y483953D01*
X469480D01*
X468474Y483683D01*
X467573Y483163D01*
X466837Y482427D01*
X466317Y481526D01*
X466047Y480520D01*
Y479480D01*
X466317Y478474D01*
X466837Y477573D01*
X467573Y476837D01*
X467916Y476639D01*
X467959Y476122D01*
X463367Y471529D01*
X450000D01*
X449415Y471413D01*
X448918Y471081D01*
X444152Y466315D01*
X443461Y466500D01*
X442539D01*
X441649Y466261D01*
X440851Y465801D01*
X440199Y465149D01*
X439739Y464351D01*
X439500Y463461D01*
Y462539D01*
X439739Y461649D01*
X440199Y460851D01*
X440851Y460199D01*
X441145Y460029D01*
X441011Y459529D01*
X436633D01*
X434081Y462081D01*
X433585Y462413D01*
X433000Y462529D01*
X426159D01*
X425801Y463149D01*
X425149Y463801D01*
X424351Y464261D01*
X423461Y464500D01*
X422539D01*
X421649Y464261D01*
X420851Y463801D01*
X420199Y463149D01*
X419738Y462351D01*
X419500Y461461D01*
Y460539D01*
X419738Y459649D01*
X420199Y458851D01*
X420851Y458199D01*
X421649Y457738D01*
X422539Y457500D01*
X423461D01*
X424351Y457738D01*
X425149Y458199D01*
X425801Y458851D01*
X426159Y459471D01*
X432367D01*
X434808Y457029D01*
X434671Y456592D01*
X434623Y456529D01*
X421814D01*
X418529Y459814D01*
Y466366D01*
X428478Y476315D01*
X429480Y476047D01*
X430520D01*
X431526Y476317D01*
X432427Y476837D01*
X433163Y477573D01*
X433683Y478474D01*
X433953Y479480D01*
Y480520D01*
X433683Y481526D01*
X433163Y482427D01*
X432427Y483163D01*
X431526Y483683D01*
X430520Y483953D01*
X429480D01*
X428474Y483683D01*
X427573Y483163D01*
X426837Y482427D01*
X426317Y481526D01*
X426047Y480520D01*
Y479480D01*
X426315Y478478D01*
X416029Y468192D01*
X415592Y468329D01*
X415529Y468377D01*
Y473366D01*
X418478Y476315D01*
X419480Y476047D01*
X420520D01*
X421526Y476317D01*
X422427Y476837D01*
X423163Y477573D01*
X423683Y478474D01*
X423953Y479480D01*
Y480520D01*
X423683Y481526D01*
X423163Y482427D01*
X422427Y483163D01*
X421526Y483683D01*
X420520Y483953D01*
X419480D01*
X418474Y483683D01*
X417573Y483163D01*
X416837Y482427D01*
X416317Y481526D01*
X416047Y480520D01*
Y479480D01*
X416316Y478478D01*
X412919Y475081D01*
X412587Y474585D01*
X412471Y474000D01*
Y457000D01*
X412587Y456415D01*
X412919Y455919D01*
X415826Y453011D01*
X415635Y452549D01*
X371056D01*
X358802Y464802D01*
X357976Y465355D01*
X357000Y465549D01*
X343108D01*
X342456Y466201D01*
X341544Y466727D01*
X340527Y467000D01*
X339473D01*
X338456Y466727D01*
X337544Y466201D01*
X336799Y465456D01*
X336273Y464544D01*
X336000Y463527D01*
Y462473D01*
X336273Y461456D01*
X336799Y460544D01*
X337544Y459799D01*
X338456Y459273D01*
X339473Y459000D01*
X340527D01*
X341544Y459273D01*
X342456Y459799D01*
X343108Y460451D01*
X355944D01*
X368198Y448198D01*
X369024Y447645D01*
X370000Y447451D01*
X445944D01*
X501451Y391944D01*
Y383000D01*
X501645Y382025D01*
X502198Y381198D01*
X505198Y378198D01*
X506025Y377645D01*
X507000Y377451D01*
X528756D01*
X529506Y377250D01*
X530494D01*
X531448Y377506D01*
X532303Y377999D01*
X533001Y378697D01*
X533494Y379553D01*
X533574Y379849D01*
X535252D01*
X536228Y380043D01*
X537055Y380596D01*
X549751Y393291D01*
X553854D01*
Y394301D01*
X555738D01*
X556714Y394495D01*
X557541Y395048D01*
X562070Y399577D01*
X567794D01*
X567936Y399436D01*
X568702Y398993D01*
X569557Y398764D01*
X570443D01*
X571298Y398993D01*
X572064Y399436D01*
X572690Y400062D01*
X573133Y400828D01*
X573362Y401683D01*
Y402569D01*
X573133Y403424D01*
X572690Y404190D01*
X572064Y404816D01*
X571298Y405259D01*
X570443Y405488D01*
X569557D01*
X568702Y405259D01*
X567936Y404816D01*
X567794Y404675D01*
X561014D01*
X560038Y404481D01*
X559211Y403928D01*
X554682Y399399D01*
X553854D01*
Y402650D01*
X546146D01*
Y399591D01*
Y396896D01*
X534197Y384947D01*
X531315D01*
X530340Y384753D01*
X530336Y384750D01*
X529506D01*
X528552Y384494D01*
X527698Y384001D01*
X526999Y383303D01*
X526564Y382549D01*
X513120D01*
X512986Y383049D01*
X513185Y383164D01*
X513836Y383815D01*
X514297Y384613D01*
X514443Y385160D01*
X514980Y385231D01*
X515199Y384851D01*
X515851Y384199D01*
X516649Y383738D01*
X517539Y383500D01*
X518461D01*
X519351Y383738D01*
X520149Y384199D01*
X520801Y384851D01*
X521234Y385601D01*
X521500Y385642D01*
X521766Y385601D01*
X522199Y384851D01*
X522851Y384199D01*
X523649Y383738D01*
X524539Y383500D01*
X525461D01*
X526351Y383738D01*
X527149Y384199D01*
X527801Y384851D01*
X528262Y385649D01*
X528500Y386539D01*
Y387461D01*
X528262Y388351D01*
X527801Y389149D01*
X527149Y389801D01*
X526529Y390159D01*
Y397000D01*
X526413Y397585D01*
X526081Y398081D01*
X520529Y403633D01*
Y479000D01*
X520413Y479585D01*
X520081Y480081D01*
X498081Y502081D01*
X497585Y502413D01*
X497000Y502529D01*
D02*
G37*
G36*
X422882Y444264D02*
X417118D01*
Y441529D01*
X412882D01*
Y444264D01*
X407118D01*
Y435736D01*
X412882D01*
Y438471D01*
X417118D01*
Y435736D01*
X418471D01*
Y403000D01*
X418587Y402415D01*
X418919Y401919D01*
X424919Y395919D01*
X425415Y395587D01*
X426000Y395471D01*
X430011D01*
X430145Y394971D01*
X429851Y394801D01*
X429199Y394149D01*
X428738Y393351D01*
X428500Y392461D01*
Y391539D01*
X428738Y390649D01*
X429199Y389851D01*
X429851Y389199D01*
X430649Y388738D01*
X431539Y388500D01*
X432461D01*
X433152Y388685D01*
X439471Y382366D01*
Y374159D01*
X438851Y373801D01*
X438199Y373149D01*
X437739Y372351D01*
X437500Y371461D01*
Y370539D01*
X437739Y369649D01*
X438199Y368851D01*
X438851Y368199D01*
X439649Y367739D01*
X440539Y367500D01*
X441461D01*
X442351Y367739D01*
X443149Y368199D01*
X443801Y368851D01*
X444262Y369649D01*
X444500Y370539D01*
Y371461D01*
X444262Y372351D01*
X443801Y373149D01*
X443149Y373801D01*
X442529Y374159D01*
Y383000D01*
X442413Y383585D01*
X442081Y384081D01*
X435315Y390848D01*
X435500Y391539D01*
Y392461D01*
X435261Y393351D01*
X434801Y394149D01*
X434149Y394801D01*
X434127Y394813D01*
X434226Y395334D01*
X434468Y395369D01*
X446471Y383366D01*
Y359633D01*
X439449Y352612D01*
X433399D01*
X433001Y353303D01*
X432303Y354001D01*
X431448Y354494D01*
X430494Y354750D01*
X429506D01*
X428552Y354494D01*
X427698Y354001D01*
X426999Y353303D01*
X426506Y352447D01*
X426250Y351494D01*
Y350506D01*
X426506Y349553D01*
X426999Y348697D01*
X427698Y347999D01*
X428552Y347506D01*
X429506Y347250D01*
X430494D01*
X431448Y347506D01*
X432303Y347999D01*
X433001Y348697D01*
X433494Y349553D01*
X433495Y349553D01*
X440083D01*
X440668Y349670D01*
X441164Y350001D01*
X449081Y357919D01*
X449413Y358415D01*
X449529Y359000D01*
Y373011D01*
X450029Y373145D01*
X450199Y372851D01*
X450851Y372199D01*
X451649Y371739D01*
X452539Y371500D01*
X453461D01*
X454351Y371739D01*
X455149Y372199D01*
X455801Y372851D01*
X456261Y373649D01*
X456500Y374539D01*
Y375461D01*
X456261Y376351D01*
X455801Y377149D01*
X455149Y377801D01*
X454529Y378158D01*
Y403860D01*
X455029Y404096D01*
X455649Y403738D01*
X456539Y403500D01*
X457461D01*
X458097Y403670D01*
X458471Y403347D01*
Y368159D01*
X457851Y367801D01*
X457199Y367149D01*
X456739Y366351D01*
X456500Y365461D01*
Y364539D01*
X456739Y363649D01*
X457199Y362851D01*
X457851Y362199D01*
X458649Y361738D01*
X459539Y361500D01*
X460461D01*
X461351Y361738D01*
X462149Y362199D01*
X462801Y362851D01*
X463262Y363649D01*
X463500Y364539D01*
Y365461D01*
X463262Y366351D01*
X462801Y367149D01*
X462149Y367801D01*
X461529Y368159D01*
Y373011D01*
X462029Y373145D01*
X462199Y372851D01*
X462851Y372199D01*
X463649Y371739D01*
X464539Y371500D01*
X465461D01*
X466351Y371739D01*
X467149Y372199D01*
X467801Y372851D01*
X468261Y373649D01*
X468500Y374539D01*
Y375461D01*
X468261Y376351D01*
X467801Y377149D01*
X467149Y377801D01*
X466529Y378158D01*
Y402414D01*
X466413Y402999D01*
X466081Y403496D01*
X465529Y404048D01*
Y408842D01*
X466149Y409199D01*
X466801Y409851D01*
X467262Y410649D01*
X467500Y411539D01*
Y412461D01*
X467262Y413351D01*
X466801Y414149D01*
X466149Y414801D01*
X465351Y415262D01*
X464461Y415500D01*
X463539D01*
X462649Y415262D01*
X461851Y414801D01*
X461199Y414149D01*
X460739Y413351D01*
X460500Y412461D01*
Y411539D01*
X460739Y410649D01*
X461199Y409851D01*
X461851Y409199D01*
X462471Y408842D01*
Y403414D01*
X462587Y402829D01*
X462919Y402333D01*
X463471Y401781D01*
Y378158D01*
X462851Y377801D01*
X462199Y377149D01*
X462029Y376855D01*
X461529Y376989D01*
Y404000D01*
X461413Y404585D01*
X461081Y405081D01*
X460315Y405848D01*
X460500Y406539D01*
Y407461D01*
X460261Y408351D01*
X459801Y409149D01*
X459149Y409801D01*
X458351Y410261D01*
X457461Y410500D01*
X456539D01*
X455649Y410261D01*
X455029Y409904D01*
X454529Y410141D01*
Y423000D01*
X454413Y423585D01*
X454081Y424082D01*
X452315Y425848D01*
X452500Y426539D01*
Y427461D01*
X452261Y428351D01*
X451801Y429149D01*
X451149Y429801D01*
X450351Y430262D01*
X449461Y430500D01*
X448539D01*
X447649Y430262D01*
X446851Y429801D01*
X446199Y429149D01*
X445739Y428351D01*
X445500Y427461D01*
Y426539D01*
X445739Y425649D01*
X446199Y424851D01*
X446851Y424199D01*
X447649Y423738D01*
X448539Y423500D01*
X449461D01*
X450152Y423685D01*
X451471Y422367D01*
Y378158D01*
X450851Y377801D01*
X450199Y377149D01*
X450029Y376855D01*
X449529Y376989D01*
Y384000D01*
X449413Y384585D01*
X449081Y385081D01*
X436081Y398081D01*
X435585Y398413D01*
X435000Y398529D01*
X426634D01*
X421529Y403633D01*
Y435736D01*
X422882D01*
Y444264D01*
D02*
G37*
G36*
X433324D02*
X430942D01*
Y440500D01*
X433324D01*
Y444264D01*
D02*
G37*
G36*
X429942D02*
X427560D01*
Y440500D01*
X429942D01*
Y444264D01*
D02*
G37*
G36*
X433324Y439500D02*
X430942D01*
Y435736D01*
X433324D01*
Y439500D01*
D02*
G37*
G36*
X429942D02*
X427560D01*
Y435736D01*
X429942D01*
Y439500D01*
D02*
G37*
G36*
X573362Y413362D02*
X570500D01*
Y410500D01*
X573362D01*
Y413362D01*
D02*
G37*
G36*
X569500D02*
X566638D01*
Y410500D01*
X569500D01*
Y413362D01*
D02*
G37*
G36*
X573362Y409500D02*
X570500D01*
Y406638D01*
X573362D01*
Y409500D01*
D02*
G37*
G36*
X569500D02*
X566638D01*
Y406638D01*
X569500D01*
Y409500D01*
D02*
G37*
G36*
X528830Y419244D02*
X527469D01*
X526135Y418979D01*
X524879Y418458D01*
X523748Y417702D01*
X522786Y416741D01*
X522030Y415610D01*
X521510Y414353D01*
X521244Y413019D01*
Y411658D01*
X521510Y410324D01*
X522030Y409068D01*
X522786Y407937D01*
X523748Y406975D01*
X524879Y406219D01*
X526135Y405698D01*
X527469Y405433D01*
X528830D01*
X530164Y405698D01*
X531421Y406219D01*
X532552Y406975D01*
X533513Y407937D01*
X534269Y409068D01*
X534790Y410324D01*
X535055Y411658D01*
Y413019D01*
X534790Y414353D01*
X534269Y415610D01*
X533513Y416741D01*
X532552Y417702D01*
X531421Y418458D01*
X530164Y418979D01*
X528830Y419244D01*
D02*
G37*
G36*
X432334D02*
X430973D01*
X429639Y418979D01*
X428383Y418458D01*
X427251Y417702D01*
X426290Y416741D01*
X425534Y415610D01*
X425013Y414353D01*
X424748Y413019D01*
Y411658D01*
X425013Y410324D01*
X425534Y409068D01*
X426290Y407937D01*
X427251Y406975D01*
X428383Y406219D01*
X429639Y405698D01*
X430973Y405433D01*
X432334D01*
X433668Y405698D01*
X434925Y406219D01*
X436056Y406975D01*
X437017Y407937D01*
X437773Y409068D01*
X438294Y410324D01*
X438559Y411658D01*
Y413019D01*
X438294Y414353D01*
X437773Y415610D01*
X437017Y416741D01*
X436056Y417702D01*
X434925Y418458D01*
X433668Y418979D01*
X432334Y419244D01*
D02*
G37*
G36*
X553854Y406709D02*
X550500D01*
Y403650D01*
X553854D01*
Y406709D01*
D02*
G37*
G36*
X549500D02*
X546146D01*
Y403650D01*
X549500D01*
Y406709D01*
D02*
G37*
G36*
X413854Y396709D02*
X410500D01*
Y393650D01*
X413854D01*
Y396709D01*
D02*
G37*
G36*
X409500D02*
X406146D01*
Y393650D01*
X409500D01*
Y396709D01*
D02*
G37*
G36*
X413854Y392650D02*
X406146D01*
Y389591D01*
Y383291D01*
X407451D01*
Y381056D01*
X399757Y373362D01*
X399557D01*
X398702Y373133D01*
X397936Y372690D01*
X397310Y372064D01*
X396867Y371298D01*
X396638Y370443D01*
Y369557D01*
X396867Y368702D01*
X397310Y367936D01*
X397936Y367310D01*
X398702Y366867D01*
X399557Y366638D01*
X400443D01*
X401298Y366867D01*
X402064Y367310D01*
X402690Y367936D01*
X403133Y368702D01*
X403362Y369557D01*
Y369757D01*
X411802Y378198D01*
X412355Y379025D01*
X412549Y380000D01*
Y383291D01*
X413854D01*
Y384301D01*
X423176D01*
X425063Y382415D01*
Y376063D01*
X434937D01*
Y385937D01*
X428751D01*
X426035Y388653D01*
X425208Y389205D01*
X424232Y389399D01*
X413854D01*
Y389591D01*
Y392650D01*
D02*
G37*
G36*
X530500Y374748D02*
Y371500D01*
X533748D01*
X533494Y372447D01*
X533001Y373303D01*
X532303Y374001D01*
X531448Y374494D01*
X530500Y374748D01*
D02*
G37*
G36*
X529500D02*
X528552Y374494D01*
X527698Y374001D01*
X526999Y373303D01*
X526506Y372447D01*
X526252Y371500D01*
X529500D01*
Y374748D01*
D02*
G37*
G36*
X430500D02*
Y371500D01*
X433748D01*
X433494Y372447D01*
X433001Y373303D01*
X432303Y374001D01*
X431448Y374494D01*
X430500Y374748D01*
D02*
G37*
G36*
X429500D02*
X428552Y374494D01*
X427698Y374001D01*
X426999Y373303D01*
X426506Y372447D01*
X426252Y371500D01*
X429500D01*
Y374748D01*
D02*
G37*
G36*
X533748Y370500D02*
X530500D01*
Y367252D01*
X531448Y367506D01*
X532303Y367999D01*
X533001Y368697D01*
X533494Y369553D01*
X533748Y370500D01*
D02*
G37*
G36*
X529500D02*
X526252D01*
X526506Y369553D01*
X526999Y368697D01*
X527698Y367999D01*
X528552Y367506D01*
X529500Y367252D01*
Y370500D01*
D02*
G37*
G36*
X433748D02*
X430500D01*
Y367252D01*
X431448Y367506D01*
X432303Y367999D01*
X433001Y368697D01*
X433494Y369553D01*
X433748Y370500D01*
D02*
G37*
G36*
X429500D02*
X426252D01*
X426506Y369553D01*
X426999Y368697D01*
X427698Y367999D01*
X428552Y367506D01*
X429500Y367252D01*
Y370500D01*
D02*
G37*
G36*
X472461Y401500D02*
X471539D01*
X470649Y401262D01*
X469851Y400801D01*
X469199Y400149D01*
X468739Y399351D01*
X468500Y398461D01*
Y397539D01*
X468739Y396649D01*
X469199Y395851D01*
X469851Y395199D01*
X470471Y394842D01*
Y370159D01*
X469851Y369801D01*
X469199Y369149D01*
X468739Y368351D01*
X468500Y367461D01*
Y366539D01*
X468739Y365649D01*
X469199Y364851D01*
X469851Y364199D01*
X470649Y363738D01*
X471539Y363500D01*
X472461D01*
X473351Y363738D01*
X474149Y364199D01*
X474801Y364851D01*
X475261Y365649D01*
X475500Y366539D01*
Y367461D01*
X475261Y368351D01*
X474801Y369149D01*
X474149Y369801D01*
X473529Y370159D01*
Y394842D01*
X474149Y395199D01*
X474801Y395851D01*
X475261Y396649D01*
X475500Y397539D01*
Y398461D01*
X475261Y399351D01*
X474801Y400149D01*
X474149Y400801D01*
X473351Y401262D01*
X472461Y401500D01*
D02*
G37*
G36*
X403362Y365488D02*
X400500D01*
Y362626D01*
X403362D01*
Y365488D01*
D02*
G37*
G36*
X399500D02*
X396638D01*
Y362626D01*
X399500D01*
Y365488D01*
D02*
G37*
G36*
X403362Y361626D02*
X400500D01*
Y358764D01*
X403362D01*
Y361626D01*
D02*
G37*
G36*
X399500D02*
X396638D01*
Y358764D01*
X399500D01*
Y361626D01*
D02*
G37*
G36*
X477461Y408500D02*
X476539D01*
X475649Y408261D01*
X474851Y407801D01*
X474199Y407149D01*
X473738Y406351D01*
X473500Y405461D01*
Y404539D01*
X473738Y403649D01*
X474199Y402851D01*
X474851Y402199D01*
X475649Y401739D01*
X476539Y401500D01*
X477255D01*
X477471Y401284D01*
Y378158D01*
X476851Y377801D01*
X476199Y377149D01*
X475738Y376351D01*
X475500Y375461D01*
Y374539D01*
X475738Y373649D01*
X476199Y372851D01*
X476851Y372199D01*
X477649Y371739D01*
X478539Y371500D01*
X479461D01*
X480351Y371739D01*
X481149Y372199D01*
X481801Y372851D01*
X482262Y373649D01*
X482471Y374429D01*
X482971Y374364D01*
Y367870D01*
X482851Y367801D01*
X482199Y367149D01*
X481739Y366351D01*
X481500Y365461D01*
Y364539D01*
X481739Y363649D01*
X482199Y362851D01*
X482851Y362199D01*
X483649Y361738D01*
X484539Y361500D01*
X485461D01*
X486351Y361738D01*
X487149Y362199D01*
X487801Y362851D01*
X488262Y363649D01*
X488500Y364539D01*
Y365461D01*
X488262Y366351D01*
X487801Y367149D01*
X487149Y367801D01*
X486351Y368262D01*
X486029Y368348D01*
Y393130D01*
X486149Y393199D01*
X486801Y393851D01*
X487000Y394196D01*
X487500Y394062D01*
Y393539D01*
X487739Y392649D01*
X488199Y391851D01*
X488851Y391199D01*
X489471Y390842D01*
Y377158D01*
X488851Y376801D01*
X488199Y376149D01*
X487739Y375351D01*
X487500Y374461D01*
Y373539D01*
X487739Y372649D01*
X488199Y371851D01*
X488851Y371199D01*
X489649Y370739D01*
X490539Y370500D01*
X491461D01*
X492351Y370739D01*
X493149Y371199D01*
X493801Y371851D01*
X494262Y372649D01*
X494471Y373429D01*
X494971Y373364D01*
Y364870D01*
X494851Y364801D01*
X494199Y364149D01*
X493739Y363351D01*
X493500Y362461D01*
Y361539D01*
X493739Y360649D01*
X494199Y359851D01*
X494851Y359199D01*
X495649Y358738D01*
X496539Y358500D01*
X497461D01*
X498351Y358738D01*
X499149Y359199D01*
X499801Y359851D01*
X500261Y360649D01*
X500500Y361539D01*
Y362461D01*
X500261Y363351D01*
X499801Y364149D01*
X499149Y364801D01*
X498351Y365262D01*
X498029Y365348D01*
Y384130D01*
X498149Y384199D01*
X498801Y384851D01*
X499262Y385649D01*
X499500Y386539D01*
Y387461D01*
X499262Y388351D01*
X498801Y389149D01*
X498149Y389801D01*
X497351Y390262D01*
X496461Y390500D01*
X495539D01*
X494649Y390262D01*
X493851Y389801D01*
X493199Y389149D01*
X493029Y388855D01*
X492529Y388989D01*
Y390842D01*
X493149Y391199D01*
X493801Y391851D01*
X494262Y392649D01*
X494500Y393539D01*
Y394461D01*
X494262Y395351D01*
X493801Y396149D01*
X493149Y396801D01*
X492351Y397262D01*
X491461Y397500D01*
X490539D01*
X489649Y397262D01*
X488851Y396801D01*
X488199Y396149D01*
X488000Y395804D01*
X487500Y395938D01*
Y396461D01*
X487261Y397351D01*
X486801Y398149D01*
X486149Y398801D01*
X485351Y399261D01*
X484461Y399500D01*
X483539D01*
X482649Y399261D01*
X481851Y398801D01*
X481199Y398149D01*
X481029Y397855D01*
X480529Y397989D01*
Y401918D01*
X480413Y402503D01*
X480081Y402999D01*
X479958Y403123D01*
X480262Y403649D01*
X480500Y404539D01*
Y405461D01*
X480262Y406351D01*
X479801Y407149D01*
X479149Y407801D01*
X478351Y408261D01*
X477461Y408500D01*
D02*
G37*
G36*
X430494Y364750D02*
X429506D01*
X428552Y364494D01*
X427698Y364001D01*
X426999Y363303D01*
X426506Y362447D01*
X426250Y361494D01*
Y360506D01*
X426506Y359553D01*
X426999Y358697D01*
X427698Y357999D01*
X428552Y357506D01*
X429506Y357250D01*
X430494D01*
X431448Y357506D01*
X432303Y357999D01*
X433001Y358697D01*
X433494Y359553D01*
X433750Y360506D01*
Y361494D01*
X433494Y362447D01*
X433001Y363303D01*
X432303Y364001D01*
X431448Y364494D01*
X430494Y364750D01*
D02*
G37*
G36*
X620520Y353953D02*
X620500D01*
Y350500D01*
X623953D01*
Y350520D01*
X623683Y351526D01*
X623163Y352427D01*
X622427Y353163D01*
X621526Y353683D01*
X620520Y353953D01*
D02*
G37*
G36*
X619500D02*
X619480D01*
X618474Y353683D01*
X617573Y353163D01*
X616837Y352427D01*
X616317Y351526D01*
X616047Y350520D01*
Y350500D01*
X619500D01*
Y353953D01*
D02*
G37*
G36*
X623953Y349500D02*
X620500D01*
Y346047D01*
X620520D01*
X621526Y346317D01*
X622427Y346837D01*
X623163Y347573D01*
X623683Y348474D01*
X623953Y349480D01*
Y349500D01*
D02*
G37*
G36*
X619500D02*
X616047D01*
Y349480D01*
X616317Y348474D01*
X616837Y347573D01*
X617573Y346837D01*
X618474Y346317D01*
X619480Y346047D01*
X619500D01*
Y349500D01*
D02*
G37*
G36*
X573953Y339500D02*
X570500D01*
Y336047D01*
X570520D01*
X571526Y336317D01*
X572427Y336837D01*
X573163Y337573D01*
X573683Y338474D01*
X573953Y339480D01*
Y339500D01*
D02*
G37*
G36*
X569500D02*
X566047D01*
Y339480D01*
X566317Y338474D01*
X566837Y337573D01*
X567573Y336837D01*
X568474Y336317D01*
X569480Y336047D01*
X569500D01*
Y339500D01*
D02*
G37*
G36*
X402440Y444264D02*
X396676D01*
Y437899D01*
X369985Y411207D01*
X369654Y410711D01*
X369537Y410126D01*
Y358700D01*
X344557Y333720D01*
X344544Y333727D01*
X343527Y334000D01*
X342473D01*
X341456Y333727D01*
X340544Y333201D01*
X339799Y332456D01*
X339273Y331544D01*
X339000Y330527D01*
Y329605D01*
X258198Y248802D01*
X257645Y247975D01*
X257451Y247000D01*
Y205438D01*
X257158Y205317D01*
X256175Y204661D01*
X255340Y203825D01*
X254683Y202842D01*
X254231Y201750D01*
X254000Y200591D01*
Y199409D01*
X254231Y198250D01*
X254683Y197158D01*
X255340Y196175D01*
X256175Y195340D01*
X257158Y194683D01*
X258250Y194231D01*
X259409Y194000D01*
X260591D01*
X261750Y194231D01*
X262842Y194683D01*
X263825Y195340D01*
X264661Y196175D01*
X265317Y197158D01*
X265769Y198250D01*
X266000Y199409D01*
Y200591D01*
X265769Y201750D01*
X265317Y202842D01*
X264661Y203825D01*
X263825Y204661D01*
X262842Y205317D01*
X262549Y205438D01*
Y245944D01*
X342605Y326000D01*
X343527D01*
X344544Y326273D01*
X345456Y326799D01*
X346201Y327544D01*
X346727Y328456D01*
X347000Y329473D01*
Y330527D01*
X346727Y331544D01*
X346720Y331557D01*
X372148Y356985D01*
X372480Y357481D01*
X372596Y358067D01*
Y409492D01*
X398839Y435736D01*
X402440D01*
Y444264D01*
D02*
G37*
G36*
X610520Y483953D02*
X609480D01*
X608474Y483683D01*
X607573Y483163D01*
X606837Y482427D01*
X606317Y481526D01*
X606047Y480520D01*
Y479480D01*
X606317Y478474D01*
X606837Y477573D01*
X607573Y476837D01*
X608471Y476319D01*
Y348634D01*
X588152Y328315D01*
X587461Y328500D01*
X586539D01*
X585649Y328261D01*
X584851Y327801D01*
X584199Y327149D01*
X583739Y326351D01*
X583500Y325461D01*
Y324539D01*
X583739Y323649D01*
X584199Y322851D01*
X584851Y322199D01*
X585649Y321739D01*
X586539Y321500D01*
X587461D01*
X588351Y321739D01*
X589149Y322199D01*
X589801Y322851D01*
X590262Y323649D01*
X590500Y324539D01*
Y325461D01*
X590315Y326152D01*
X611081Y346919D01*
X611413Y347415D01*
X611529Y348000D01*
Y476319D01*
X612427Y476837D01*
X613163Y477573D01*
X613683Y478474D01*
X613953Y479480D01*
Y480520D01*
X613683Y481526D01*
X613163Y482427D01*
X612427Y483163D01*
X611526Y483683D01*
X610520Y483953D01*
D02*
G37*
G36*
X530494Y334750D02*
X529506D01*
X528552Y334494D01*
X527698Y334001D01*
X526999Y333303D01*
X526506Y332447D01*
X526250Y331494D01*
Y330506D01*
X526506Y329553D01*
X526999Y328697D01*
X527698Y327999D01*
X528552Y327506D01*
X529506Y327250D01*
X530494D01*
X531448Y327506D01*
X532303Y327999D01*
X533001Y328697D01*
X533494Y329553D01*
X533750Y330506D01*
Y331494D01*
X533494Y332447D01*
X533001Y333303D01*
X532303Y334001D01*
X531448Y334494D01*
X530494Y334750D01*
D02*
G37*
G36*
X418461Y381500D02*
X417539D01*
X416649Y381261D01*
X415851Y380801D01*
X415199Y380149D01*
X414739Y379351D01*
X414500Y378461D01*
Y377539D01*
X414739Y376649D01*
X415199Y375851D01*
X415851Y375199D01*
X416471Y374841D01*
Y338000D01*
X416587Y337415D01*
X416919Y336919D01*
X423836Y330001D01*
X424332Y329670D01*
X424917Y329553D01*
X426505D01*
X426506Y329553D01*
X426999Y328697D01*
X427698Y327999D01*
X428552Y327506D01*
X429506Y327250D01*
X430494D01*
X431448Y327506D01*
X432303Y327999D01*
X433001Y328697D01*
X433494Y329553D01*
X433750Y330506D01*
Y331494D01*
X433494Y332447D01*
X433001Y333303D01*
X432303Y334001D01*
X431448Y334494D01*
X430494Y334750D01*
X429506D01*
X428552Y334494D01*
X427698Y334001D01*
X426999Y333303D01*
X426601Y332612D01*
X425551D01*
X419529Y338633D01*
Y374841D01*
X420149Y375199D01*
X420801Y375851D01*
X421262Y376649D01*
X421500Y377539D01*
Y378461D01*
X421262Y379351D01*
X420801Y380149D01*
X420149Y380801D01*
X419351Y381261D01*
X418461Y381500D01*
D02*
G37*
G36*
X573953Y333953D02*
X566047D01*
Y326047D01*
X573953D01*
Y333953D01*
D02*
G37*
G36*
X380527Y394000D02*
X379473D01*
X378456Y393727D01*
X377544Y393201D01*
X376799Y392456D01*
X376273Y391544D01*
X376000Y390527D01*
Y389473D01*
X376273Y388456D01*
X376799Y387544D01*
X377451Y386892D01*
Y335000D01*
X377645Y334025D01*
X378198Y333198D01*
X381000Y330395D01*
Y329473D01*
X381273Y328456D01*
X381799Y327544D01*
X382544Y326799D01*
X383456Y326273D01*
X384473Y326000D01*
X385527D01*
X386544Y326273D01*
X387456Y326799D01*
X388201Y327544D01*
X388727Y328456D01*
X389000Y329473D01*
Y330527D01*
X388727Y331544D01*
X388201Y332456D01*
X387456Y333201D01*
X386544Y333727D01*
X385527Y334000D01*
X384605D01*
X382549Y336056D01*
Y386892D01*
X383201Y387544D01*
X383727Y388456D01*
X384000Y389473D01*
Y390527D01*
X383727Y391544D01*
X383201Y392456D01*
X382456Y393201D01*
X381544Y393727D01*
X380527Y394000D01*
D02*
G37*
G36*
X372527Y334000D02*
X371473D01*
X370456Y333727D01*
X369544Y333201D01*
X368799Y332456D01*
X368273Y331544D01*
X368000Y330527D01*
Y329473D01*
X368273Y328456D01*
X368799Y327544D01*
X369544Y326799D01*
X370456Y326273D01*
X371473Y326000D01*
X372527D01*
X373544Y326273D01*
X374456Y326799D01*
X375201Y327544D01*
X375727Y328456D01*
X376000Y329473D01*
Y330527D01*
X375727Y331544D01*
X375201Y332456D01*
X374456Y333201D01*
X373544Y333727D01*
X372527Y334000D01*
D02*
G37*
G36*
X340527Y394000D02*
X339473D01*
X338456Y393727D01*
X337544Y393201D01*
X336799Y392456D01*
X336273Y391544D01*
X336000Y390527D01*
Y389605D01*
X328198Y381802D01*
X327645Y380976D01*
X327451Y380000D01*
Y333108D01*
X326799Y332456D01*
X326273Y331544D01*
X326000Y330527D01*
Y329473D01*
X326273Y328456D01*
X326799Y327544D01*
X327544Y326799D01*
X328456Y326273D01*
X329473Y326000D01*
X330527D01*
X331544Y326273D01*
X332456Y326799D01*
X333201Y327544D01*
X333727Y328456D01*
X334000Y329473D01*
Y330527D01*
X333727Y331544D01*
X333201Y332456D01*
X332549Y333108D01*
Y378944D01*
X339605Y386000D01*
X340527D01*
X341544Y386273D01*
X342456Y386799D01*
X343201Y387544D01*
X343727Y388456D01*
X344000Y389473D01*
Y390527D01*
X343727Y391544D01*
X343201Y392456D01*
X342456Y393201D01*
X341544Y393727D01*
X340527Y394000D01*
D02*
G37*
G36*
X620520Y273953D02*
X620500D01*
Y270500D01*
X623953D01*
Y270520D01*
X623683Y271526D01*
X623163Y272427D01*
X622427Y273163D01*
X621526Y273683D01*
X620520Y273953D01*
D02*
G37*
G36*
X619500D02*
X619480D01*
X618474Y273683D01*
X617573Y273163D01*
X616837Y272427D01*
X616317Y271526D01*
X616047Y270520D01*
Y270500D01*
X619500D01*
Y273953D01*
D02*
G37*
G36*
X623953Y269500D02*
X620500D01*
Y266047D01*
X620520D01*
X621526Y266317D01*
X622427Y266837D01*
X623163Y267573D01*
X623683Y268474D01*
X623953Y269480D01*
Y269500D01*
D02*
G37*
G36*
X619500D02*
X616047D01*
Y269480D01*
X616317Y268474D01*
X616837Y267573D01*
X617573Y266837D01*
X618474Y266317D01*
X619480Y266047D01*
X619500D01*
Y269500D01*
D02*
G37*
G36*
X570520Y273953D02*
X569480D01*
X568474Y273683D01*
X567573Y273163D01*
X566837Y272427D01*
X566317Y271526D01*
X566047Y270520D01*
Y269480D01*
X566317Y268474D01*
X566837Y267573D01*
X567573Y266837D01*
X568474Y266317D01*
X569480Y266047D01*
X570520D01*
X571526Y266317D01*
X572427Y266837D01*
X573163Y267573D01*
X573683Y268474D01*
X573953Y269480D01*
Y270520D01*
X573683Y271526D01*
X573163Y272427D01*
X572427Y273163D01*
X571526Y273683D01*
X570520Y273953D01*
D02*
G37*
G36*
Y263953D02*
X570500D01*
Y260500D01*
X573953D01*
Y260520D01*
X573683Y261526D01*
X573163Y262427D01*
X572427Y263163D01*
X571526Y263683D01*
X570520Y263953D01*
D02*
G37*
G36*
X569500D02*
X569480D01*
X568474Y263683D01*
X567573Y263163D01*
X566837Y262427D01*
X566317Y261526D01*
X566047Y260520D01*
Y260500D01*
X569500D01*
Y263953D01*
D02*
G37*
G36*
X573953Y259500D02*
X570500D01*
Y256047D01*
X570520D01*
X571526Y256317D01*
X572427Y256837D01*
X573163Y257573D01*
X573683Y258474D01*
X573953Y259480D01*
Y259500D01*
D02*
G37*
G36*
X569500D02*
X566047D01*
Y259480D01*
X566317Y258474D01*
X566837Y257573D01*
X567573Y256837D01*
X568474Y256317D01*
X569480Y256047D01*
X569500D01*
Y259500D01*
D02*
G37*
G36*
X620520Y243953D02*
X620500D01*
Y240500D01*
X623953D01*
Y240520D01*
X623683Y241526D01*
X623163Y242427D01*
X622427Y243163D01*
X621526Y243683D01*
X620520Y243953D01*
D02*
G37*
G36*
X619500D02*
X619480D01*
X618474Y243683D01*
X617573Y243163D01*
X616837Y242427D01*
X616317Y241526D01*
X616047Y240520D01*
Y240500D01*
X619500D01*
Y243953D01*
D02*
G37*
G36*
X623953Y239500D02*
X620500D01*
Y236047D01*
X620520D01*
X621526Y236317D01*
X622427Y236837D01*
X623163Y237573D01*
X623683Y238474D01*
X623953Y239480D01*
Y239500D01*
D02*
G37*
G36*
X619500D02*
X616047D01*
Y239480D01*
X616317Y238474D01*
X616837Y237573D01*
X617573Y236837D01*
X618474Y236317D01*
X619480Y236047D01*
X619500D01*
Y239500D01*
D02*
G37*
G36*
X573953Y233953D02*
X570500D01*
Y230500D01*
X573953D01*
Y233953D01*
D02*
G37*
G36*
X569500D02*
X566047D01*
Y230500D01*
X569500D01*
Y233953D01*
D02*
G37*
G36*
X623953D02*
X616047D01*
Y226047D01*
X623953D01*
Y233953D01*
D02*
G37*
G36*
X573953Y229500D02*
X570500D01*
Y226047D01*
X573953D01*
Y229500D01*
D02*
G37*
G36*
X569500D02*
X566047D01*
Y226047D01*
X569500D01*
Y229500D01*
D02*
G37*
G36*
X385527Y244000D02*
X384473D01*
X383456Y243727D01*
X382544Y243201D01*
X381799Y242456D01*
X381273Y241544D01*
X381000Y240527D01*
Y239605D01*
X362150Y220755D01*
X361598Y219928D01*
X361404Y218953D01*
Y199088D01*
X360790Y198474D01*
X360269Y197573D01*
X360000Y196568D01*
Y195527D01*
X360269Y194521D01*
X360790Y193620D01*
X361526Y192884D01*
X362427Y192364D01*
X363432Y192095D01*
X364473D01*
X365478Y192364D01*
X366380Y192884D01*
X367116Y193620D01*
X367636Y194521D01*
X367905Y195527D01*
Y196568D01*
X367636Y197573D01*
X367116Y198474D01*
X366502Y199088D01*
Y217897D01*
X384605Y236000D01*
X385527D01*
X386544Y236273D01*
X387456Y236799D01*
X388201Y237544D01*
X388727Y238456D01*
X389000Y239473D01*
Y240527D01*
X388727Y241544D01*
X388201Y242456D01*
X387456Y243201D01*
X386544Y243727D01*
X385527Y244000D01*
D02*
G37*
G36*
X330527D02*
X329473D01*
X328456Y243727D01*
X327544Y243201D01*
X326799Y242456D01*
X326273Y241544D01*
X326000Y240527D01*
Y239473D01*
X326273Y238456D01*
X326799Y237544D01*
X327544Y236799D01*
X328456Y236273D01*
X329473Y236000D01*
X330395D01*
X351404Y214991D01*
Y200000D01*
X350000D01*
Y192095D01*
X357906D01*
Y200000D01*
X356502D01*
Y216047D01*
X356308Y217023D01*
X355755Y217850D01*
X334000Y239605D01*
Y240527D01*
X333727Y241544D01*
X333201Y242456D01*
X332456Y243201D01*
X331544Y243727D01*
X330527Y244000D01*
D02*
G37*
G36*
X620853Y210842D02*
X619147D01*
X617461Y210576D01*
X615838Y210048D01*
X614317Y209273D01*
X612937Y208270D01*
X611730Y207063D01*
X610727Y205683D01*
X609952Y204162D01*
X609424Y202539D01*
X609158Y200853D01*
Y199147D01*
X609424Y197461D01*
X609952Y195838D01*
X610727Y194317D01*
X611730Y192937D01*
X612937Y191730D01*
X614317Y190727D01*
X615838Y189952D01*
X617461Y189425D01*
X619147Y189157D01*
X620853D01*
X622539Y189425D01*
X624162Y189952D01*
X625683Y190727D01*
X627063Y191730D01*
X628270Y192937D01*
X629273Y194317D01*
X630048Y195838D01*
X630576Y197461D01*
X630842Y199147D01*
Y200853D01*
X630576Y202539D01*
X630048Y204162D01*
X629273Y205683D01*
X628270Y207063D01*
X627063Y208270D01*
X625683Y209273D01*
X624162Y210048D01*
X622539Y210576D01*
X620853Y210842D01*
D02*
G37*
G36*
X200853D02*
X199147D01*
X197461Y210576D01*
X195838Y210048D01*
X194317Y209273D01*
X192937Y208270D01*
X191730Y207063D01*
X190727Y205683D01*
X189952Y204162D01*
X189425Y202539D01*
X189157Y200853D01*
Y199147D01*
X189425Y197461D01*
X189952Y195838D01*
X190727Y194317D01*
X191730Y192937D01*
X192937Y191730D01*
X194317Y190727D01*
X195838Y189952D01*
X197461Y189425D01*
X199147Y189157D01*
X200853D01*
X202539Y189425D01*
X204162Y189952D01*
X205683Y190727D01*
X207063Y191730D01*
X208270Y192937D01*
X209273Y194317D01*
X210048Y195838D01*
X210576Y197461D01*
X210842Y199147D01*
Y200853D01*
X210576Y202539D01*
X210048Y204162D01*
X209273Y205683D01*
X208270Y207063D01*
X207063Y208270D01*
X205683Y209273D01*
X204162Y210048D01*
X202539Y210576D01*
X200853Y210842D01*
D02*
G37*
%LPD*%
G36*
X508471Y411023D02*
Y388550D01*
X508504Y388383D01*
X508235Y388113D01*
X507774Y387315D01*
X507536Y386425D01*
Y385504D01*
X507774Y384613D01*
X508235Y383815D01*
X508886Y383164D01*
X509085Y383049D01*
X508951Y382549D01*
X508056D01*
X506549Y384056D01*
Y393000D01*
X506355Y393975D01*
X505802Y394802D01*
X449596Y451009D01*
X449788Y451471D01*
X458406D01*
X487224Y422652D01*
X487039Y421961D01*
Y421039D01*
X487278Y420149D01*
X487739Y419351D01*
X488390Y418699D01*
X489188Y418238D01*
X490078Y418000D01*
X491000D01*
X491890Y418238D01*
X492688Y418699D01*
X493340Y419351D01*
X493801Y420149D01*
X494039Y421039D01*
Y421961D01*
X493801Y422851D01*
X493340Y423649D01*
X492688Y424301D01*
X491890Y424761D01*
X491000Y425000D01*
X490078D01*
X489387Y424815D01*
X461193Y453009D01*
X461385Y453471D01*
X466023D01*
X508471Y411023D01*
D02*
G37*
G36*
X483471Y477174D02*
Y447041D01*
X483587Y446456D01*
X483919Y445960D01*
X513471Y416408D01*
Y390000D01*
X513587Y389415D01*
X513919Y388919D01*
X514541Y388296D01*
X514461Y388032D01*
X513919Y387969D01*
X513836Y388113D01*
X513185Y388765D01*
X512387Y389226D01*
X511529Y389456D01*
Y411657D01*
X511413Y412242D01*
X511081Y412738D01*
X467849Y455971D01*
X467986Y456408D01*
X468034Y456471D01*
X472000D01*
X472585Y456587D01*
X473081Y456919D01*
X481081Y464919D01*
X481413Y465415D01*
X481529Y466000D01*
Y476319D01*
X482427Y476837D01*
X482971Y477381D01*
X483471Y477174D01*
D02*
G37*
G36*
X481199Y393851D02*
X481851Y393199D01*
X482649Y392739D01*
X482971Y392652D01*
Y375636D01*
X482471Y375571D01*
X482262Y376351D01*
X481801Y377149D01*
X481149Y377801D01*
X480529Y378158D01*
Y394011D01*
X481029Y394145D01*
X481199Y393851D01*
D02*
G37*
D13*
X525000Y387000D02*
Y397000D01*
X519000Y403000D02*
X525000Y397000D01*
X495000Y453000D02*
Y487000D01*
X418000Y453000D02*
X459039D01*
X490500Y421539D01*
X466657Y455000D02*
X510000Y411657D01*
X510270Y386730D02*
X511035Y385964D01*
X510270Y386730D02*
Y388280D01*
X510000Y388550D02*
X510270Y388280D01*
X510000Y388550D02*
Y411657D01*
X519000Y403000D02*
Y479000D01*
X497000Y501000D02*
X519000Y479000D01*
X569000Y316000D02*
X584000Y331000D01*
X527000Y316000D02*
X569000D01*
X523000Y312000D02*
X527000Y316000D01*
X586083Y311083D02*
X615000Y340000D01*
X620000D01*
X530000Y311083D02*
X586083D01*
X629000Y329000D02*
Y408500D01*
X576000Y286000D02*
X586000D01*
X629000Y329000D01*
X555000Y265000D02*
X576000Y286000D01*
X534000Y256000D02*
X540000Y250000D01*
X540000D01*
X523000Y256000D02*
X534000D01*
X509000Y270000D02*
X523000Y256000D01*
X480000Y270000D02*
X509000D01*
X540414Y250000D02*
X570000D01*
X540000Y250000D02*
X540414Y250000D01*
X430000Y241083D02*
X430994D01*
X465000Y275089D02*
Y296000D01*
X430994Y241083D02*
X465000Y275089D01*
X431083Y261083D02*
X458000Y288000D01*
X430000Y261083D02*
X431083D01*
X458000Y288000D02*
Y305000D01*
X450000Y290000D02*
Y307000D01*
X430000Y271083D02*
X431083D01*
X450000Y290000D01*
X430000Y291083D02*
X431083D01*
X442000Y302000D02*
Y304459D01*
X431083Y291083D02*
X442000Y302000D01*
Y304459D02*
X466000Y328459D01*
Y341000D01*
X458000Y305000D02*
X479000Y326000D01*
X472000Y367000D02*
Y398000D01*
X496500Y362500D02*
X497000Y362000D01*
X496500Y362500D02*
Y386500D01*
X496000Y387000D02*
X496500Y386500D01*
X491000Y374000D02*
Y394000D01*
X484500Y365500D02*
X485000Y365000D01*
X484500Y365500D02*
Y395500D01*
X484000Y396000D02*
X484500Y395500D01*
X479000Y375000D02*
Y401918D01*
X477000Y403918D02*
Y405000D01*
Y403918D02*
X479000Y401918D01*
X464000Y403414D02*
Y412000D01*
Y403414D02*
X465000Y402414D01*
Y375000D02*
Y402414D01*
X460000Y365000D02*
Y404000D01*
X457000Y407000D02*
X460000Y404000D01*
X622453Y415047D02*
Y480547D01*
X621000Y482000D02*
X622453Y480547D01*
Y415047D02*
X629000Y408500D01*
X620000Y480000D02*
Y481000D01*
X621000Y482000D01*
X587000Y325000D02*
X610000Y348000D01*
Y480000D01*
X554000Y288000D02*
X570000Y304000D01*
X578000D01*
X600000Y474000D02*
Y480000D01*
X584000Y458000D02*
X600000Y474000D01*
X584000Y331000D02*
Y458000D01*
X523000Y268000D02*
Y312000D01*
Y268000D02*
X530000Y261000D01*
X560000Y471000D02*
Y480000D01*
X579000Y349000D02*
Y452000D01*
X560000Y471000D02*
X579000Y452000D01*
X575000Y345000D02*
X579000Y349000D01*
X565000Y345000D02*
X575000D01*
X561000Y341000D02*
X565000Y345000D01*
X530000Y341000D02*
X561000D01*
X535000Y351000D02*
X539000Y355000D01*
X554000D01*
X530000Y351000D02*
X535000D01*
X557414Y388000D02*
X558000Y388586D01*
Y389000D01*
X557000Y388000D02*
X557414D01*
X530000Y361000D02*
X557000Y388000D01*
X515000Y390000D02*
X518000Y387000D01*
X485000Y447041D02*
X515000Y417041D01*
Y390000D02*
Y417041D01*
X433000Y501000D02*
X497000D01*
X432000Y500000D02*
X433000Y501000D01*
X438765Y471765D02*
X441765D01*
X438000Y471000D02*
X438765Y471765D01*
X441765D02*
X450000Y480000D01*
X432000Y496000D02*
Y500000D01*
X460000Y480000D02*
X466000Y486000D01*
X484000D01*
X485000Y485000D01*
Y447041D02*
Y485000D01*
X417000Y459180D02*
X421180Y455000D01*
X466657D01*
X417000Y459180D02*
Y467000D01*
X430000Y480000D01*
X414000Y457000D02*
X418000Y453000D01*
X414000Y474000D02*
X420000Y480000D01*
X414000Y457000D02*
Y474000D01*
X507000Y451000D02*
Y484000D01*
X499000Y443000D02*
X507000Y451000D01*
X450000Y307000D02*
X472000Y329000D01*
X473000D01*
X460000Y331083D02*
Y347000D01*
X430000Y301083D02*
X460000Y331083D01*
X453000Y375000D02*
Y423000D01*
X449000Y427000D02*
X453000Y423000D01*
X440000Y496000D02*
X495000D01*
X507000Y484000D01*
X472000Y458000D02*
X480000Y466000D01*
X433000Y461000D02*
X436000Y458000D01*
X472000D01*
X443000Y463000D02*
X450000Y470000D01*
X464000D01*
X492000Y490000D02*
X495000Y487000D01*
X419000Y490000D02*
X492000D01*
X410000Y480000D02*
Y481000D01*
X419000Y490000D01*
X528000Y512000D02*
X550000Y490000D01*
Y480000D02*
Y490000D01*
X480000Y466000D02*
Y480000D01*
X423000Y461000D02*
X433000D01*
X418000Y338000D02*
Y378000D01*
X424917Y331083D02*
X430000D01*
X418000Y338000D02*
X424917Y331083D01*
X469547Y475547D02*
Y479547D01*
X464000Y470000D02*
X469547Y475547D01*
Y479547D02*
X470000Y480000D01*
X441000Y371000D02*
Y383000D01*
X432000Y392000D02*
X441000Y383000D01*
X440083Y351083D02*
X448000Y359000D01*
X435000Y397000D02*
X448000Y384000D01*
Y359000D02*
Y384000D01*
X430000Y351083D02*
X440083D01*
X426000Y397000D02*
X435000D01*
X420000Y403000D02*
X426000Y397000D01*
X420000Y403000D02*
Y440000D01*
X570000Y240000D02*
X595000D01*
X605000Y250000D02*
X620000D01*
X595000Y240000D02*
X605000Y250000D01*
X570000D02*
X593000D01*
X603000Y260000D02*
X620000D01*
X593000Y250000D02*
X603000Y260000D01*
X457000Y251000D02*
X516000D01*
X521000Y246000D01*
X533000D01*
X539000Y240000D01*
X570000D01*
X430000Y341083D02*
X443083D01*
X458000Y356000D01*
X534000D01*
X538000Y360000D02*
X570000D01*
X534000Y356000D02*
X538000Y360000D01*
X535000Y346000D02*
X539000Y350000D01*
X515000Y346000D02*
X535000D01*
X465000Y296000D02*
X515000Y346000D01*
X539000Y350000D02*
X570000D01*
X410000Y386850D02*
Y389090D01*
X528917Y380000D02*
X531315Y382398D01*
X410000Y440000D02*
X420000D01*
X371067Y410126D02*
X399558Y438618D01*
Y440000D01*
X343000Y330000D02*
X371067Y358067D01*
Y410126D01*
D14*
X410000Y393150D02*
D03*
Y386850D02*
D03*
X550000Y396850D02*
D03*
Y403150D02*
D03*
D15*
X430442Y440000D02*
D03*
X420000D02*
D03*
X399558D02*
D03*
X410000D02*
D03*
D20*
X400000Y362126D02*
D03*
X570000Y410000D02*
D03*
D21*
X400000Y370000D02*
D03*
X570000Y402126D02*
D03*
D29*
X447000Y450000D02*
X504000Y393000D01*
Y383000D02*
Y393000D01*
Y383000D02*
X507000Y380000D01*
X528917D01*
X370000Y450000D02*
X447000D01*
X555738Y396850D02*
X561014Y402126D01*
X549705Y396850D02*
X555738D01*
X424232Y386850D02*
X430000Y381083D01*
X410000Y386850D02*
X424232D01*
X410000Y380000D02*
Y386850D01*
X400000Y370000D02*
X410000Y380000D01*
X561014Y402126D02*
X570000D01*
X535252Y382398D02*
X549705Y396850D01*
X531315Y382398D02*
X535252D01*
X357000Y463000D02*
X370000Y450000D01*
X340000Y463000D02*
X357000D01*
X330000Y380000D02*
X340000Y390000D01*
X330000Y330000D02*
Y380000D01*
X380000Y335000D02*
X385000Y330000D01*
X380000Y335000D02*
Y390000D01*
X260000Y200000D02*
Y247000D01*
X343000Y330000D01*
X330000Y240000D02*
X353953Y216047D01*
Y196047D02*
Y216047D01*
X363953Y218953D02*
X385000Y240000D01*
X363953Y196047D02*
Y218953D01*
D30*
X430000Y381000D02*
D03*
D31*
Y371000D02*
D03*
Y361000D02*
D03*
Y351000D02*
D03*
Y341000D02*
D03*
Y331000D02*
D03*
Y321000D02*
D03*
Y311000D02*
D03*
Y301000D02*
D03*
Y291000D02*
D03*
Y281000D02*
D03*
Y271000D02*
D03*
Y261000D02*
D03*
Y251000D02*
D03*
Y241000D02*
D03*
X530000Y381000D02*
D03*
Y371000D02*
D03*
Y361000D02*
D03*
Y351000D02*
D03*
Y341000D02*
D03*
Y331000D02*
D03*
Y321000D02*
D03*
Y311000D02*
D03*
Y301000D02*
D03*
Y291000D02*
D03*
Y281000D02*
D03*
Y271000D02*
D03*
Y261000D02*
D03*
Y251000D02*
D03*
Y241000D02*
D03*
D32*
X431653Y227496D02*
D03*
X528150D02*
D03*
Y412339D02*
D03*
X431653D02*
D03*
D33*
X620000Y350000D02*
D03*
Y340000D02*
D03*
X570000Y240000D02*
D03*
Y250000D02*
D03*
Y260000D02*
D03*
Y270000D02*
D03*
Y340000D02*
D03*
Y350000D02*
D03*
Y360000D02*
D03*
X480000Y480000D02*
D03*
X410000D02*
D03*
X420000D02*
D03*
X430000D02*
D03*
X440000D02*
D03*
X450000D02*
D03*
X460000D02*
D03*
X470000D02*
D03*
X490000D02*
D03*
X363953Y196047D02*
D03*
X610000Y480000D02*
D03*
X590000D02*
D03*
X580000D02*
D03*
X570000D02*
D03*
X560000D02*
D03*
X550000D02*
D03*
X540000D02*
D03*
X530000D02*
D03*
X600000D02*
D03*
X620000Y270000D02*
D03*
Y260000D02*
D03*
Y250000D02*
D03*
Y240000D02*
D03*
D34*
Y330000D02*
D03*
X570000Y230000D02*
D03*
Y330000D02*
D03*
X620000Y230000D02*
D03*
D35*
X500000Y480000D02*
D03*
X353953Y196047D02*
D03*
X620000Y480000D02*
D03*
D36*
X260000Y200000D02*
D03*
Y500000D02*
D03*
D37*
X385000Y330000D02*
D03*
X330000D02*
D03*
X343000D02*
D03*
X385000Y240000D02*
D03*
X372000Y330000D02*
D03*
X330000Y240000D02*
D03*
X340000Y390000D02*
D03*
X380000D02*
D03*
X340000Y463000D02*
D03*
X380000D02*
D03*
D38*
X525000Y387000D02*
D03*
X495000Y453000D02*
D03*
X490539Y421500D02*
D03*
X555000Y265000D02*
D03*
X480000Y270000D02*
D03*
X479000Y326000D02*
D03*
X496000Y387000D02*
D03*
X491000Y394000D02*
D03*
X484000Y396000D02*
D03*
X477000Y405000D02*
D03*
X472000Y398000D02*
D03*
X497000Y362000D02*
D03*
X485000Y365000D02*
D03*
X472000Y367000D02*
D03*
X464000Y412000D02*
D03*
X460000Y365000D02*
D03*
X587000Y325000D02*
D03*
X578000Y304000D02*
D03*
X554000Y288000D02*
D03*
Y355000D02*
D03*
X558000Y389000D02*
D03*
X438000Y471000D02*
D03*
X432000Y496000D02*
D03*
X518000Y387000D02*
D03*
X511035Y385964D02*
D03*
X499000Y443000D02*
D03*
X491000Y374000D02*
D03*
X479000Y375000D02*
D03*
X473000Y329000D02*
D03*
X466000Y341000D02*
D03*
X465000Y375000D02*
D03*
X460000Y347000D02*
D03*
X453000Y375000D02*
D03*
X440000Y496000D02*
D03*
X443000Y463000D02*
D03*
X528000Y512000D02*
D03*
X423000Y461000D02*
D03*
X418000Y378000D02*
D03*
X432000Y392000D02*
D03*
X441000Y371000D02*
D03*
X449000Y427000D02*
D03*
X457000Y407000D02*
D03*
Y251000D02*
D03*
D39*
X620000Y200000D02*
D03*
Y510000D02*
D03*
X200000Y200000D02*
D03*
Y510000D02*
D03*
M02*
