G04*
G04 #@! TF.GenerationSoftware,Altium Limited,Altium Designer,23.3.1 (30)*
G04*
G04 Layer_Color=255*
%FSLAX25Y25*%
%MOIN*%
G70*
G04*
G04 #@! TF.SameCoordinates,27A53AFF-B7D0-4960-851C-DE89EC337BCC*
G04*
G04*
G04 #@! TF.FilePolarity,Positive*
G04*
G01*
G75*
%ADD14R,0.05709X0.05118*%
%ADD15R,0.03764X0.06528*%
%ADD20R,0.04724X0.04724*%
%ADD21C,0.04724*%
%ADD30R,0.07874X0.07874*%
%ADD31C,0.05500*%
%ADD32C,0.11811*%
%ADD33C,0.05906*%
%ADD34R,0.05906X0.05906*%
%ADD35R,0.05906X0.05906*%
%ADD36C,0.10000*%
%ADD37C,0.06000*%
D14*
X410000Y393150D02*
D03*
Y386850D02*
D03*
X550000Y396850D02*
D03*
Y403150D02*
D03*
D15*
X430442Y440000D02*
D03*
X420000D02*
D03*
X399558D02*
D03*
X410000D02*
D03*
D20*
X400000Y362126D02*
D03*
X570000Y410000D02*
D03*
D21*
X400000Y370000D02*
D03*
X570000Y402126D02*
D03*
D30*
X430000Y381000D02*
D03*
D31*
Y371000D02*
D03*
Y361000D02*
D03*
Y351000D02*
D03*
Y341000D02*
D03*
Y331000D02*
D03*
Y321000D02*
D03*
Y311000D02*
D03*
Y301000D02*
D03*
Y291000D02*
D03*
Y281000D02*
D03*
Y271000D02*
D03*
Y261000D02*
D03*
Y251000D02*
D03*
Y241000D02*
D03*
X530000Y381000D02*
D03*
Y371000D02*
D03*
Y361000D02*
D03*
Y351000D02*
D03*
Y341000D02*
D03*
Y331000D02*
D03*
Y321000D02*
D03*
Y311000D02*
D03*
Y301000D02*
D03*
Y291000D02*
D03*
Y281000D02*
D03*
Y271000D02*
D03*
Y261000D02*
D03*
Y251000D02*
D03*
Y241000D02*
D03*
D32*
X431653Y227496D02*
D03*
X528150D02*
D03*
Y412339D02*
D03*
X431653D02*
D03*
D33*
X620000Y350000D02*
D03*
Y340000D02*
D03*
X570000Y240000D02*
D03*
Y250000D02*
D03*
Y260000D02*
D03*
Y270000D02*
D03*
Y340000D02*
D03*
Y350000D02*
D03*
Y360000D02*
D03*
X480000Y480000D02*
D03*
X410000D02*
D03*
X420000D02*
D03*
X430000D02*
D03*
X440000D02*
D03*
X450000D02*
D03*
X460000D02*
D03*
X470000D02*
D03*
X490000D02*
D03*
X363953Y196047D02*
D03*
X610000Y480000D02*
D03*
X590000D02*
D03*
X580000D02*
D03*
X570000D02*
D03*
X560000D02*
D03*
X550000D02*
D03*
X540000D02*
D03*
X530000D02*
D03*
X600000D02*
D03*
X620000Y270000D02*
D03*
Y260000D02*
D03*
Y250000D02*
D03*
Y240000D02*
D03*
D34*
Y330000D02*
D03*
X570000Y230000D02*
D03*
Y330000D02*
D03*
X620000Y230000D02*
D03*
D35*
X500000Y480000D02*
D03*
X353953Y196047D02*
D03*
X620000Y480000D02*
D03*
D36*
X260000Y200000D02*
D03*
Y500000D02*
D03*
D37*
X385000Y330000D02*
D03*
X330000D02*
D03*
X343000D02*
D03*
X385000Y240000D02*
D03*
X372000Y330000D02*
D03*
X330000Y240000D02*
D03*
X340000Y390000D02*
D03*
X380000D02*
D03*
X340000Y463000D02*
D03*
X380000D02*
D03*
M02*
