G04*
G04 #@! TF.GenerationSoftware,Altium Limited,Altium Designer,23.3.1 (30)*
G04*
G04 Layer_Color=128*
%FSLAX25Y25*%
%MOIN*%
G70*
G04*
G04 #@! TF.SameCoordinates,27A53AFF-B7D0-4960-851C-DE89EC337BCC*
G04*
G04*
G04 #@! TF.FilePolarity,Positive*
G04*
G01*
G75*
%ADD12C,0.00500*%
D12*
X428250Y381000D02*
X431750D01*
X430000Y379250D02*
Y382750D01*
X428250Y371000D02*
X431750D01*
X430000Y369250D02*
Y372750D01*
X428250Y361000D02*
X431750D01*
X430000Y359250D02*
Y362750D01*
X428250Y351000D02*
X431750D01*
X430000Y349250D02*
Y352750D01*
X428250Y341000D02*
X431750D01*
X430000Y339250D02*
Y342750D01*
X428250Y331000D02*
X431750D01*
X430000Y329250D02*
Y332750D01*
X428250Y321000D02*
X431750D01*
X430000Y319250D02*
Y322750D01*
X428250Y311000D02*
X431750D01*
X430000Y309250D02*
Y312750D01*
X428250Y301000D02*
X431750D01*
X430000Y299250D02*
Y302750D01*
X428250Y291000D02*
X431750D01*
X430000Y289250D02*
Y292750D01*
X428250Y281000D02*
X431750D01*
X430000Y279250D02*
Y282750D01*
X428250Y271000D02*
X431750D01*
X430000Y269250D02*
Y272750D01*
X428250Y261000D02*
X431750D01*
X430000Y259250D02*
Y262750D01*
X428250Y251000D02*
X431750D01*
X430000Y249250D02*
Y252750D01*
X428250Y241000D02*
X431750D01*
X430000Y239250D02*
Y242750D01*
X528250Y381000D02*
X531750D01*
X530000Y379250D02*
Y382750D01*
X528250Y371000D02*
X531750D01*
X530000Y369250D02*
Y372750D01*
X528250Y361000D02*
X531750D01*
X530000Y359250D02*
Y362750D01*
X528250Y351000D02*
X531750D01*
X530000Y349250D02*
Y352750D01*
X528250Y341000D02*
X531750D01*
X530000Y339250D02*
Y342750D01*
X528250Y331000D02*
X531750D01*
X530000Y329250D02*
Y332750D01*
X528250Y321000D02*
X531750D01*
X530000Y319250D02*
Y322750D01*
X528250Y311000D02*
X531750D01*
X530000Y309250D02*
Y312750D01*
X528250Y301000D02*
X531750D01*
X530000Y299250D02*
Y302750D01*
X528250Y291000D02*
X531750D01*
X530000Y289250D02*
Y292750D01*
X528250Y281000D02*
X531750D01*
X530000Y279250D02*
Y282750D01*
X528250Y271000D02*
X531750D01*
X530000Y269250D02*
Y272750D01*
X528250Y261000D02*
X531750D01*
X530000Y259250D02*
Y262750D01*
X528250Y251000D02*
X531750D01*
X530000Y249250D02*
Y252750D01*
X528250Y241000D02*
X531750D01*
X530000Y239250D02*
Y242750D01*
X425748Y227496D02*
X437559D01*
X431653Y221590D02*
Y233402D01*
X522244Y227496D02*
X534055D01*
X528150Y221590D02*
Y233402D01*
X522244Y412339D02*
X534055D01*
X528150Y406433D02*
Y418244D01*
X425748Y412339D02*
X437559D01*
X431653Y406433D02*
Y418244D01*
X398622Y362126D02*
X401378D01*
X400000Y360748D02*
Y363504D01*
X398622Y370000D02*
X401378D01*
X400000Y368622D02*
Y371378D01*
X618228Y350000D02*
X621772D01*
X620000Y348228D02*
Y351772D01*
X618228Y340000D02*
X621772D01*
X620000Y338228D02*
Y341772D01*
X618228Y330000D02*
X621772D01*
X620000Y328228D02*
Y331772D01*
X568228Y230000D02*
X571772D01*
X570000Y228228D02*
Y231772D01*
X568228Y240000D02*
X571772D01*
X570000Y238228D02*
Y241772D01*
X568228Y250000D02*
X571772D01*
X570000Y248228D02*
Y251772D01*
X568228Y260000D02*
X571772D01*
X570000Y258228D02*
Y261772D01*
X568228Y270000D02*
X571772D01*
X570000Y268228D02*
Y271772D01*
X568228Y330000D02*
X571772D01*
X570000Y328228D02*
Y331772D01*
X568228Y340000D02*
X571772D01*
X570000Y338228D02*
Y341772D01*
X568228Y350000D02*
X571772D01*
X570000Y348228D02*
Y351772D01*
X568228Y360000D02*
X571772D01*
X570000Y358228D02*
Y361772D01*
X478228Y480000D02*
X481772D01*
X480000Y478228D02*
Y481772D01*
X408228Y480000D02*
X411772D01*
X410000Y478228D02*
Y481772D01*
X418228Y480000D02*
X421772D01*
X420000Y478228D02*
Y481772D01*
X428228Y480000D02*
X431772D01*
X430000Y478228D02*
Y481772D01*
X438228Y480000D02*
X441772D01*
X440000Y478228D02*
Y481772D01*
X448228Y480000D02*
X451772D01*
X450000Y478228D02*
Y481772D01*
X458228Y480000D02*
X461772D01*
X460000Y478228D02*
Y481772D01*
X468228Y480000D02*
X471772D01*
X470000Y478228D02*
Y481772D01*
X488228Y480000D02*
X491772D01*
X490000Y478228D02*
Y481772D01*
X498228Y480000D02*
X501772D01*
X500000Y478228D02*
Y481772D01*
X362181Y196047D02*
X365724D01*
X363953Y194276D02*
Y197819D01*
X352181Y196047D02*
X355724D01*
X353953Y194276D02*
Y197819D01*
X256500Y200000D02*
X263500D01*
X260000Y196500D02*
Y203500D01*
X256500Y500000D02*
X263500D01*
X260000Y496500D02*
Y503500D01*
X383500Y330000D02*
X386500D01*
X385000Y328500D02*
Y331500D01*
X328500Y330000D02*
X331500D01*
X330000Y328500D02*
Y331500D01*
X341500Y330000D02*
X344500D01*
X343000Y328500D02*
Y331500D01*
X383500Y240000D02*
X386500D01*
X385000Y238500D02*
Y241500D01*
X370500Y330000D02*
X373500D01*
X372000Y328500D02*
Y331500D01*
X328500Y240000D02*
X331500D01*
X330000Y238500D02*
Y241500D01*
X338500Y390000D02*
X341500D01*
X340000Y388500D02*
Y391500D01*
X378500Y390000D02*
X381500D01*
X380000Y388500D02*
Y391500D01*
X338500Y463000D02*
X341500D01*
X340000Y461500D02*
Y464500D01*
X378500Y463000D02*
X381500D01*
X380000Y461500D02*
Y464500D01*
X618228Y480000D02*
X621772D01*
X620000Y478228D02*
Y481772D01*
X608228Y480000D02*
X611772D01*
X610000Y478228D02*
Y481772D01*
X588228Y480000D02*
X591772D01*
X590000Y478228D02*
Y481772D01*
X578228Y480000D02*
X581772D01*
X580000Y478228D02*
Y481772D01*
X568228Y480000D02*
X571772D01*
X570000Y478228D02*
Y481772D01*
X558228Y480000D02*
X561772D01*
X560000Y478228D02*
Y481772D01*
X548228Y480000D02*
X551772D01*
X550000Y478228D02*
Y481772D01*
X538228Y480000D02*
X541772D01*
X540000Y478228D02*
Y481772D01*
X528228Y480000D02*
X531772D01*
X530000Y478228D02*
Y481772D01*
X598228Y480000D02*
X601772D01*
X600000Y478228D02*
Y481772D01*
X618228Y270000D02*
X621772D01*
X620000Y268228D02*
Y271772D01*
X618228Y260000D02*
X621772D01*
X620000Y258228D02*
Y261772D01*
X618228Y250000D02*
X621772D01*
X620000Y248228D02*
Y251772D01*
X618228Y240000D02*
X621772D01*
X620000Y238228D02*
Y241772D01*
X618228Y230000D02*
X621772D01*
X620000Y228228D02*
Y231772D01*
X568622Y402126D02*
X571378D01*
X570000Y400748D02*
Y403504D01*
X568622Y410000D02*
X571378D01*
X570000Y408622D02*
Y411378D01*
X523600Y387000D02*
X526400D01*
X525000Y385600D02*
Y388400D01*
X493600Y453000D02*
X496400D01*
X495000Y451600D02*
Y454400D01*
X489139Y421500D02*
X491939D01*
X490539Y420100D02*
Y422900D01*
X553600Y265000D02*
X556400D01*
X555000Y263600D02*
Y266400D01*
X478600Y270000D02*
X481400D01*
X480000Y268600D02*
Y271400D01*
X477600Y326000D02*
X480400D01*
X479000Y324600D02*
Y327400D01*
X494600Y387000D02*
X497400D01*
X496000Y385600D02*
Y388400D01*
X489600Y394000D02*
X492400D01*
X491000Y392600D02*
Y395400D01*
X482600Y396000D02*
X485400D01*
X484000Y394600D02*
Y397400D01*
X475600Y405000D02*
X478400D01*
X477000Y403600D02*
Y406400D01*
X470600Y398000D02*
X473400D01*
X472000Y396600D02*
Y399400D01*
X495600Y362000D02*
X498400D01*
X497000Y360600D02*
Y363400D01*
X483600Y365000D02*
X486400D01*
X485000Y363600D02*
Y366400D01*
X470600Y367000D02*
X473400D01*
X472000Y365600D02*
Y368400D01*
X462600Y412000D02*
X465400D01*
X464000Y410600D02*
Y413400D01*
X458600Y365000D02*
X461400D01*
X460000Y363600D02*
Y366400D01*
X585600Y325000D02*
X588400D01*
X587000Y323600D02*
Y326400D01*
X576600Y304000D02*
X579400D01*
X578000Y302600D02*
Y305400D01*
X552600Y288000D02*
X555400D01*
X554000Y286600D02*
Y289400D01*
X552600Y355000D02*
X555400D01*
X554000Y353600D02*
Y356400D01*
X556600Y389000D02*
X559400D01*
X558000Y387600D02*
Y390400D01*
X436600Y471000D02*
X439400D01*
X438000Y469600D02*
Y472400D01*
X430600Y496000D02*
X433400D01*
X432000Y494600D02*
Y497400D01*
X516600Y387000D02*
X519400D01*
X518000Y385600D02*
Y388400D01*
X509635Y385964D02*
X512435D01*
X511035Y384564D02*
Y387365D01*
X497600Y443000D02*
X500400D01*
X499000Y441600D02*
Y444400D01*
X489600Y374000D02*
X492400D01*
X491000Y372600D02*
Y375400D01*
X477600Y375000D02*
X480400D01*
X479000Y373600D02*
Y376400D01*
X471600Y329000D02*
X474400D01*
X473000Y327600D02*
Y330400D01*
X464600Y341000D02*
X467400D01*
X466000Y339600D02*
Y342400D01*
X463600Y375000D02*
X466400D01*
X465000Y373600D02*
Y376400D01*
X458600Y347000D02*
X461400D01*
X460000Y345600D02*
Y348400D01*
X451600Y375000D02*
X454400D01*
X453000Y373600D02*
Y376400D01*
X438600Y496000D02*
X441400D01*
X440000Y494600D02*
Y497400D01*
X441600Y463000D02*
X444400D01*
X443000Y461600D02*
Y464400D01*
X526600Y512000D02*
X529400D01*
X528000Y510600D02*
Y513400D01*
X421600Y461000D02*
X424400D01*
X423000Y459600D02*
Y462400D01*
X416600Y378000D02*
X419400D01*
X418000Y376600D02*
Y379400D01*
X430600Y392000D02*
X433400D01*
X432000Y390600D02*
Y393400D01*
X439600Y371000D02*
X442400D01*
X441000Y369600D02*
Y372400D01*
X447600Y427000D02*
X450400D01*
X449000Y425600D02*
Y428400D01*
X455600Y407000D02*
X458400D01*
X457000Y405600D02*
Y408400D01*
X455600Y251000D02*
X458400D01*
X457000Y249600D02*
Y252400D01*
X614094Y200000D02*
X625906D01*
X620000Y194095D02*
Y205906D01*
X614094Y510000D02*
X625906D01*
X620000Y504095D02*
Y515906D01*
X194095Y200000D02*
X205906D01*
X200000Y194095D02*
Y205906D01*
X194095Y510000D02*
X205906D01*
X200000Y504095D02*
Y515906D01*
M02*
