%FSTAX23Y23*%
%MOIN*%
%SFA1B1*%

%IPPOS*%
%ADD10C,0.007870*%
%ADD11C,0.005910*%
%ADD12C,0.005000*%
%ADD13C,0.010000*%
%LNpcb1-1*%
%LPD*%
G54D10*
X04219Y0381D02*
X04211D01*
X04219*
X0394Y03575D02*
X04059D01*
X0615Y0325D02*
X0625D01*
X0615D02*
Y0355D01*
X0625*
Y0325D02*
Y0355D01*
X0565Y0275D02*
X0575D01*
Y0225D02*
Y0275D01*
X0565Y0225D02*
Y0275D01*
Y0225D02*
X0575D01*
X0565Y0365D02*
X0575D01*
Y0325D02*
Y0365D01*
X0565Y0325D02*
Y0365D01*
Y0325D02*
X0575D01*
X0405Y0475D02*
X04975D01*
X0505*
Y0485*
X0405D02*
X0505D01*
X0405Y0475D02*
Y0485D01*
X03489Y0201D02*
X03689D01*
X03489Y0191D02*
Y0201D01*
Y0191D02*
X03689D01*
Y0201*
X04233Y04368D02*
X0427D01*
X04233Y04431D02*
X0427D01*
X0525Y0475D02*
Y0485D01*
X0625*
Y0475D02*
Y0485D01*
X06175Y0475D02*
X0625D01*
X0525D02*
X06175D01*
X04029Y04431D02*
X04066D01*
X04029Y04368D02*
X04066D01*
X0615Y0225D02*
X0625D01*
X0615D02*
Y0275D01*
X0625Y0225D02*
Y0275D01*
X0615D02*
X0625D01*
X0564Y04145D02*
X05759D01*
G54D11*
X04108Y0366D02*
X04107Y0367D01*
X04106Y0368*
X04104Y0369*
X041Y03699*
X04096Y03708*
X04092Y03717*
X04086Y03725*
X0408Y03733*
X04072Y0374*
X04065Y03747*
X04057Y03752*
X04048Y03757*
X04039Y03761*
X04029Y03764*
X04019Y03767*
X04009Y03768*
X04Y03768*
X0399Y03768*
X0398Y03767*
X0397Y03764*
X0396Y03761*
X03951Y03757*
X03943Y03752*
X03934Y03747*
X03927Y0374*
X03919Y03733*
X03913Y03725*
X03907Y03717*
X03903Y03708*
X03899Y03699*
X03895Y0369*
X03893Y0368*
X03892Y0367*
X03891Y0366*
X03892Y0365*
X03893Y0364*
X03895Y03631*
X03899Y03621*
X03903Y03612*
X03907Y03603*
X03913Y03595*
X03919Y03587*
X03927Y0358*
X03934Y03574*
X03943Y03568*
X03951Y03563*
X0396Y03559*
X0397Y03556*
X0398Y03554*
X0399Y03552*
X04Y03552*
X04009Y03552*
X04019Y03554*
X04029Y03556*
X04039Y03559*
X04048Y03563*
X04057Y03568*
X04065Y03574*
X04072Y0358*
X0408Y03587*
X04086Y03595*
X04092Y03603*
X04096Y03612*
X041Y03621*
X04104Y03631*
X04106Y0364*
X04107Y0365*
X04108Y0366*
X05808Y0406D02*
X05807Y0407D01*
X05806Y0408*
X05804Y0409*
X058Y04099*
X05796Y04108*
X05792Y04117*
X05786Y04125*
X0578Y04133*
X05772Y0414*
X05765Y04147*
X05757Y04152*
X05748Y04157*
X05739Y04161*
X05729Y04164*
X05719Y04167*
X05709Y04168*
X057Y04168*
X0569Y04168*
X0568Y04167*
X0567Y04164*
X0566Y04161*
X05651Y04157*
X05643Y04152*
X05634Y04147*
X05627Y0414*
X05619Y04133*
X05613Y04125*
X05607Y04117*
X05603Y04108*
X05599Y04099*
X05595Y0409*
X05593Y0408*
X05592Y0407*
X05591Y0406*
X05592Y0405*
X05593Y0404*
X05595Y04031*
X05599Y04021*
X05603Y04012*
X05607Y04003*
X05613Y03995*
X05619Y03987*
X05627Y0398*
X05634Y03974*
X05643Y03968*
X05651Y03963*
X0566Y03959*
X0567Y03956*
X0568Y03954*
X0569Y03952*
X057Y03952*
X05709Y03952*
X05719Y03954*
X05729Y03956*
X05739Y03959*
X05748Y03963*
X05757Y03968*
X05765Y03974*
X05772Y0398*
X0578Y03987*
X05786Y03995*
X05792Y04003*
X05796Y04012*
X058Y04021*
X05804Y04031*
X05806Y0404*
X05807Y0405*
X05808Y0406*
G54D12*
X0536Y02196D02*
Y04202D01*
X04237Y02196D02*
X0536D01*
X04237Y04202D02*
X0536D01*
X04237Y02196D02*
Y04202D01*
X04673*
X04937*
X0536*
X04237Y02196D02*
Y04202D01*
X0536Y02196D02*
Y04202D01*
X04237Y02196D02*
X04449D01*
X05145*
X0536*
G54D13*
X0215Y019D02*
X0305D01*
Y051*
X0215D02*
X0305D01*
X0215D02*
Y019D01*
X0395Y0345D02*
Y0225D01*
X032D02*
X0395D01*
X032D02*
Y0345D01*
X0395*
X0335Y0385D02*
Y0468D01*
X0385*
Y0385D02*
Y0468D01*
X0335Y0385D02*
X0385D01*
X0502Y0464D02*
X0499D01*
Y04654*
X04995Y04659*
X05005*
X0501Y04654*
Y0464*
Y0465D02*
X0502Y04659D01*
X0499Y04669D02*
X0502Y04689D01*
X0499D02*
X0502Y04669D01*
X04995Y04699D02*
X0499Y04704D01*
Y04714*
X04995Y04719*
X05015*
X0502Y04714*
Y04704*
X05015Y04699*
X04995*
X0488Y0464D02*
Y04659D01*
Y0465*
X0491*
X0488Y04669D02*
X0491Y04689D01*
X0488D02*
X0491Y04669D01*
X04885Y04699D02*
X0488Y04704D01*
Y04714*
X04885Y04719*
X04905*
X0491Y04714*
Y04704*
X04905Y04699*
X04885*
X0481Y0464D02*
X0478D01*
Y04654*
X04785Y04659*
X04795*
X048Y04654*
Y0464*
Y0465D02*
X0481Y04659D01*
X0478Y04669D02*
X0481Y04689D01*
X0478D02*
X0481Y04669D01*
Y04719D02*
Y04699D01*
X0479Y04719*
X04785*
X0478Y04714*
Y04704*
X04785Y04699*
X0468Y0464D02*
Y04659D01*
Y0465*
X0471*
X0468Y04669D02*
X0471Y04689D01*
X0468D02*
X0471Y04669D01*
Y04719D02*
Y04699D01*
X0469Y04719*
X04685*
X0468Y04714*
Y04704*
X04685Y04699*
X0458Y0464D02*
X0461D01*
Y04654*
X04605Y04659*
X04585*
X0458Y04654*
Y0464*
X0461Y04689D02*
Y04669D01*
X0459Y04689*
X04585*
X0458Y04684*
Y04674*
X04585Y04669*
X0458Y04719D02*
X04585Y04709D01*
X04595Y04699*
X04605*
X0461Y04704*
Y04714*
X04605Y04719*
X046*
X04595Y04714*
Y04699*
X0448Y0464D02*
X0451D01*
Y04654*
X04505Y04659*
X04485*
X0448Y04654*
Y0464*
X0451Y04689D02*
Y04669D01*
X0449Y04689*
X04485*
X0448Y04684*
Y04674*
X04485Y04669*
X0448Y04699D02*
Y04719D01*
X04485*
X04505Y04699*
X0451*
X0439Y0464D02*
X0442D01*
Y04654*
X04415Y04659*
X04395*
X0439Y04654*
Y0464*
X04395Y04669D02*
X0439Y04674D01*
Y04684*
X04395Y04689*
X044*
X04405Y04684*
Y04679*
Y04684*
X0441Y04689*
X04415*
X0442Y04684*
Y04674*
X04415Y04669*
X0442Y04719D02*
Y04699D01*
X044Y04719*
X04395*
X0439Y04714*
Y04704*
X04395Y04699*
X0428Y0464D02*
X0431D01*
Y04654*
X04305Y04659*
X04285*
X0428Y04654*
Y0464*
X04285Y04669D02*
X0428Y04674D01*
Y04684*
X04285Y04689*
X0429*
X04295Y04684*
Y04679*
Y04684*
X043Y04689*
X04305*
X0431Y04684*
Y04674*
X04305Y04669*
X04285Y04699D02*
X0428Y04704D01*
Y04714*
X04285Y04719*
X0429*
X04295Y04714*
Y04709*
Y04714*
X043Y04719*
X04305*
X0431Y04714*
Y04704*
X04305Y04699*
X0418Y0464D02*
X0421D01*
Y04654*
X04205Y04659*
X04185*
X0418Y04654*
Y0464*
X04185Y04669D02*
X0418Y04674D01*
Y04684*
X04185Y04689*
X0419*
X04195Y04684*
Y04679*
Y04684*
X042Y04689*
X04205*
X0421Y04684*
Y04674*
X04205Y04669*
X0418Y04719D02*
Y04699D01*
X04195*
X0419Y04709*
Y04714*
X04195Y04719*
X04205*
X0421Y04714*
Y04704*
X04205Y04699*
X0408Y0464D02*
X0411D01*
Y04654*
X04105Y04659*
X04085*
X0408Y04654*
Y0464*
X04085Y04669D02*
X0408Y04674D01*
Y04684*
X04085Y04689*
X0409*
X04095Y04684*
Y04679*
Y04684*
X041Y04689*
X04105*
X0411Y04684*
Y04674*
X04105Y04669*
X0411Y04714D02*
X0408D01*
X04095Y04699*
Y04719*
X0619Y04659D02*
Y0464D01*
X0622*
Y04659*
X06205Y0464D02*
Y0465D01*
X0622Y04669D02*
X0619D01*
X0622Y04689*
X0619*
X0608Y0464D02*
X061D01*
X0611Y0465*
X061Y04659*
X0608*
X0611Y04669D02*
X0608D01*
Y04684*
X06085Y04689*
X06095*
X061Y04684*
Y04669*
X0598Y0464D02*
X06D01*
X0601Y0465*
X06Y04659*
X0598*
X0601Y04669D02*
X0598D01*
X0601Y04689*
X0598*
X0588Y0464D02*
X0591D01*
Y04654*
X05905Y04659*
X05885*
X0588Y04654*
Y0464*
Y04689D02*
Y04669D01*
X05895*
X0589Y04679*
Y04684*
X05895Y04689*
X05905*
X0591Y04684*
Y04674*
X05905Y04669*
X0579Y0464D02*
X0582D01*
Y04654*
X05815Y04659*
X05795*
X0579Y04654*
Y0464*
X0582Y04669D02*
Y04679D01*
Y04674*
X0579*
X05795Y04669*
X0582Y04714D02*
Y04694D01*
X058Y04714*
X05795*
X0579Y04709*
Y04699*
X05795Y04694*
X0569Y0464D02*
X0572D01*
Y04654*
X05715Y04659*
X05695*
X0569Y04654*
Y0464*
X0572Y04669D02*
Y04679D01*
Y04674*
X0569*
X05695Y04669*
Y04694D02*
X0569Y04699D01*
Y04709*
X05695Y04714*
X057*
X05705Y04709*
Y04704*
Y04709*
X0571Y04714*
X05715*
X0572Y04709*
Y04699*
X05715Y04694*
X0559Y0464D02*
X0562D01*
Y04654*
X05615Y04659*
X05595*
X0559Y04654*
Y0464*
X0562Y04669D02*
Y04679D01*
Y04674*
X0559*
X05595Y04669*
X0562Y04709D02*
X0559D01*
X05605Y04694*
Y04714*
X0548Y0464D02*
X0551D01*
Y04654*
X05505Y04659*
X05485*
X0548Y04654*
Y0464*
X0551Y04669D02*
Y04679D01*
Y04674*
X0548*
X05485Y04669*
X0548Y04714D02*
Y04694D01*
X05495*
X0549Y04704*
Y04709*
X05495Y04714*
X05505*
X0551Y04709*
Y04699*
X05505Y04694*
X0538Y0464D02*
X0541D01*
Y04654*
X05405Y04659*
X05385*
X0538Y04654*
Y0464*
X0541Y04669D02*
Y04679D01*
Y04674*
X0538*
X05385Y04669*
Y04694D02*
X0538Y04699D01*
Y04709*
X05385Y04714*
X0539*
X05395Y04709*
X054Y04714*
X05405*
X0541Y04709*
Y04699*
X05405Y04694*
X054*
X05395Y04699*
X0539Y04694*
X05385*
X05395Y04699D02*
Y04709D01*
X0528Y0464D02*
X0531D01*
Y04654*
X05305Y04659*
X05285*
X0528Y04654*
Y0464*
X0531Y04669D02*
Y04679D01*
Y04674*
X0528*
X05285Y04669*
X05305Y04694D02*
X0531Y04699D01*
Y04709*
X05305Y04714*
X05285*
X0528Y04709*
Y04699*
X05285Y04694*
X0529*
X05295Y04699*
Y04714*
X0577Y03619D02*
Y03614D01*
X0578Y03605*
X05789Y03614*
Y03619*
X0578Y03605D02*
Y0359D01*
X05799Y03614D02*
X05804Y03619D01*
X05814*
X05819Y03614*
Y03609*
X05814Y03605*
X05819Y036*
Y03595*
X05814Y0359*
X05804*
X05799Y03595*
Y036*
X05804Y03605*
X05799Y03609*
Y03614*
X05804Y03605D02*
X05814D01*
X05829Y03614D02*
X05834Y03619D01*
X05844*
X05849Y03614*
Y03609*
X05844Y03605*
X05839*
X05844*
X05849Y036*
Y03595*
X05844Y0359*
X05834*
X05829Y03595*
X05889Y0359D02*
Y03609D01*
X05899Y03619*
X05909Y03609*
Y0359*
Y03605*
X05889*
X05919Y03614D02*
X05924Y03619D01*
X05934*
X05939Y03614*
Y03595*
X05934Y0359*
X05924*
X05919Y03595*
Y03614*
X0577Y03519D02*
Y03514D01*
X0578Y03505*
X05789Y03514*
Y03519*
X0578Y03505D02*
Y0349D01*
X05799Y03514D02*
X05804Y03519D01*
X05814*
X05819Y03514*
Y03509*
X05814Y03505*
X05819Y035*
Y03495*
X05814Y0349*
X05804*
X05799Y03495*
Y035*
X05804Y03505*
X05799Y03509*
Y03514*
X05804Y03505D02*
X05814D01*
X05829Y03514D02*
X05834Y03519D01*
X05844*
X05849Y03514*
Y03509*
X05844Y03505*
X05839*
X05844*
X05849Y035*
Y03495*
X05844Y0349*
X05834*
X05829Y03495*
X05889Y03519D02*
Y0349D01*
X05904*
X05909Y03495*
Y03514*
X05904Y03519*
X05889*
X05919Y03514D02*
X05924Y03519D01*
X05934*
X05939Y03514*
Y03495*
X05934Y0349*
X05924*
X05919Y03495*
Y03514*
X05789Y02314D02*
X05785Y02319D01*
X05775*
X0577Y02314*
Y02295*
X05775Y0229*
X05785*
X05789Y02295*
Y02305*
X0578*
X05799Y0229D02*
Y02319D01*
X05819Y0229*
Y02319*
X05829D02*
Y0229D01*
X05844*
X05849Y02295*
Y02314*
X05844Y02319*
X05829*
X05789Y02414D02*
X05785Y02419D01*
X05775*
X0577Y02414*
Y02409*
X05775Y02404*
X05785*
X05789Y024*
Y02395*
X05785Y0239*
X05775*
X0577Y02395*
X05819Y02414D02*
X05814Y02419D01*
X05804*
X05799Y02414*
Y02395*
X05804Y0239*
X05814*
X05819Y02395*
X05829Y02419D02*
Y0239D01*
X05849*
X05789Y02514D02*
X05785Y02519D01*
X05775*
X0577Y02514*
Y02509*
X05775Y02505*
X05785*
X05789Y025*
Y02495*
X05785Y0249*
X05775*
X0577Y02495*
X05799Y02519D02*
Y0249D01*
X05814*
X05819Y02495*
Y02514*
X05814Y02519*
X05799*
X05829Y0249D02*
Y02509D01*
X05839Y02519*
X05849Y02509*
Y0249*
Y02505*
X05829*
X05789Y03404D02*
X05785Y03409D01*
X05775*
X0577Y03404*
Y03385*
X05775Y0338*
X05785*
X05789Y03385*
Y03394*
X0578*
X05799Y0338D02*
Y03409D01*
X05819Y0338*
Y03409*
X05829D02*
Y0338D01*
X05844*
X05849Y03385*
Y03404*
X05844Y03409*
X05829*
X05789Y02614D02*
X05785Y02619D01*
X05775*
X0577Y02614*
Y02595*
X05775Y0259*
X05785*
X05789Y02595*
Y02605*
X0578*
X05799Y0259D02*
Y02619D01*
X05819Y0259*
Y02619*
X05829D02*
Y0259D01*
X05844*
X05849Y02595*
Y02614*
X05844Y02619*
X05829*
X06289Y02704D02*
X06285Y02709D01*
X06275*
X0627Y02704*
Y02685*
X06275Y0268*
X06285*
X06289Y02685*
Y02694*
X0628*
X06299Y0268D02*
Y02709D01*
X06319Y0268*
Y02709*
X06329D02*
Y0268D01*
X06344*
X06349Y02685*
Y02704*
X06344Y02709*
X06329*
X06289Y02614D02*
X06285Y02619D01*
X06275*
X0627Y02614*
Y02609*
X06275Y02605*
X06285*
X06289Y026*
Y02595*
X06285Y0259*
X06275*
X0627Y02595*
X06299Y02619D02*
Y0259D01*
X06314*
X06319Y02595*
Y02614*
X06314Y02619*
X06299*
X06329Y0259D02*
Y02609D01*
X06339Y02619*
X06349Y02609*
Y0259*
Y02605*
X06329*
X06289Y02514D02*
X06285Y02519D01*
X06275*
X0627Y02514*
Y02509*
X06275Y02505*
X06285*
X06289Y025*
Y02495*
X06285Y0249*
X06275*
X0627Y02495*
X06319Y02514D02*
X06314Y02519D01*
X06304*
X06299Y02514*
Y02495*
X06304Y0249*
X06314*
X06319Y02495*
X06329Y02519D02*
Y0249D01*
X06349*
X06289Y02414D02*
X06285Y02419D01*
X06275*
X0627Y02414*
Y02395*
X06275Y0239*
X06285*
X06289Y02395*
Y02404*
X0628*
X06299Y0239D02*
Y02419D01*
X06319Y0239*
Y02419*
X06329D02*
Y0239D01*
X06344*
X06349Y02395*
Y02414*
X06344Y02419*
X06329*
X0627Y02304D02*
X06275Y02309D01*
X06285*
X06289Y02304*
Y02299*
X06285Y02295*
X0628*
X06285*
X06289Y0229*
Y02285*
X06285Y0228*
X06275*
X0627Y02285*
X06299Y0228D02*
Y02285D01*
X06304*
Y0228*
X06299*
X06324Y02304D02*
X06329Y02309D01*
X06339*
X06344Y02304*
Y02299*
X06339Y02295*
X06334*
X06339*
X06344Y0229*
Y02285*
X06339Y0228*
X06329*
X06324Y02285*
X06354Y02309D02*
Y0229D01*
X06364Y0228*
X06374Y0229*
Y02309*
X0577Y02714D02*
X05775Y02719D01*
X05785*
X05789Y02714*
Y02709*
X05785Y02704*
X0578*
X05785*
X05789Y027*
Y02695*
X05785Y0269*
X05775*
X0577Y02695*
X05799Y0269D02*
Y02695D01*
X05804*
Y0269*
X05799*
X05824Y02714D02*
X05829Y02719D01*
X05839*
X05844Y02714*
Y02709*
X05839Y02704*
X05834*
X05839*
X05844Y027*
Y02695*
X05839Y0269*
X05829*
X05824Y02695*
X05854Y02719D02*
Y027D01*
X05864Y0269*
X05874Y027*
Y02719*
X0577Y03314D02*
X05775Y03319D01*
X05785*
X05789Y03314*
Y03309*
X05785Y03305*
X0578*
X05785*
X05789Y033*
Y03295*
X05785Y0329*
X05775*
X0577Y03295*
X05799Y0329D02*
Y03295D01*
X05804*
Y0329*
X05799*
X05824Y03314D02*
X05829Y03319D01*
X05839*
X05844Y03314*
Y03309*
X05839Y03305*
X05834*
X05839*
X05844Y033*
Y03295*
X05839Y0329*
X05829*
X05824Y03295*
X05854Y03319D02*
Y033D01*
X05864Y0329*
X05874Y033*
Y03319*
X06289Y03504D02*
X06285Y03509D01*
X06275*
X0627Y03504*
Y03485*
X06275Y0348*
X06285*
X06289Y03485*
Y03495*
X0628*
X06299Y0348D02*
Y03509D01*
X06319Y0348*
Y03509*
X06329D02*
Y0348D01*
X06344*
X06349Y03485*
Y03504*
X06344Y03509*
X06329*
X0627Y03304D02*
X06275Y03309D01*
X06285*
X06289Y03304*
Y03299*
X06285Y03295*
X0628*
X06285*
X06289Y0329*
Y03285*
X06285Y0328*
X06275*
X0627Y03285*
X06299Y0328D02*
Y03285D01*
X06304*
Y0328*
X06299*
X06324Y03304D02*
X06329Y03309D01*
X06339*
X06344Y03304*
Y03299*
X06339Y03295*
X06334*
X06339*
X06344Y0329*
Y03285*
X06339Y0328*
X06329*
X06324Y03285*
X06354Y03309D02*
Y0329D01*
X06364Y0328*
X06374Y0329*
Y03309*
X0627Y03419D02*
Y0339D01*
Y03404*
X06289*
Y03419*
Y0339*
X06304Y03409D02*
X06314D01*
X06319Y03404*
Y0339*
X06304*
X06299Y03395*
X06304Y034*
X06319*
X06329Y0339D02*
X06339D01*
X06334*
Y03419*
X06329*
X06354Y0339D02*
X06364D01*
X06359*
Y03419*
X06354*
X02Y0323D02*
X0206D01*
X0204*
X02Y03269*
X0203Y0324*
X0206Y03269*
X0202Y03289D02*
X0206D01*
X0204*
X0203Y03299*
X0202Y03309*
Y03319*
Y03349D02*
Y03389D01*
X0206Y03349*
Y03389*
X0202Y03409D02*
X0205D01*
X0206Y03419*
Y03449*
X0207*
X0208Y03439*
Y03429*
X0206Y03449D02*
X0202D01*
X0206Y03469D02*
Y03499D01*
X0205Y03509*
X0204Y03499*
Y03479*
X0203Y03469*
X0202Y03479*
Y03509*
Y03529D02*
Y03569D01*
X0206Y03529*
Y03569*
X0201Y03599D02*
X0202D01*
Y03589*
Y03609*
Y03599*
X0205*
X0206Y03609*
Y03649D02*
Y03669D01*
X0205Y03679*
X0203*
X0202Y03669*
Y03649*
X0203Y03639*
X0205*
X0206Y03649*
Y03709D02*
X0201D01*
X0203*
Y03699*
Y03719*
Y03709*
X0201*
X02Y03719*
X0201Y03849D02*
X02Y03839D01*
Y03819*
X0201Y03809*
X0202*
X0203Y03819*
Y03839*
X0204Y03849*
X0205*
X0206Y03839*
Y03819*
X0205Y03809*
X0206Y03869D02*
Y03889D01*
Y03879*
X0202*
Y03869*
X0206Y03919D02*
X02D01*
X0204D02*
X0202Y03949D01*
X0204Y03919D02*
X0206Y03949D01*
Y03989D02*
Y04009D01*
X0205Y04019*
X0203*
X0202Y04009*
Y03989*
X0203Y03979*
X0205*
X0206Y03989*
X0202Y04039D02*
X0206D01*
X0204*
X0203Y04049*
X0202Y04059*
Y04069*
Y04109D02*
Y04129D01*
X0203Y04139*
X0206*
Y04109*
X0205Y04099*
X0204Y04109*
Y04139*
X0186Y03059D02*
Y0302D01*
X0192*
Y03059*
X0189Y0302D02*
Y03039D01*
X0187Y03119D02*
X0186Y03109D01*
Y03089*
X0187Y03079*
X0188*
X0189Y03089*
Y03109*
X019Y03119*
X0191*
X0192Y03109*
Y03089*
X0191Y03079*
X0192Y03139D02*
X0186D01*
Y03169*
X0187Y03179*
X0189*
X019Y03169*
Y03139*
X0187Y03199D02*
X0186Y03209D01*
Y03229*
X0187Y03239*
X0188*
X0189Y03229*
Y03219*
Y03229*
X019Y03239*
X0191*
X0192Y03229*
Y03209*
X0191Y03199*
X0192Y03299D02*
Y03259D01*
X0188Y03299*
X0187*
X0186Y03289*
Y03269*
X0187Y03259*
X0186Y03379D02*
X0192D01*
Y03409*
X0191Y03419*
X019*
X0189*
X0188Y03409*
Y03379*
Y03449D02*
Y03469D01*
X0189Y03479*
X0192*
Y03449*
X0191Y03439*
X019Y03449*
Y03479*
X0192Y03499D02*
Y03529D01*
X0191Y03539*
X019Y03529*
Y03509*
X0189Y03499*
X0188Y03509*
Y03539*
X0192Y03589D02*
Y03569D01*
X0191Y03559*
X0189*
X0188Y03569*
Y03589*
X0189Y03599*
X019*
Y03559*
X0186Y03659D02*
X0192D01*
Y03629*
X0191Y03619*
X0189*
X0188Y03629*
Y03659*
Y03739D02*
X0191D01*
X0192Y03749*
X0191Y03759*
X0192Y03769*
X0191Y03779*
X0188*
X0192Y03829D02*
Y03809D01*
X0191Y03799*
X0189*
X0188Y03809*
Y03829*
X0189Y03839*
X019*
Y03799*
X0188Y03869D02*
Y03889D01*
X0189Y03899*
X0192*
Y03869*
X0191Y03859*
X019Y03869*
Y03899*
X0187Y03929D02*
X0188D01*
Y03919*
Y03939*
Y03929*
X0191*
X0192Y03939*
X0186Y03969D02*
X0192D01*
X0189*
X0188Y03979*
Y03999*
X0189Y04009*
X0192*
Y04059D02*
Y04039D01*
X0191Y04029*
X0189*
X0188Y04039*
Y04059*
X0189Y04069*
X019*
Y04029*
X0188Y04089D02*
X0192D01*
X019*
X0189Y04099*
X0188Y04109*
Y04119*
X0192Y04209D02*
Y04239D01*
X0191Y04249*
X019Y04239*
Y04219*
X0189Y04209*
X0188Y04219*
Y04249*
X0187Y04279D02*
X0188D01*
Y04269*
Y04289*
Y04279*
X0191*
X0192Y04289*
X0188Y04329D02*
Y04349D01*
X0189Y04359*
X0192*
Y04329*
X0191Y04319*
X019Y04329*
Y04359*
X0187Y04389D02*
X0188D01*
Y04379*
Y04399*
Y04389*
X0191*
X0192Y04399*
Y04429D02*
Y04449D01*
Y04439*
X0188*
Y04429*
X0192Y04489D02*
Y04509D01*
X0191Y04519*
X0189*
X0188Y04509*
Y04489*
X0189Y04479*
X0191*
X0192Y04489*
Y04539D02*
X0188D01*
Y04569*
X0189Y04579*
X0192*
X0335Y01909D02*
X0334Y01899D01*
Y0188*
X0335Y0187*
X0336*
X0337Y0188*
Y01899*
X0338Y01909*
X0339*
X034Y01899*
Y0188*
X0339Y0187*
X034Y01939D02*
Y01959D01*
X0339Y01969*
X0337*
X0336Y01959*
Y01939*
X0337Y01929*
X0339*
X034Y01939*
Y01989D02*
Y02009D01*
Y01999*
X0334*
Y01989*
X0336Y02049D02*
Y02069D01*
X0337Y02079*
X034*
Y02049*
X0339Y02039*
X0338Y02049*
Y02079*
X0336Y02099D02*
X034D01*
X0338*
X0337Y02109*
X0336Y02119*
Y02129*
X0337Y02159D02*
Y02199D01*
X0335Y02179D02*
X0339D01*
X0203Y0465D02*
X0209D01*
Y04679*
X0208Y04689*
X0207*
X0206Y04679*
Y0465*
Y04679*
X0205Y04689*
X0204*
X0203Y04679*
Y0465*
X0205Y04719D02*
Y04739D01*
X0206Y04749*
X0209*
Y04719*
X0208Y04709*
X0207Y04719*
Y04749*
X0204Y04779D02*
X0205D01*
Y04769*
Y04789*
Y04779*
X0208*
X0209Y04789*
X0204Y04829D02*
X0205D01*
Y04819*
Y04839*
Y04829*
X0208*
X0209Y04839*
X0206Y04869D02*
Y04909D01*
X0199Y0229D02*
X0205D01*
Y02319*
X0204Y02329*
X0203*
X0202Y02319*
Y0229*
Y02319*
X0201Y02329*
X02*
X0199Y02319*
Y0229*
X0201Y02359D02*
Y02379D01*
X0202Y02389*
X0205*
Y02359*
X0204Y02349*
X0203Y02359*
Y02389*
X02Y02419D02*
X0201D01*
Y02409*
Y02429*
Y02419*
X0204*
X0205Y02429*
X02Y02469D02*
X0201D01*
Y02459*
Y02479*
Y02469*
X0204*
X0205Y02479*
X0202Y02509D02*
Y02549D01*
X02Y02529D02*
X0204D01*
X04217Y04302D02*
Y04253D01*
X04227Y04243*
X04246*
X04256Y04253*
Y04302*
X04276Y04243D02*
X04296D01*
X04286*
Y04302*
X04276Y04292*
X03355Y04774D02*
Y04725D01*
X03365Y04715*
X03384*
X03394Y04725*
Y04774*
X03414Y04764D02*
X03424Y04774D01*
X03444*
X03454Y04764*
Y04754*
X03444Y04744*
X03434*
X03444*
X03454Y04734*
Y04725*
X03444Y04715*
X03424*
X03414Y04725*
X03205Y03544D02*
Y03495D01*
X03215Y03485*
X03234*
X03244Y03495*
Y03544*
X03304Y03485D02*
X03264D01*
X03304Y03524*
Y03534*
X03294Y03544*
X03274*
X03264Y03534*
X02155Y05135D02*
Y05194D01*
X02184*
X02194Y05184*
Y05164*
X02184Y05154*
X02155*
X02214Y05184D02*
X02224Y05194D01*
X02244*
X02254Y05184*
Y05174*
X02244Y05164*
X02254Y05154*
Y05145*
X02244Y05135*
X02224*
X02214Y05145*
Y05154*
X02224Y05164*
X02214Y05174*
Y05184*
X02224Y05164D02*
X02244D01*
X04183Y04472D02*
Y04531D01*
X04212*
X04222Y04521*
Y04501*
X04212Y04491*
X04183*
X04202D02*
X04222Y04472D01*
X04282D02*
X04242D01*
X04282Y04511*
Y04521*
X04272Y04531*
X04252*
X04242Y04521*
X03979Y04472D02*
Y04531D01*
X04008*
X04018Y04521*
Y04501*
X04008Y04491*
X03979*
X03998D02*
X04018Y04472D01*
X04038D02*
X04058D01*
X04048*
Y04531*
X04038Y04521*
X03496Y02044D02*
Y02103D01*
X03525*
X03535Y02093*
Y02073*
X03525Y02063*
X03496*
X03555Y02103D02*
X03595D01*
Y02093*
X03555Y02054*
Y02044*
X04056Y04884D02*
Y04943D01*
X04085*
X04095Y04933*
Y04913*
X04085Y04903*
X04056*
X04155Y04943D02*
X04135Y04933D01*
X04115Y04913*
Y04894*
X04125Y04884*
X04145*
X04155Y04894*
Y04903*
X04145Y04913*
X04115*
X05256Y04884D02*
Y04943D01*
X05285*
X05295Y04933*
Y04913*
X05285Y04903*
X05256*
X05355Y04943D02*
X05315D01*
Y04913*
X05335Y04923*
X05345*
X05355Y04913*
Y04894*
X05345Y04884*
X05325*
X05315Y04894*
X05656Y03684D02*
Y03743D01*
X05685*
X05695Y03733*
Y03713*
X05685Y03703*
X05656*
X05745Y03684D02*
Y03743D01*
X05715Y03713*
X05755*
X05656Y02784D02*
Y02843D01*
X05685*
X05695Y02833*
Y02813*
X05685Y02803*
X05656*
X05715Y02833D02*
X05725Y02843D01*
X05745*
X05755Y02833*
Y02823*
X05745Y02813*
X05735*
X05745*
X05755Y02803*
Y02794*
X05745Y02784*
X05725*
X05715Y02794*
X06156Y03584D02*
Y03643D01*
X06185*
X06195Y03633*
Y03613*
X06185Y03603*
X06156*
X06255Y03584D02*
X06215D01*
X06255Y03623*
Y03633*
X06245Y03643*
X06225*
X06215Y03633*
X06156Y02784D02*
Y02843D01*
X06185*
X06195Y02833*
Y02813*
X06185Y02803*
X06156*
X06215Y02784D02*
X06235D01*
X06225*
Y02843*
X06215Y02833*
X03933Y03856D02*
X03923Y03866D01*
X03904*
X03894Y03856*
Y03817*
X03904Y03807*
X03923*
X03933Y03817*
X03983Y03807D02*
Y03866D01*
X03953Y03836*
X03993*
X04109Y04047D02*
X04099Y04057D01*
X0408*
X0407Y04047*
Y04008*
X0408Y03998*
X04099*
X04109Y04008*
X04129Y04047D02*
X04139Y04057D01*
X04159*
X04169Y04047*
Y04037*
X04159Y04027*
X04149*
X04159*
X04169Y04017*
Y04008*
X04159Y03998*
X04139*
X04129Y04008*
X05519Y0381D02*
X05529Y03819D01*
Y03839*
X05519Y03849*
X0548*
X0547Y03839*
Y03819*
X0548Y0381*
X0547Y0375D02*
Y0379D01*
X0551Y0375*
X05519*
X05529Y0376*
Y0378*
X05519Y0379*
X05633Y04256D02*
X05623Y04266D01*
X05604*
X05594Y04256*
Y04217*
X05604Y04207*
X05623*
X05633Y04217*
X05653Y04207D02*
X05673D01*
X05663*
Y04266*
X05653Y04256*
M02*