%FSTAX23Y23*%
%MOIN*%
%SFA1B1*%

%IPPOS*%
%ADD17R,0.086740X0.086740*%
%ADD18C,0.063000*%
%ADD19C,0.126110*%
%ADD20R,0.047240X0.047240*%
%ADD21C,0.047240*%
%ADD22C,0.067060*%
%ADD23R,0.067060X0.067060*%
%ADD24R,0.067060X0.067060*%
%ADD25C,0.108000*%
%ADD26C,0.068000*%
%ADD27C,0.058000*%
%ADD28C,0.204850*%
%LNpcb1-1*%
%LPD*%
G54D17*
X043Y0381D03*
G54D18*
X043Y0371D03*
Y0361D03*
Y0351D03*
Y0341D03*
Y0331D03*
Y0321D03*
Y0311D03*
Y0301D03*
Y0291D03*
Y0281D03*
Y0271D03*
Y0261D03*
Y0251D03*
Y0241D03*
X053Y0381D03*
Y0371D03*
Y0361D03*
Y0351D03*
Y0341D03*
Y0331D03*
Y0321D03*
Y0311D03*
Y0301D03*
Y0291D03*
Y0281D03*
Y0271D03*
Y0261D03*
Y0251D03*
Y0241D03*
G54D19*
X04316Y02274D03*
X05281D03*
Y04123D03*
X04316D03*
G54D20*
X04Y03621D03*
X057Y041D03*
G54D21*
X04Y037D03*
X057Y04021D03*
G54D22*
X062Y035D03*
Y034D03*
X057Y024D03*
Y025D03*
Y026D03*
Y027D03*
Y034D03*
Y035D03*
Y036D03*
X048Y048D03*
X041D03*
X042D03*
X043D03*
X044D03*
X045D03*
X046D03*
X047D03*
X049D03*
X03639Y0196D03*
X061Y048D03*
X059D03*
X058D03*
X057D03*
X056D03*
X055D03*
X054D03*
X053D03*
X06D03*
X062Y027D03*
Y026D03*
Y025D03*
Y024D03*
G54D23*
X062Y033D03*
X057Y023D03*
Y033D03*
X062Y023D03*
G54D24*
X05Y048D03*
X03539Y0196D03*
X062Y048D03*
G54D25*
X026Y02D03*
Y05D03*
G54D26*
X0385Y033D03*
X033D03*
X0343D03*
X0385Y024D03*
X0372Y033D03*
X033Y024D03*
X034Y039D03*
X038D03*
X034Y0463D03*
X038D03*
G54D27*
X0525Y0387D03*
X0495Y0453D03*
X04905Y04215D03*
X0555Y0265D03*
X048Y027D03*
X0479Y0326D03*
X0496Y0387D03*
X0491Y0394D03*
X0484Y0396D03*
X0477Y0405D03*
X0472Y0398D03*
X0497Y0362D03*
X0485Y0365D03*
X0472Y0367D03*
X0464Y0412D03*
X046Y0365D03*
X0587Y0325D03*
X0578Y0304D03*
X0554Y0288D03*
Y0355D03*
X0558Y0389D03*
X0438Y0471D03*
X0432Y0496D03*
X0518Y0387D03*
X0511Y03859D03*
X0499Y0443D03*
X0491Y0374D03*
X0479Y0375D03*
X0473Y0329D03*
X0466Y0341D03*
X0465Y0375D03*
X046Y0347D03*
X0453Y0375D03*
X044Y0496D03*
X0443Y0463D03*
X0528Y0512D03*
X0423Y0461D03*
X0418Y0378D03*
X0432Y0392D03*
X0441Y0371D03*
X0449Y0427D03*
X0457Y0407D03*
Y0251D03*
G54D28*
X062Y02D03*
Y051D03*
X02Y02D03*
Y051D03*
M02*