%FSTAX23Y23*%
%MOIN*%
%SFA1B1*%

%IPPOS*%
%ADD14R,0.057090X0.051180*%
%ADD15R,0.037640X0.065280*%
%ADD20R,0.047240X0.047240*%
%ADD21C,0.047240*%
%ADD30R,0.078740X0.078740*%
%ADD31C,0.055000*%
%ADD32C,0.118110*%
%ADD33C,0.059060*%
%ADD34R,0.059060X0.059060*%
%ADD35R,0.059060X0.059060*%
%ADD36C,0.100000*%
%ADD37C,0.060000*%
%LNpcb1-1*%
%LPD*%
G54D14*
X041Y03931D03*
Y03868D03*
X055Y03968D03*
Y04031D03*
G54D15*
X04304Y044D03*
X042D03*
X03995D03*
X041D03*
G54D20*
X04Y03621D03*
X057Y041D03*
G54D21*
X04Y037D03*
X057Y04021D03*
G54D30*
X043Y0381D03*
G54D31*
X043Y0371D03*
Y0361D03*
Y0351D03*
Y0341D03*
Y0331D03*
Y0321D03*
Y0311D03*
Y0301D03*
Y0291D03*
Y0281D03*
Y0271D03*
Y0261D03*
Y0251D03*
Y0241D03*
X053Y0381D03*
Y0371D03*
Y0361D03*
Y0351D03*
Y0341D03*
Y0331D03*
Y0321D03*
Y0311D03*
Y0301D03*
Y0291D03*
Y0281D03*
Y0271D03*
Y0261D03*
Y0251D03*
Y0241D03*
G54D32*
X04316Y02274D03*
X05281D03*
Y04123D03*
X04316D03*
G54D33*
X062Y035D03*
Y034D03*
X057Y024D03*
Y025D03*
Y026D03*
Y027D03*
Y034D03*
Y035D03*
Y036D03*
X048Y048D03*
X041D03*
X042D03*
X043D03*
X044D03*
X045D03*
X046D03*
X047D03*
X049D03*
X03639Y0196D03*
X061Y048D03*
X059D03*
X058D03*
X057D03*
X056D03*
X055D03*
X054D03*
X053D03*
X06D03*
X062Y027D03*
Y026D03*
Y025D03*
Y024D03*
G54D34*
X062Y033D03*
X057Y023D03*
Y033D03*
X062Y023D03*
G54D35*
X05Y048D03*
X03539Y0196D03*
X062Y048D03*
G54D36*
X026Y02D03*
Y05D03*
G54D37*
X0385Y033D03*
X033D03*
X0343D03*
X0385Y024D03*
X0372Y033D03*
X033Y024D03*
X034Y039D03*
X038D03*
X034Y0463D03*
X038D03*
M02*