%FSTAX23Y23*%
%MOIN*%
%SFA1B1*%

%IPPOS*%
%ADD10C,0.007870*%
%ADD40C,0.003940*%
%ADD41C,0.001970*%
%LNpcb1-1*%
%LPD*%
G54D10*
X04Y03772D02*
X03989Y03772D01*
X03979Y03771*
X0397Y03768*
X0396Y03765*
X03951Y03761*
X03942Y03756*
X03934Y03751*
X03926Y03745*
X03918Y03738*
X03912Y0373*
X03906Y03722*
X03901Y03713*
X03896Y03704*
X03893Y03695*
X0389Y03685*
X03888Y03675*
X03887Y03665*
Y03655*
X03888Y03645*
X0389Y03635*
X03893Y03625*
X03896Y03616*
X03901Y03607*
X03906Y03598*
X03912Y0359*
X03918Y03583*
X03926Y03576*
X03934Y03569*
X03942Y03564*
X03951Y03559*
X0396Y03555*
X0397Y03552*
X03979Y0355*
X03989Y03548*
X04Y03548*
X0401Y03548D01*
X0402Y0355*
X04029Y03552*
X04039Y03555*
X04048Y03559*
X04057Y03564*
X04065Y03569*
X04073Y03576*
X04081Y03583*
X04087Y0359*
X04093Y03598*
X04098Y03607*
X04103Y03616*
X04106Y03625*
X04109Y03635*
X04111Y03645*
X04112Y03655*
Y03665*
X04111Y03675*
X04109Y03685*
X04106Y03695*
X04103Y03704*
X04098Y03713*
X04093Y03722*
X04087Y0373*
X04081Y03738*
X04073Y03745*
X04065Y03751*
X04057Y03756*
X04048Y03761*
X04039Y03765*
X04029Y03768*
X0402Y03771*
X0401Y03772*
X04Y03772*
X057Y04172D02*
X05689Y04172D01*
X05679Y04171*
X0567Y04168*
X0566Y04165*
X05651Y04161*
X05642Y04156*
X05634Y04151*
X05626Y04145*
X05618Y04138*
X05612Y0413*
X05606Y04122*
X05601Y04113*
X05596Y04104*
X05593Y04095*
X0559Y04085*
X05588Y04075*
X05587Y04065*
Y04055*
X05588Y04045*
X0559Y04035*
X05593Y04025*
X05596Y04016*
X05601Y04007*
X05606Y03998*
X05612Y0399*
X05618Y03983*
X05626Y03976*
X05634Y03969*
X05642Y03964*
X05651Y03959*
X0566Y03955*
X0567Y03952*
X05679Y0395*
X05689Y03948*
X057Y03948*
X0571Y03948D01*
X0572Y0395*
X05729Y03952*
X05739Y03955*
X05748Y03959*
X05757Y03964*
X05765Y03969*
X05773Y03976*
X05781Y03983*
X05787Y0399*
X05793Y03998*
X05798Y04007*
X05803Y04016*
X05806Y04025*
X05809Y04035*
X05811Y04045*
X05812Y04055*
Y04065*
X05811Y04075*
X05809Y04085*
X05806Y04095*
X05803Y04104*
X05798Y04113*
X05793Y04122*
X05787Y0413*
X05781Y04138*
X05773Y04145*
X05765Y04151*
X05757Y04156*
X05748Y04161*
X05739Y04165*
X05729Y04168*
X0572Y04171*
X0571Y04172*
X057Y04172*
X04177Y04361D02*
X04327D01*
X04177D02*
Y04438D01*
X04327*
Y04361D02*
Y04438D01*
X04122Y04361D02*
Y04438D01*
X03972D02*
X04122D01*
X03972Y04361D02*
Y04438D01*
Y04361D02*
X04122D01*
G54D40*
X041Y0388D02*
Y03919D01*
X0408Y039D02*
X04119D01*
X0548Y04D02*
X05519D01*
X055Y0398D02*
Y04019D01*
G54D41*
X04227Y02186D02*
Y04211D01*
Y02186D02*
X0537D01*
Y04211*
X04227D02*
X0537D01*
X0406Y03966D02*
X04139D01*
X0406Y03833D02*
X04139D01*
Y03966*
X0406Y03833D02*
Y03966D01*
X0546Y03933D02*
Y04066D01*
X05539Y03933D02*
Y04066D01*
X0546Y03933D02*
X05539D01*
X0546Y04066D02*
X05539D01*
M02*