%FSTAX23Y23*%
%MOIN*%
%SFA1B1*%

%IPPOS*%
%ADD13C,0.010000*%
%ADD20R,0.047240X0.047240*%
%ADD21C,0.047240*%
%ADD29C,0.030000*%
%ADD30R,0.078740X0.078740*%
%ADD31C,0.055000*%
%ADD32C,0.118110*%
%ADD33C,0.059060*%
%ADD34R,0.059060X0.059060*%
%ADD35R,0.059060X0.059060*%
%ADD36C,0.100000*%
%ADD37C,0.060000*%
%ADD38C,0.050000*%
%ADD39C,0.196850*%
%LNpcb1-1*%
%LPD*%
G54D13*
X0523Y0341D02*
X0525Y0343D01*
Y0387*
X0464Y0475D02*
X0465Y0476D01*
X0464Y0412D02*
Y0475D01*
X0465Y0476D02*
Y0489D01*
X0468Y0492*
X0484Y0442D02*
X0495Y0453D01*
X0484Y0396D02*
Y0442D01*
X04907Y03942D02*
X0491Y0394D01*
X04907Y03942D02*
Y04212D01*
X04905Y04215D02*
X04907Y04212D01*
X053Y0241D02*
X05305D01*
X05545Y0265*
X0555*
X0449Y027D02*
X048D01*
X0438Y0281D02*
X0449Y027D01*
X043Y0281D02*
X0438D01*
X043Y0281D02*
X043Y0281D01*
X04797Y03267D02*
Y03283D01*
X048Y03285*
Y03729*
X0479Y0326D02*
X04797Y03267D01*
X0496Y0388D02*
X0499Y0391D01*
X0496Y0387D02*
Y0388D01*
X0499Y0391D02*
Y0443D01*
X0477Y0447D02*
X049Y046D01*
X0477Y0405D02*
Y0447D01*
X0472Y0448D02*
X0485Y0461D01*
X0472Y0398D02*
Y0448D01*
X0497Y0324D02*
Y0362D01*
X0485Y0316D02*
Y0365D01*
X0472Y0367D02*
X04725Y03665D01*
Y03295D02*
Y03665D01*
X0468Y0492D02*
X0518D01*
X046Y0347D02*
Y0365D01*
X0578Y0304D02*
X0587Y0313D01*
Y0325*
X053Y0251D02*
X0554Y0275D01*
Y0288*
X0575Y0376D02*
Y0475D01*
X058Y048*
X0554Y0355D02*
X0575Y0376D01*
X0558Y0468D02*
X057Y048D01*
X0558Y0389D02*
Y0468D01*
X0435Y0473D02*
X0437Y0471D01*
X0438*
X0435Y0473D02*
Y0493D01*
X0432Y0496D02*
X0435Y0493D01*
X0523Y0338D02*
Y0341D01*
Y0338D02*
X053Y0331D01*
X0529Y0322D02*
X053D01*
X0518Y0333D02*
Y0387D01*
Y0333D02*
X0529Y0322D01*
X053Y0321D02*
Y0322D01*
X0511Y03199D02*
X053Y0301D01*
X0511Y03199D02*
Y03859D01*
X0497Y0324D02*
X053Y0291D01*
X0491Y032D02*
Y0374D01*
Y032D02*
X053Y0281D01*
X05299Y0271D02*
X053D01*
X0485Y0316D02*
X05299Y0271D01*
X0479Y03739D02*
X048Y03729D01*
X0479Y03739D02*
Y0375D01*
X049Y046D02*
Y048D01*
X0485Y0461D02*
Y0484D01*
X04725Y03295D02*
X0473Y0329D01*
X0465Y0375D02*
X04655Y03745D01*
Y03415D02*
Y03745D01*
Y03415D02*
X0466Y0341D01*
X0453Y0334D02*
Y0375D01*
X043Y0311D02*
X0453Y0334D01*
X044Y048D02*
Y0496D01*
X0443Y0408D02*
Y0463D01*
X0427Y0512D02*
X0528D01*
X0403Y0488D02*
X0427Y0512D01*
X0403Y0377D02*
Y0488D01*
X04189Y0361D02*
X043D01*
X0403Y0377D02*
X04189Y0361D01*
X0418Y0456D02*
X0423Y0461D01*
X0418Y0378D02*
Y0456D01*
X0432Y0397D02*
X0443Y0408D01*
X0432Y0392D02*
Y0397D01*
X043Y0321D02*
X0441Y0332D01*
Y0371*
X0562Y0508D02*
X059Y048D01*
X0462Y0508D02*
X0562D01*
X0445Y0491D02*
X0462Y0508D01*
X0445Y0473D02*
Y0491D01*
Y0473D02*
X0449Y0469D01*
Y0427D02*
Y0469D01*
X0455Y04495D02*
X0457Y04475D01*
X0455Y04495D02*
Y0489D01*
X0457Y0407D02*
Y04475D01*
X0455Y0489D02*
X0467Y0501D01*
X052*
X054Y048D02*
Y0481D01*
X052Y0501D02*
X054Y0481D01*
X0518Y0492D02*
X053Y048D01*
X0493Y0487D02*
X05Y048D01*
X0488Y0487D02*
X0493D01*
X0485Y0484D02*
X0488Y0487D01*
X0619Y0259D02*
X062Y026D01*
X043Y0251D02*
X04569D01*
X0457Y0251*
X043Y0251D02*
X043Y0251D01*
X034Y04622D02*
Y0463D01*
X03398Y04621D02*
X034Y04622D01*
G54D20*
X04Y03621D03*
X057Y041D03*
G54D21*
X04Y037D03*
X057Y04021D03*
G54D29*
X026Y0442D02*
X0372Y033D01*
X026Y0442D02*
Y05D01*
X05107Y03927D02*
X05342D01*
X043Y0381D02*
X0499D01*
X05107Y03927*
X05342D02*
X0544Y0383D01*
Y0356D02*
X057Y033D01*
X0544Y0356D02*
Y0383D01*
X057Y027D02*
Y033D01*
X062*
X0581Y027D02*
X0592Y0259D01*
X057Y027D02*
X0581D01*
X0592Y0247D02*
Y0259D01*
X0609Y023D02*
X062D01*
X0592Y0247D02*
X0609Y023D01*
G54D30*
X043Y0381D03*
G54D31*
X043Y0371D03*
Y0361D03*
Y0351D03*
Y0341D03*
Y0331D03*
Y0321D03*
Y0311D03*
Y0301D03*
Y0291D03*
Y0281D03*
Y0271D03*
Y0261D03*
Y0251D03*
Y0241D03*
X053Y0381D03*
Y0371D03*
Y0361D03*
Y0351D03*
Y0341D03*
Y0331D03*
Y0321D03*
Y0311D03*
Y0301D03*
Y0291D03*
Y0281D03*
Y0271D03*
Y0261D03*
Y0251D03*
Y0241D03*
G54D32*
X04316Y02274D03*
X05281D03*
Y04123D03*
X04316D03*
G54D33*
X062Y035D03*
Y034D03*
X057Y024D03*
Y025D03*
Y026D03*
Y027D03*
Y034D03*
Y035D03*
Y036D03*
X048Y048D03*
X041D03*
X042D03*
X043D03*
X044D03*
X045D03*
X046D03*
X047D03*
X049D03*
X03639Y0196D03*
X061Y048D03*
X059D03*
X058D03*
X057D03*
X056D03*
X055D03*
X054D03*
X053D03*
X06D03*
X062Y027D03*
Y026D03*
Y025D03*
Y024D03*
G54D34*
X062Y033D03*
X057Y023D03*
Y033D03*
X062Y023D03*
G54D35*
X05Y048D03*
X03539Y0196D03*
X062Y048D03*
G54D36*
X026Y02D03*
Y05D03*
G54D37*
X0385Y033D03*
X033D03*
X0343D03*
X0385Y024D03*
X0372Y033D03*
X033Y024D03*
X034Y039D03*
X038D03*
X034Y0463D03*
X038D03*
G54D38*
X0525Y0387D03*
X0495Y0453D03*
X04905Y04215D03*
X0555Y0265D03*
X048Y027D03*
X0479Y0326D03*
X0496Y0387D03*
X0491Y0394D03*
X0484Y0396D03*
X0477Y0405D03*
X0472Y0398D03*
X0497Y0362D03*
X0485Y0365D03*
X0472Y0367D03*
X0464Y0412D03*
X046Y0365D03*
X0587Y0325D03*
X0578Y0304D03*
X0554Y0288D03*
Y0355D03*
X0558Y0389D03*
X0438Y0471D03*
X0432Y0496D03*
X0518Y0387D03*
X0511Y03859D03*
X0499Y0443D03*
X0491Y0374D03*
X0479Y0375D03*
X0473Y0329D03*
X0466Y0341D03*
X0465Y0375D03*
X046Y0347D03*
X0453Y0375D03*
X044Y0496D03*
X0443Y0463D03*
X0528Y0512D03*
X0423Y0461D03*
X0418Y0378D03*
X0432Y0392D03*
X0441Y0371D03*
X0449Y0427D03*
X0457Y0407D03*
Y0251D03*
G54D39*
X062Y02D03*
Y051D03*
X02Y02D03*
Y051D03*
M02*