%FSTAX23Y23*%
%MOIN*%
%SFA1B1*%

%IPPOS*%
%ADD12C,0.005000*%
%ADD42C,0.006670*%
%LNpcb1-1*%
%LPD*%
G54D12*
X043Y0379D02*
X0428Y0383D01*
X0432*
X043Y0379*
Y0369D02*
X0428Y0373D01*
X0432*
X043Y0369*
Y0359D02*
X0428Y0363D01*
X0432*
X043Y0359*
Y0349D02*
X0428Y0353D01*
X0432*
X043Y0349*
Y0339D02*
X0428Y0343D01*
X0432*
X043Y0339*
Y0329D02*
X0428Y0333D01*
X0432*
X043Y0329*
Y0319D02*
X0428Y0323D01*
X0432*
X043Y0319*
Y0309D02*
X0428Y0313D01*
X0432*
X043Y0309*
Y0299D02*
X0428Y0303D01*
X0432*
X043Y0299*
Y0289D02*
X0428Y0293D01*
X0432*
X043Y0289*
Y0279D02*
X0428Y0283D01*
X0432*
X043Y0279*
Y0269D02*
X0428Y0273D01*
X0432*
X043Y0269*
Y0259D02*
X0428Y0263D01*
X0432*
X043Y0259*
Y0249D02*
X0428Y0253D01*
X0432*
X043Y0249*
Y0239D02*
X0428Y0243D01*
X0432*
X043Y0239*
X053Y0379D02*
X0528Y0383D01*
X0532*
X053Y0379*
Y0369D02*
X0528Y0373D01*
X0532*
X053Y0369*
Y0359D02*
X0528Y0363D01*
X0532*
X053Y0359*
Y0349D02*
X0528Y0353D01*
X0532*
X053Y0349*
Y0339D02*
X0528Y0343D01*
X0532*
X053Y0339*
Y0329D02*
X0528Y0333D01*
X0532*
X053Y0329*
Y0319D02*
X0528Y0323D01*
X0532*
X053Y0319*
Y0309D02*
X0528Y0313D01*
X0532*
X053Y0309*
Y0299D02*
X0528Y0303D01*
X0532*
X053Y0299*
Y0289D02*
X0528Y0293D01*
X0532*
X053Y0289*
Y0279D02*
X0528Y0283D01*
X0532*
X053Y0279*
Y0269D02*
X0528Y0273D01*
X0532*
X053Y0269*
Y0259D02*
X0528Y0263D01*
X0532*
X053Y0259*
Y0249D02*
X0528Y0253D01*
X0532*
X053Y0249*
Y0239D02*
X0528Y0243D01*
X0532*
X053Y0239*
X04Y03601D02*
X0401Y03611D01*
X0402*
X0401Y03621*
X0402Y03631*
X0401*
X04Y03641*
X0399Y03631*
X0398*
X0399Y03621*
X0398Y03611*
X0399*
X04Y03601*
Y0368D02*
X0401Y0369D01*
X0402*
X0401Y037*
X0402Y0371*
X0401*
X04Y0372*
X0399Y0371*
X0398*
X0399Y037*
X0398Y0369*
X0399*
X04Y0368*
X0618Y0348D02*
Y0352D01*
X0622*
Y0348*
X0618*
Y0338D02*
Y0342D01*
X0622*
Y0338*
X0618*
Y0328D02*
Y0332D01*
X0622*
Y0328*
X0618*
X0568Y0228D02*
Y0232D01*
X0572*
Y0228*
X0568*
Y0238D02*
Y0242D01*
X0572*
Y0238*
X0568*
Y0248D02*
Y0252D01*
X0572*
Y0248*
X0568*
Y0258D02*
Y0262D01*
X0572*
Y0258*
X0568*
Y0268D02*
Y0272D01*
X0572*
Y0268*
X0568*
Y0328D02*
Y0332D01*
X0572*
Y0328*
X0568*
Y0338D02*
Y0342D01*
X0572*
Y0338*
X0568*
Y0348D02*
Y0352D01*
X0572*
Y0348*
X0568*
Y0358D02*
Y0362D01*
X0572*
Y0358*
X0568*
X0478Y0478D02*
Y0482D01*
X0482*
Y0478*
X0478*
X0408D02*
Y0482D01*
X0412*
Y0478*
X0408*
X0418D02*
Y0482D01*
X0422*
Y0478*
X0418*
X0428D02*
Y0482D01*
X0432*
Y0478*
X0428*
X0438D02*
Y0482D01*
X0442*
Y0478*
X0438*
X0448D02*
Y0482D01*
X0452*
Y0478*
X0448*
X0458D02*
Y0482D01*
X0462*
Y0478*
X0458*
X0468D02*
Y0482D01*
X0472*
Y0478*
X0468*
X0488D02*
Y0482D01*
X0492*
Y0478*
X0488*
X0498D02*
Y0482D01*
X0502*
Y0478*
X0498*
X03619Y0194D02*
Y0198D01*
X03659*
Y0194*
X03619*
X03519D02*
Y0198D01*
X03559*
Y0194*
X03519*
X0259Y0199D02*
Y0198D01*
X0261*
Y0199*
X0262*
Y0201*
X0261*
Y0202*
X0259*
Y0201*
X0258*
Y0199*
X0259*
Y0499D02*
Y0498D01*
X0261*
Y0499*
X0262*
Y0501*
X0261*
Y0502*
X0259*
Y0501*
X0258*
Y0499*
X0259*
X0383Y0328D02*
X0384Y033D01*
X0383Y0332*
X0385Y0331*
X0387Y0332*
X0386Y033*
X0387Y0328*
X0385Y0329*
X0383Y0328*
X0328D02*
X0329Y033D01*
X0328Y0332*
X033Y0331*
X0332Y0332*
X0331Y033*
X0332Y0328*
X033Y0329*
X0328Y0328*
X0341D02*
X0342Y033D01*
X0341Y0332*
X0343Y0331*
X0345Y0332*
X0344Y033*
X0345Y0328*
X0343Y0329*
X0341Y0328*
X0383Y0238D02*
X0384Y024D01*
X0383Y0242*
X0385Y0241*
X0387Y0242*
X0386Y024*
X0387Y0238*
X0385Y0239*
X0383Y0238*
X037Y0328D02*
X0371Y033D01*
X037Y0332*
X0372Y0331*
X0374Y0332*
X0373Y033*
X0374Y0328*
X0372Y0329*
X037Y0328*
X0328Y0238D02*
X0329Y024D01*
X0328Y0242*
X033Y0241*
X0332Y0242*
X0331Y024*
X0332Y0238*
X033Y0239*
X0328Y0238*
X0338Y0388D02*
X0339Y039D01*
X0338Y0392*
X034Y0391*
X0342Y0392*
X0341Y039*
X0342Y0388*
X034Y0389*
X0338Y0388*
X0378D02*
X0379Y039D01*
X0378Y0392*
X038Y0391*
X0382Y0392*
X0381Y039*
X0382Y0388*
X038Y0389*
X0378Y0388*
X0338Y0461D02*
X0339Y0463D01*
X0338Y0465*
X034Y0464*
X0342Y0465*
X0341Y0463*
X0342Y0461*
X034Y0462*
X0338Y0461*
X0378D02*
X0379Y0463D01*
X0378Y0465*
X038Y0464*
X0382Y0465*
X0381Y0463*
X0382Y0461*
X038Y0462*
X0378Y0461*
X0618Y0478D02*
Y0482D01*
X0622*
Y0478*
X0618*
X0608D02*
Y0482D01*
X0612*
Y0478*
X0608*
X0588D02*
Y0482D01*
X0592*
Y0478*
X0588*
X0578D02*
Y0482D01*
X0582*
Y0478*
X0578*
X0568D02*
Y0482D01*
X0572*
Y0478*
X0568*
X0558D02*
Y0482D01*
X0562*
Y0478*
X0558*
X0548D02*
Y0482D01*
X0552*
Y0478*
X0548*
X0538D02*
Y0482D01*
X0542*
Y0478*
X0538*
X0528D02*
Y0482D01*
X0532*
Y0478*
X0528*
X0598D02*
Y0482D01*
X0602*
Y0478*
X0598*
X0618Y0268D02*
Y0272D01*
X0622*
Y0268*
X0618*
Y0258D02*
Y0262D01*
X0622*
Y0258*
X0618*
Y0248D02*
Y0252D01*
X0622*
Y0248*
X0618*
Y0238D02*
Y0242D01*
X0622*
Y0238*
X0618*
Y0228D02*
Y0232D01*
X0622*
Y0228*
X0618*
X057Y04001D02*
X0571Y04011D01*
X0572*
X0571Y04021*
X0572Y04031*
X0571*
X057Y04041*
X0569Y04031*
X0568*
X0569Y04021*
X0568Y04011*
X0569*
X057Y04001*
Y0408D02*
X0571Y0409D01*
X0572*
X0571Y041*
X0572Y0411*
X0571*
X057Y0412*
X0569Y0411*
X0568*
X0569Y041*
X0568Y0409*
X0569*
X057Y0408*
X0523Y0385D02*
X0524D01*
X0525Y0386*
X0526Y0385*
X0527*
Y0386*
X0526Y0387*
X0527Y0388*
Y0389*
X0526*
X0525Y0388*
X0524Y0389*
X0523*
Y0388*
X0524Y0387*
X0523Y0386*
Y0385*
X0493Y0451D02*
X0494D01*
X0495Y0452*
X0496Y0451*
X0497*
Y0452*
X0496Y0453*
X0497Y0454*
Y0455*
X0496*
X0495Y0454*
X0494Y0455*
X0493*
Y0454*
X0494Y0453*
X0493Y0452*
Y0451*
X04885Y04195D02*
X04895D01*
X04905Y04205*
X04915Y04195*
X04925*
Y04205*
X04915Y04215*
X04925Y04225*
Y04235*
X04915*
X04905Y04225*
X04895Y04235*
X04885*
Y04225*
X04895Y04215*
X04885Y04205*
Y04195*
X0553Y0263D02*
X0554D01*
X0555Y0264*
X0556Y0263*
X0557*
Y0264*
X0556Y0265*
X0557Y0266*
Y0267*
X0556*
X0555Y0266*
X0554Y0267*
X0553*
Y0266*
X0554Y0265*
X0553Y0264*
Y0263*
X0478Y0268D02*
X0479D01*
X048Y0269*
X0481Y0268*
X0482*
Y0269*
X0481Y027*
X0482Y0271*
Y0272*
X0481*
X048Y0271*
X0479Y0272*
X0478*
Y0271*
X0479Y027*
X0478Y0269*
Y0268*
X0477Y0324D02*
X0478D01*
X0479Y0325*
X048Y0324*
X0481*
Y0325*
X048Y0326*
X0481Y0327*
Y0328*
X048*
X0479Y0327*
X0478Y0328*
X0477*
Y0327*
X0478Y0326*
X0477Y0325*
Y0324*
X0494Y0385D02*
X0495D01*
X0496Y0386*
X0497Y0385*
X0498*
Y0386*
X0497Y0387*
X0498Y0388*
Y0389*
X0497*
X0496Y0388*
X0495Y0389*
X0494*
Y0388*
X0495Y0387*
X0494Y0386*
Y0385*
X0489Y0392D02*
X049D01*
X0491Y0393*
X0492Y0392*
X0493*
Y0393*
X0492Y0394*
X0493Y0395*
Y0396*
X0492*
X0491Y0395*
X049Y0396*
X0489*
Y0395*
X049Y0394*
X0489Y0393*
Y0392*
X0482Y0394D02*
X0483D01*
X0484Y0395*
X0485Y0394*
X0486*
Y0395*
X0485Y0396*
X0486Y0397*
Y0398*
X0485*
X0484Y0397*
X0483Y0398*
X0482*
Y0397*
X0483Y0396*
X0482Y0395*
Y0394*
X0475Y0403D02*
X0476D01*
X0477Y0404*
X0478Y0403*
X0479*
Y0404*
X0478Y0405*
X0479Y0406*
Y0407*
X0478*
X0477Y0406*
X0476Y0407*
X0475*
Y0406*
X0476Y0405*
X0475Y0404*
Y0403*
X047Y0396D02*
X0471D01*
X0472Y0397*
X0473Y0396*
X0474*
Y0397*
X0473Y0398*
X0474Y0399*
Y04*
X0473*
X0472Y0399*
X0471Y04*
X047*
Y0399*
X0471Y0398*
X047Y0397*
Y0396*
X0495Y036D02*
X0496D01*
X0497Y0361*
X0498Y036*
X0499*
Y0361*
X0498Y0362*
X0499Y0363*
Y0364*
X0498*
X0497Y0363*
X0496Y0364*
X0495*
Y0363*
X0496Y0362*
X0495Y0361*
Y036*
X0483Y0363D02*
X0484D01*
X0485Y0364*
X0486Y0363*
X0487*
Y0364*
X0486Y0365*
X0487Y0366*
Y0367*
X0486*
X0485Y0366*
X0484Y0367*
X0483*
Y0366*
X0484Y0365*
X0483Y0364*
Y0363*
X047Y0365D02*
X0471D01*
X0472Y0366*
X0473Y0365*
X0474*
Y0366*
X0473Y0367*
X0474Y0368*
Y0369*
X0473*
X0472Y0368*
X0471Y0369*
X047*
Y0368*
X0471Y0367*
X047Y0366*
Y0365*
X0462Y041D02*
X0463D01*
X0464Y0411*
X0465Y041*
X0466*
Y0411*
X0465Y0412*
X0466Y0413*
Y0414*
X0465*
X0464Y0413*
X0463Y0414*
X0462*
Y0413*
X0463Y0412*
X0462Y0411*
Y041*
X0458Y0363D02*
X0459D01*
X046Y0364*
X0461Y0363*
X0462*
Y0364*
X0461Y0365*
X0462Y0366*
Y0367*
X0461*
X046Y0366*
X0459Y0367*
X0458*
Y0366*
X0459Y0365*
X0458Y0364*
Y0363*
X0585Y0323D02*
X0586D01*
X0587Y0324*
X0588Y0323*
X0589*
Y0324*
X0588Y0325*
X0589Y0326*
Y0327*
X0588*
X0587Y0326*
X0586Y0327*
X0585*
Y0326*
X0586Y0325*
X0585Y0324*
Y0323*
X0576Y0302D02*
X0577D01*
X0578Y0303*
X0579Y0302*
X058*
Y0303*
X0579Y0304*
X058Y0305*
Y0306*
X0579*
X0578Y0305*
X0577Y0306*
X0576*
Y0305*
X0577Y0304*
X0576Y0303*
Y0302*
X0552Y0286D02*
X0553D01*
X0554Y0287*
X0555Y0286*
X0556*
Y0287*
X0555Y0288*
X0556Y0289*
Y029*
X0555*
X0554Y0289*
X0553Y029*
X0552*
Y0289*
X0553Y0288*
X0552Y0287*
Y0286*
Y0353D02*
X0553D01*
X0554Y0354*
X0555Y0353*
X0556*
Y0354*
X0555Y0355*
X0556Y0356*
Y0357*
X0555*
X0554Y0356*
X0553Y0357*
X0552*
Y0356*
X0553Y0355*
X0552Y0354*
Y0353*
X0556Y0387D02*
X0557D01*
X0558Y0388*
X0559Y0387*
X056*
Y0388*
X0559Y0389*
X056Y039*
Y0391*
X0559*
X0558Y039*
X0557Y0391*
X0556*
Y039*
X0557Y0389*
X0556Y0388*
Y0387*
X0436Y0469D02*
X0437D01*
X0438Y047*
X0439Y0469*
X044*
Y047*
X0439Y0471*
X044Y0472*
Y0473*
X0439*
X0438Y0472*
X0437Y0473*
X0436*
Y0472*
X0437Y0471*
X0436Y047*
Y0469*
X043Y0494D02*
X0431D01*
X0432Y0495*
X0433Y0494*
X0434*
Y0495*
X0433Y0496*
X0434Y0497*
Y0498*
X0433*
X0432Y0497*
X0431Y0498*
X043*
Y0497*
X0431Y0496*
X043Y0495*
Y0494*
X0516Y0385D02*
X0517D01*
X0518Y0386*
X0519Y0385*
X052*
Y0386*
X0519Y0387*
X052Y0388*
Y0389*
X0519*
X0518Y0388*
X0517Y0389*
X0516*
Y0388*
X0517Y0387*
X0516Y0386*
Y0385*
X0509Y03839D02*
X051D01*
X0511Y03849*
X0512Y03839*
X0513*
Y03849*
X0512Y03859*
X0513Y03869*
Y03879*
X0512*
X0511Y03869*
X051Y03879*
X0509*
Y03869*
X051Y03859*
X0509Y03849*
Y03839*
X0497Y0441D02*
X0498D01*
X0499Y0442*
X05Y0441*
X0501*
Y0442*
X05Y0443*
X0501Y0444*
Y0445*
X05*
X0499Y0444*
X0498Y0445*
X0497*
Y0444*
X0498Y0443*
X0497Y0442*
Y0441*
X0489Y0372D02*
X049D01*
X0491Y0373*
X0492Y0372*
X0493*
Y0373*
X0492Y0374*
X0493Y0375*
Y0376*
X0492*
X0491Y0375*
X049Y0376*
X0489*
Y0375*
X049Y0374*
X0489Y0373*
Y0372*
X0477Y0373D02*
X0478D01*
X0479Y0374*
X048Y0373*
X0481*
Y0374*
X048Y0375*
X0481Y0376*
Y0377*
X048*
X0479Y0376*
X0478Y0377*
X0477*
Y0376*
X0478Y0375*
X0477Y0374*
Y0373*
X0471Y0327D02*
X0472D01*
X0473Y0328*
X0474Y0327*
X0475*
Y0328*
X0474Y0329*
X0475Y033*
Y0331*
X0474*
X0473Y033*
X0472Y0331*
X0471*
Y033*
X0472Y0329*
X0471Y0328*
Y0327*
X0464Y0339D02*
X0465D01*
X0466Y034*
X0467Y0339*
X0468*
Y034*
X0467Y0341*
X0468Y0342*
Y0343*
X0467*
X0466Y0342*
X0465Y0343*
X0464*
Y0342*
X0465Y0341*
X0464Y034*
Y0339*
X0463Y0373D02*
X0464D01*
X0465Y0374*
X0466Y0373*
X0467*
Y0374*
X0466Y0375*
X0467Y0376*
Y0377*
X0466*
X0465Y0376*
X0464Y0377*
X0463*
Y0376*
X0464Y0375*
X0463Y0374*
Y0373*
X0458Y0345D02*
X0459D01*
X046Y0346*
X0461Y0345*
X0462*
Y0346*
X0461Y0347*
X0462Y0348*
Y0349*
X0461*
X046Y0348*
X0459Y0349*
X0458*
Y0348*
X0459Y0347*
X0458Y0346*
Y0345*
X0451Y0373D02*
X0452D01*
X0453Y0374*
X0454Y0373*
X0455*
Y0374*
X0454Y0375*
X0455Y0376*
Y0377*
X0454*
X0453Y0376*
X0452Y0377*
X0451*
Y0376*
X0452Y0375*
X0451Y0374*
Y0373*
X0438Y0494D02*
X0439D01*
X044Y0495*
X0441Y0494*
X0442*
Y0495*
X0441Y0496*
X0442Y0497*
Y0498*
X0441*
X044Y0497*
X0439Y0498*
X0438*
Y0497*
X0439Y0496*
X0438Y0495*
Y0494*
X0441Y0461D02*
X0442D01*
X0443Y0462*
X0444Y0461*
X0445*
Y0462*
X0444Y0463*
X0445Y0464*
Y0465*
X0444*
X0443Y0464*
X0442Y0465*
X0441*
Y0464*
X0442Y0463*
X0441Y0462*
Y0461*
X0526Y051D02*
X0527D01*
X0528Y0511*
X0529Y051*
X053*
Y0511*
X0529Y0512*
X053Y0513*
Y0514*
X0529*
X0528Y0513*
X0527Y0514*
X0526*
Y0513*
X0527Y0512*
X0526Y0511*
Y051*
X0421Y0459D02*
X0422D01*
X0423Y046*
X0424Y0459*
X0425*
Y046*
X0424Y0461*
X0425Y0462*
Y0463*
X0424*
X0423Y0462*
X0422Y0463*
X0421*
Y0462*
X0422Y0461*
X0421Y046*
Y0459*
X0416Y0376D02*
X0417D01*
X0418Y0377*
X0419Y0376*
X042*
Y0377*
X0419Y0378*
X042Y0379*
Y038*
X0419*
X0418Y0379*
X0417Y038*
X0416*
Y0379*
X0417Y0378*
X0416Y0377*
Y0376*
X043Y039D02*
X0431D01*
X0432Y0391*
X0433Y039*
X0434*
Y0391*
X0433Y0392*
X0434Y0393*
Y0394*
X0433*
X0432Y0393*
X0431Y0394*
X043*
Y0393*
X0431Y0392*
X043Y0391*
Y039*
X0439Y0369D02*
X044D01*
X0441Y037*
X0442Y0369*
X0443*
Y037*
X0442Y0371*
X0443Y0372*
Y0373*
X0442*
X0441Y0372*
X044Y0373*
X0439*
Y0372*
X044Y0371*
X0439Y037*
Y0369*
X0447Y0425D02*
X0448D01*
X0449Y0426*
X045Y0425*
X0451*
Y0426*
X045Y0427*
X0451Y0428*
Y0429*
X045*
X0449Y0428*
X0448Y0429*
X0447*
Y0428*
X0448Y0427*
X0447Y0426*
Y0425*
X0455Y0405D02*
X0456D01*
X0457Y0406*
X0458Y0405*
X0459*
Y0406*
X0458Y0407*
X0459Y0408*
Y0409*
X0458*
X0457Y0408*
X0456Y0409*
X0455*
Y0408*
X0456Y0407*
X0455Y0406*
Y0405*
Y0249D02*
X0456D01*
X0457Y025*
X0458Y0249*
X0459*
Y025*
X0458Y0251*
X0459Y0252*
Y0253*
X0458*
X0457Y0252*
X0456Y0253*
X0455*
Y0252*
X0456Y0251*
X0455Y025*
Y0249*
X0618Y02D02*
X062Y0202D01*
X0622Y02*
X062Y0198*
X0618Y02*
Y051D02*
X062Y0512D01*
X0622Y051*
X062Y0508*
X0618Y051*
X0198Y02D02*
X02Y0202D01*
X0202Y02*
X02Y0198*
X0198Y02*
Y051D02*
X02Y0512D01*
X0202Y051*
X02Y0508*
X0198Y051*
G54D42*
X04336Y02274D02*
X04334Y02284D01*
X04327Y02291*
X04318Y02294*
X04309Y02293*
X04301Y02288*
X04297Y02279*
Y0227*
X04301Y02261*
X04309Y02256*
X04318Y02255*
X04327Y02258*
X04334Y02265*
X04336Y02274*
X05301D02*
X05299Y02284D01*
X05292Y02291*
X05283Y02294*
X05274Y02293*
X05266Y02288*
X05262Y02279*
Y0227*
X05266Y02261*
X05274Y02256*
X05283Y02255*
X05292Y02258*
X05299Y02265*
X05301Y02274*
Y04123D02*
X05299Y04132D01*
X05292Y04139*
X05283Y04143*
X05274Y04142*
X05266Y04136*
X05262Y04128*
Y04118*
X05266Y0411*
X05274Y04104*
X05283Y04103*
X05292Y04106*
X05299Y04114*
X05301Y04123*
X04336D02*
X04334Y04132D01*
X04327Y04139*
X04318Y04143*
X04309Y04142*
X04301Y04136*
X04297Y04128*
Y04118*
X04301Y0411*
X04309Y04104*
X04318Y04103*
X04327Y04106*
X04334Y04114*
X04336Y04123*
M02*