%FSTAX23Y23*%
%MOIN*%
%SFA1B1*%

%IPPOS*%
%ADD13C,0.010000*%
%ADD14R,0.057090X0.051180*%
%ADD15R,0.037640X0.065280*%
%ADD20R,0.047240X0.047240*%
%ADD21C,0.047240*%
%ADD29C,0.030000*%
%ADD30R,0.078740X0.078740*%
%ADD31C,0.055000*%
%ADD32C,0.118110*%
%ADD33C,0.059060*%
%ADD34R,0.059060X0.059060*%
%ADD35R,0.059060X0.059060*%
%ADD36C,0.100000*%
%ADD37C,0.060000*%
%ADD38C,0.050000*%
%ADD39C,0.196850*%
%LNpcb1-1*%
%LPD*%
G36*
X05521Y03579D02*
X05518Y03578D01*
X05511Y03571*
X05508Y03565*
X0539*
X05384Y03564*
X05379Y0356*
X05343Y03525*
X05334*
X0533Y03533*
X05323Y03539*
X05323Y03541*
X05324Y03544*
X0534*
X05345Y03545*
X0535Y03549*
X05386Y03584*
X0552*
X05521Y03579*
G37*
G36*
X05511Y03528D02*
X05518Y03521D01*
X05521Y0352*
X0552Y03515*
X0539*
X05384Y03514*
X0538Y03511*
X05376Y03515*
X05396Y03534*
X05508*
X05511Y03528*
G37*
G36*
X05668Y03475D02*
X05673Y0347D01*
X05671Y03465*
X0565*
X05644Y03464*
X05639Y0346*
X05603Y03425*
X05334*
X0533Y03433*
X05323Y03439*
X05323Y03441*
X05324Y03444*
X0535*
X05355Y03445*
X0536Y03449*
X05396Y03484*
X05663*
X05668Y03475*
G37*
G36*
X04754Y03259D02*
X04755Y03258D01*
Y03255*
X04756Y03248*
X04708Y032*
X04658*
X04656Y03204*
X04711Y0326*
X04716Y03257*
X04725Y03255*
X04734*
X04743Y03257*
X0475Y03261*
X04754Y03259*
G37*
G36*
X05337Y0319D02*
X05338Y03189D01*
X05339Y03189*
X0534Y03189*
X05495*
X05505Y03179*
X05503Y03175*
X05324*
X05323Y03178*
X05323Y0318*
X0533Y03186*
X0533Y03188*
X05332Y03189*
X05336Y0319*
X05337Y0319*
G37*
G36*
X05546Y03143D02*
X05549Y0314D01*
X0555Y03136*
X0555Y03135*
X05552Y03132*
X05554Y0313*
X05552Y03126*
X05333*
X0533Y03133*
X05323Y03139*
X05323Y03141*
X05324Y03144*
X05545*
X05546Y03143*
G37*
G36*
X05267Y03128D02*
X05265Y03124D01*
X05262Y03114*
Y03105*
X05265Y03095*
X05269Y03086*
X05276Y03079*
X05285Y03075*
X05295Y03072*
X05304*
X05314Y03075*
X05323Y03079*
X0533Y03086*
X05334Y03095*
X05334*
X05589*
Y02968*
X0559Y02964*
X05592Y0296*
X05593Y02954*
X05551Y02913*
X05544Y02915*
X05535*
X05526Y02912*
X05518Y02908*
X05511Y02901*
X05507Y02893*
X05505Y02884*
Y02875*
X05507Y02866*
X05511Y02858*
X05518Y02851*
X05526Y02847*
X05535Y02845*
X05544*
X05553Y02847*
X05561Y02851*
X05568Y02858*
X05572Y02866*
X05575Y02875*
Y02884*
X05573Y02891*
X05585Y02903*
X05589Y02901*
Y02728*
X0559Y02724*
X05592Y0272*
X05593Y02714*
X05561Y02683*
X05554Y02685*
X05545*
X05536Y02682*
X05528Y02678*
X05521Y02671*
X05517Y02663*
X05515Y02654*
Y02645*
X05517Y02636*
X05521Y02628*
X05528Y02621*
X05536Y02617*
X05545Y02615*
X05554*
X05563Y02617*
X05571Y02621*
X05578Y02628*
X05582Y02636*
X05584Y02644*
X05589Y02644*
Y02515*
X05406*
X0535Y0257*
X05345Y02574*
X0534Y02575*
X05324*
X05323Y02578*
X05323Y0258*
X0533Y02586*
X05334Y02595*
X05337Y02605*
Y02614*
X05334Y02624*
X0533Y02633*
X05323Y0264*
X05314Y02644*
X05304Y02647*
X05295*
X05286Y02645*
X05245Y02686*
Y03113*
X05263Y03131*
X05267Y03128*
G37*
G36*
X0475Y03192D02*
D01*
X04754Y0319*
X04754Y0319*
X04758Y03189*
X04851*
X04853Y03185*
X04639Y0297*
X04635Y02965*
X04634Y0296*
Y02757*
X04319Y02442*
X04314Y02444*
X04304Y02447*
X04295*
X04285Y02444*
X04276Y0244*
X04269Y02433*
X04265Y02424*
X04262Y02414*
Y02405*
X04265Y02395*
X04269Y02386*
X04276Y02379*
X04285Y02375*
X04295Y02372*
X04304*
X04314Y02375*
X04323Y02379*
X0433Y02386*
X04334Y02395*
X04337Y02405*
Y02414*
X04337Y02416*
X0466Y0274*
X04664Y02745*
X04665Y0275*
Y02953*
X04904Y03193*
X0491Y03192*
X04914Y0319*
X04918Y03189*
X05259*
X0526Y03189*
X05261Y03189*
X05262Y0319*
X05263Y0319*
X05267Y03189*
X05269Y03188*
X05269Y03186*
X05276Y0318*
X05276Y03178*
X05275Y03175*
X0527*
X05264Y03174*
X05259Y0317*
X05219Y0313*
X05215Y03125*
X05214Y0312*
Y0268*
X05215Y02674*
X05219Y02669*
X05264Y02623*
X05262Y02614*
Y02605*
X05265Y02595*
X05269Y02586*
X05276Y0258*
X05276Y02578*
X05275Y02575*
X05236*
X051Y0271*
X05095Y02714*
X0509Y02715*
X04831*
X04828Y02721*
X04821Y02728*
X04813Y02732*
X04804Y02735*
X04795*
X04786Y02732*
X04778Y02728*
X04771Y02721*
X04767Y02713*
X04765Y02704*
Y02695*
X04767Y02686*
X04771Y02678*
X04778Y02671*
X04786Y02667*
X04795Y02665*
X04804*
X04813Y02667*
X04821Y02671*
X04828Y02678*
X04831Y02684*
X05083*
X05219Y02549*
X05224Y02545*
X0523Y02544*
X05275*
X05276Y02541*
X05276Y02539*
X05269Y02533*
X05265Y02524*
X05262Y02514*
Y02505*
X05265Y02495*
X05269Y02486*
X05276Y0248*
X05276Y02478*
X05275Y02475*
X05216*
X0517Y0252*
X05165Y02524*
X0516Y02525*
X04601*
X04598Y02531*
X04591Y02538*
X04583Y02542*
X04574Y02545*
X04565*
X04556Y02542*
X04548Y02538*
X04541Y02531*
X04537Y02523*
X04535Y02514*
Y02505*
X04537Y02496*
X04541Y02488*
X04548Y02481*
X04556Y02477*
X04565Y02475*
X04574*
X04583Y02477*
X04591Y02481*
X04598Y02488*
X04601Y02494*
X05153*
X05199Y02449*
X05204Y02445*
X0521Y02444*
X05275*
X05276Y02441*
X05276Y02439*
X05269Y02433*
X05265Y02424*
X05262Y02414*
Y02405*
X05265Y02395*
X05269Y02386*
X05276Y02379*
X05285Y02375*
X05295Y02372*
X05304*
X05314Y02375*
X05323Y02379*
X0533Y02386*
X05334Y02395*
X05337Y02405*
Y02414*
X05334Y02424*
X05332Y02428*
X05336Y02431*
X05379Y02389*
X05384Y02385*
X0539Y02384*
X05589*
Y018*
X0401*
Y03095*
X04104Y03189*
X04259*
X0426Y03189*
X04261Y03189*
X04262Y0319*
X04263Y0319*
X04267Y03189*
X04269Y03188*
X04269Y03186*
X04276Y03179*
X04285Y03175*
X04295Y03172*
X04304*
X04314Y03175*
X04323Y03179*
X0433Y03186*
X0433Y03188*
X04332Y03189*
X04336Y0319*
X04337Y0319*
X04338Y03189*
X04339Y03189*
X0434Y03189*
X0445*
X04452Y03185*
X04312Y03045*
X04304Y03047*
X04295*
X04285Y03044*
X04276Y0304*
X04269Y03033*
X04265Y03024*
X04262Y03014*
Y03005*
X04265Y02995*
X04269Y02986*
X04276Y02979*
X04285Y02975*
X04295Y02972*
X04304*
X04314Y02975*
X04323Y02979*
X0433Y02986*
X04334Y02995*
X04337Y03005*
Y03014*
X04335Y03024*
X04503Y03193*
X0451Y03192*
X04513Y0319*
X04517Y03189*
X04537*
X04538Y03185*
X04409Y03055*
X04405Y0305*
X04404Y03044*
Y03026*
X0432Y02941*
X04314Y02944*
X04304Y02947*
X04295*
X04285Y02944*
X04276Y0294*
X04269Y02933*
X04265Y02924*
X04262Y02914*
Y02905*
X04265Y02895*
X04269Y02886*
X04276Y02879*
X04285Y02875*
X04295Y02872*
X04304*
X04314Y02875*
X04323Y02879*
X0433Y02886*
X04334Y02895*
X04337Y02905*
Y02914*
X04337Y02915*
X0443Y03009*
X04434Y03014*
X04435Y0302*
Y03038*
X0459Y03193*
X04595Y03192*
X04596Y03187*
X04489Y0308*
X04485Y03075*
X04484Y0307*
Y02906*
X0432Y02741*
X04314Y02744*
X04304Y02747*
X04295*
X04285Y02744*
X04276Y0274*
X04269Y02733*
X04265Y02724*
X04262Y02714*
Y02705*
X04265Y02695*
X04269Y02686*
X04276Y02679*
X04285Y02675*
X04295Y02672*
X04304*
X04314Y02675*
X04323Y02679*
X0433Y02686*
X04334Y02695*
X04337Y02705*
Y02714*
X04337Y02715*
X0451Y02889*
X04514Y02894*
X04515Y029*
Y03063*
X04644Y03193*
X0465Y03192*
X04654Y0319*
X04658Y03189*
X04691*
X04693Y03185*
X04569Y0306*
X04565Y03055*
X04564Y0305*
Y02886*
X0432Y02641*
X04314Y02644*
X04304Y02647*
X04295*
X04285Y02644*
X04276Y0264*
X04269Y02633*
X04265Y02624*
X04262Y02614*
Y02605*
X04265Y02595*
X04269Y02586*
X04276Y02579*
X04285Y02575*
X04295Y02572*
X04304*
X04314Y02575*
X04323Y02579*
X0433Y02586*
X04334Y02595*
X04337Y02605*
Y02614*
X04337Y02615*
X0459Y02869*
X04594Y02874*
X04595Y0288*
Y03043*
X04744Y03193*
X0475Y03192*
G37*
G36*
X064Y018D02*
X056D01*
Y02384*
X05663*
X05668Y02375*
X05675Y02368*
X05684Y02363*
X05694Y0236*
X05705*
X05715Y02363*
X05724Y02368*
X05731Y02375*
X05736Y02384*
X0595*
X05955Y02385*
X0596Y02389*
X06056Y02484*
X06163*
X06168Y02475*
X06175Y02468*
X06184Y02463*
X06194Y0246*
X06205*
X06215Y02463*
X06224Y02468*
X06231Y02475*
X06236Y02484*
X06239Y02494*
Y02505*
X06236Y02515*
X06231Y02524*
X06224Y02531*
X06215Y02536*
X06205Y02539*
X06194*
X06184Y02536*
X06175Y02531*
X06168Y02524*
X06163Y02515*
X0605*
X06044Y02514*
X06039Y0251*
X05943Y02415*
X05736*
X05731Y02424*
X05724Y02431*
X05715Y02436*
X05705Y02439*
X05694*
X05684Y02436*
X05675Y02431*
X05668Y02424*
X05663Y02415*
X056*
Y02484*
X05663*
X05668Y02475*
X05675Y02468*
X05684Y02463*
X05694Y0246*
X05705*
X05715Y02463*
X05724Y02468*
X05731Y02475*
X05736Y02484*
X0593*
X05935Y02485*
X0594Y02489*
X06036Y02584*
X06163*
X06168Y02575*
X06175Y02568*
X06184Y02563*
X06194Y0256*
X06205*
X06215Y02563*
X06224Y02568*
X06231Y02575*
X06236Y02584*
X06239Y02594*
Y02605*
X06236Y02615*
X06231Y02624*
X06224Y02631*
X06215Y02636*
X06205Y02639*
X06194*
X06184Y02636*
X06175Y02631*
X06168Y02624*
X06163Y02615*
X0603*
X06024Y02614*
X06019Y0261*
X05923Y02515*
X05736*
X05731Y02524*
X05724Y02531*
X05715Y02536*
X05705Y02539*
X05694*
X05684Y02536*
X05675Y02531*
X05668Y02524*
X05663Y02515*
X056*
Y02678*
X05766Y02844*
X0586*
X05865Y02845*
X0587Y02849*
X063Y03279*
X06304Y03284*
X06305Y0329*
Y04085*
X06304Y0409*
X063Y04095*
X06239Y04156*
Y04805*
X06239Y04806*
Y04839*
X0616*
Y0476*
X06209*
Y0415*
X0621Y04144*
X06213Y04139*
X06274Y04078*
Y03296*
X06244Y03265*
X06239Y03267*
Y03339*
X0616*
Y0326*
X06232*
X06234Y03255*
X05853Y02875*
X0576*
X05754Y02874*
X05749Y0287*
X05604Y02726*
X056Y02728*
Y02918*
X05706Y03024*
X05748*
X05751Y03018*
X05758Y03011*
X05766Y03007*
X05775Y03005*
X05784*
X05793Y03007*
X05801Y03011*
X05808Y03018*
X05812Y03026*
X05815Y03035*
Y03044*
X05812Y03053*
X05808Y03061*
X05801Y03068*
X05793Y03072*
X05784Y03075*
X05775*
X05766Y03072*
X05758Y03068*
X05751Y03061*
X05748Y03055*
X057*
X05694Y03054*
X05689Y0305*
X05604Y02966*
X056Y02968*
Y03095*
X0586*
X05866Y03096*
X05871Y031*
X06156Y03384*
X06163*
X06168Y03375*
X06175Y03368*
X06184Y03363*
X06194Y0336*
X06205*
X06215Y03363*
X06224Y03368*
X06231Y03375*
X06236Y03384*
X06239Y03394*
Y03405*
X06236Y03415*
X06231Y03424*
X06224Y03431*
X06215Y03436*
X06205Y03439*
X06194*
X06184Y03436*
X06175Y03431*
X06168Y03424*
X06163Y03415*
X0615*
X06144Y03414*
X06139Y0341*
X05854Y03126*
X05573*
X05559Y0314*
X05561Y03144*
X0569*
X05695Y03145*
X057Y03149*
X0585Y03299*
X05854Y03304*
X05855Y0331*
Y04573*
X0601Y04729*
X06014Y04734*
X06015Y0474*
Y04763*
X06024Y04768*
X06031Y04775*
X06036Y04784*
X06039Y04794*
Y04805*
X06036Y04815*
X06031Y04824*
X06024Y04831*
X06015Y04836*
X06005Y04839*
X05994*
X05984Y04836*
X05975Y04831*
X05968Y04824*
X05963Y04815*
X0596Y04805*
Y04794*
X05963Y04784*
X05968Y04775*
X05975Y04768*
X05984Y04763*
Y04746*
X05829Y0459*
X05825Y04585*
X05824Y0458*
Y03316*
X05683Y03175*
X05524*
X055Y032*
X0534*
X05337Y03203*
X05337Y03205*
Y03214*
X05334Y03224*
X0533Y03233*
X05323Y0324*
X05314Y03244*
X05304Y03247*
X05295*
X05285Y03244*
X05276Y0324*
X05269Y03233*
X05265Y03224*
X05262Y03214*
Y03205*
X05262Y03203*
X05259Y032*
X04918*
X04916Y03204*
X05156Y03444*
X05275*
X05276Y03441*
X05276Y03439*
X05269Y03433*
X05265Y03424*
X05262Y03414*
Y03405*
X05265Y03395*
X05269Y03386*
X05276Y03379*
X05285Y03375*
X05295Y03372*
X05304*
X05314Y03375*
X05323Y03379*
X0533Y03386*
X05334Y03394*
X0561*
X05615Y03395*
X0562Y03399*
X05656Y03434*
X05671*
X05673Y03429*
X05668Y03424*
X05663Y03415*
X0566Y03405*
Y03405*
X057*
X05739*
Y03405*
X05736Y03415*
X05731Y03424*
X05726Y03429*
X05728Y03434*
X0575*
X05755Y03435*
X0576Y03439*
X058Y03479*
X05804Y03484*
X05805Y0349*
Y0452*
X05804Y04525*
X058Y0453*
X05615Y04716*
Y04763*
X05624Y04768*
X05631Y04775*
X05636Y04784*
X05639Y04794*
Y04805*
X05636Y04815*
X05631Y04824*
X05624Y04831*
X05615Y04836*
X05605Y04839*
X05594*
X05584Y04836*
X05575Y04831*
X05568Y04824*
X05563Y04815*
X0556Y04805*
Y04794*
X05563Y04784*
X05568Y04775*
X05575Y04768*
X05584Y04763*
Y0471*
X05585Y04704*
X05589Y04699*
X05774Y04513*
Y03496*
X05743Y03465*
X05728*
X05726Y0347*
X05731Y03475*
X05736Y03484*
X05739Y03494*
Y03505*
X05736Y03515*
X05731Y03524*
X05724Y03531*
X05715Y03536*
X05705Y03539*
X05694*
X05684Y03536*
X05675Y03531*
X05668Y03524*
X05663Y03515*
X05559*
X05558Y0352*
X05561Y03521*
X05568Y03528*
X05572Y03536*
X05575Y03545*
Y03554*
X05572Y03563*
X05568Y03571*
X05561Y03578*
X05558Y03579*
X05559Y03584*
X05663*
X05668Y03575*
X05675Y03568*
X05684Y03563*
X05694Y0356*
X05705*
X05715Y03563*
X05724Y03568*
X05731Y03575*
X05736Y03584*
X05739Y03594*
Y03605*
X05736Y03615*
X05731Y03624*
X05724Y03631*
X05715Y03636*
X05705Y03639*
X05694*
X05684Y03636*
X05675Y03631*
X05668Y03624*
X05663Y03615*
X0538*
X05374Y03614*
X05369Y0361*
X05333Y03575*
X05324*
X05323Y03578*
X05323Y0358*
X0533Y03586*
X05334Y03595*
X05337Y03605*
Y03614*
X05335Y03623*
X05568Y03856*
X05575Y03855*
X05584*
X05593Y03857*
X05601Y03861*
X05608Y03868*
X05612Y03876*
X05615Y03885*
Y03894*
X05612Y03903*
X05608Y03911*
X05601Y03918*
X05593Y03922*
X05584Y03925*
X05575*
X05566Y03922*
X05558Y03918*
X05551Y03911*
X05547Y03903*
X05545Y03894*
Y03885*
X05546Y03878*
X05313Y03645*
X05304Y03647*
X05295*
X05285Y03644*
X05276Y0364*
X05269Y03633*
X05265Y03624*
X05262Y03614*
Y03605*
X05265Y03595*
X05269Y03586*
X05276Y0358*
X05276Y03578*
X05275Y03575*
X0458*
X04574Y03574*
X04569Y0357*
X04424Y03426*
X04333*
X0433Y03433*
X04323Y0344*
X04314Y03444*
X04304Y03447*
X04295*
X04285Y03444*
X04276Y0344*
X04269Y03433*
X04265Y03424*
X04262Y03414*
Y03405*
X04265Y03395*
X04269Y03386*
X04276Y03379*
X04285Y03375*
X04295Y03372*
X04304*
X04314Y03375*
X04323Y03379*
X0433Y03386*
X04334Y03395*
X04334*
X0443*
X04436Y03396*
X04441Y034*
X04586Y03544*
X05275*
X05276Y03541*
X05276Y03539*
X05269Y03533*
X05265Y03524*
X05262Y03514*
Y03505*
X05265Y03495*
X05269Y03486*
X05276Y0348*
X05276Y03478*
X05275Y03475*
X0515*
X05144Y03474*
X05139Y0347*
X04868Y032*
X04758*
X04756Y03204*
X04778Y03226*
X04785Y03225*
X04794*
X04803Y03227*
X04811Y03231*
X04818Y03238*
X04822Y03246*
X04825Y03255*
Y03264*
X04822Y03273*
X04818Y03281*
X04811Y03288*
X04803Y03292*
X04794Y03295*
X04785*
X04776Y03292*
X0477Y03288*
X04765Y0329*
X04765Y03291*
Y03294*
X04762Y03303*
X04758Y03311*
X04751Y03318*
X04743Y03322*
X04734Y03325*
X04725*
X04716Y03322*
X04708Y03318*
X04701Y03311*
X04697Y03303*
X04695Y03294*
Y03286*
X04608Y032*
X04603*
X04601Y03204*
X0467Y03273*
X04674Y03278*
X04675Y03284*
Y03378*
X04681Y03381*
X04688Y03388*
X04692Y03396*
X04695Y03405*
Y03414*
X04692Y03423*
X04688Y03431*
X04681Y03438*
X04673Y03442*
X04664Y03445*
X04655*
X04646Y03442*
X04638Y03438*
X04631Y03431*
X04627Y03423*
X04625Y03414*
Y03405*
X04627Y03396*
X04631Y03388*
X04638Y03381*
X04644Y03378*
Y0329*
X04553Y032*
X04517*
X04515Y03204*
X0461Y033*
X04614Y03304*
X04615Y0331*
Y03438*
X04621Y03441*
X04628Y03448*
X04632Y03456*
X04635Y03465*
Y03474*
X04632Y03483*
X04628Y03491*
X04621Y03498*
X04613Y03502*
X04604Y03505*
X04595*
X04586Y03502*
X04578Y03498*
X04571Y03491*
X04567Y03483*
X04565Y03474*
Y03465*
X04567Y03456*
X04571Y03448*
X04578Y03441*
X04584Y03438*
Y03317*
X04467Y032*
X0434*
X04337Y03203*
X04337Y03205*
Y03214*
X04334Y03224*
X0433Y03233*
X04323Y0324*
X04314Y03244*
X04304Y03247*
X04295*
X04285Y03244*
X04276Y0324*
X04269Y03233*
X04265Y03224*
X04262Y03214*
Y03205*
X04262Y03203*
X04259Y032*
X041*
X04Y031*
Y018*
X018*
Y053*
X064*
Y018*
G37*
G36*
X05389Y02489D02*
X05394Y02485D01*
X054Y02484*
X05404*
X05589*
Y02415*
X05396*
X0534Y0247*
X05335Y02474*
X0533Y02475*
X05324*
X05323Y02478*
X05323Y0248*
X0533Y02486*
X05334Y02495*
X05337Y02505*
Y02514*
X05334Y02524*
X0533Y02533*
X05323Y02539*
X05323Y02541*
X05324Y02544*
X05333*
X05389Y02489*
G37*
%LNpcb1-2*%
%LPC*%
G36*
X05304Y03047D02*
X05295D01*
X05285Y03044*
X05276Y0304*
X05269Y03033*
X05265Y03024*
X05262Y03014*
Y03005*
X05265Y02995*
X05269Y02986*
X05276Y02979*
X05285Y02975*
X05295Y02972*
X05304*
X05314Y02975*
X05323Y02979*
X0533Y02986*
X05334Y02995*
X05337Y03005*
Y03014*
X05334Y03024*
X0533Y03033*
X05323Y0304*
X05314Y03044*
X05304Y03047*
G37*
G36*
Y02947D02*
X05295D01*
X05285Y02944*
X05276Y0294*
X05269Y02933*
X05265Y02924*
X05262Y02914*
Y02905*
X05265Y02895*
X05269Y02886*
X05276Y02879*
X05285Y02875*
X05295Y02872*
X05304*
X05314Y02875*
X05323Y02879*
X0533Y02886*
X05334Y02895*
X05337Y02905*
Y02914*
X05334Y02924*
X0533Y02933*
X05323Y0294*
X05314Y02944*
X05304Y02947*
G37*
G36*
Y02847D02*
X05295D01*
X05285Y02844*
X05276Y0284*
X05269Y02833*
X05265Y02824*
X05262Y02814*
Y02805*
X05265Y02795*
X05269Y02786*
X05276Y02779*
X05285Y02775*
X05295Y02772*
X05304*
X05314Y02775*
X05323Y02779*
X0533Y02786*
X05334Y02795*
X05337Y02805*
Y02814*
X05334Y02824*
X0533Y02833*
X05323Y0284*
X05314Y02844*
X05304Y02847*
G37*
G36*
Y02747D02*
X05295D01*
X05285Y02744*
X05276Y0274*
X05269Y02733*
X05265Y02724*
X05262Y02714*
Y02705*
X05265Y02695*
X05269Y02686*
X05276Y02679*
X05285Y02675*
X05295Y02672*
X05304*
X05314Y02675*
X05323Y02679*
X0533Y02686*
X05334Y02695*
X05337Y02705*
Y02714*
X05334Y02724*
X0533Y02733*
X05323Y0274*
X05314Y02744*
X05304Y02747*
G37*
G36*
X04304Y03147D02*
X04295D01*
X04285Y03144*
X04276Y0314*
X04269Y03133*
X04265Y03124*
X04262Y03114*
Y03105*
X04265Y03095*
X04269Y03086*
X04276Y03079*
X04285Y03075*
X04295Y03072*
X04304*
X04314Y03075*
X04323Y03079*
X0433Y03086*
X04334Y03095*
X04337Y03105*
Y03114*
X04334Y03124*
X0433Y03133*
X04323Y0314*
X04314Y03144*
X04304Y03147*
G37*
G36*
Y02847D02*
X04295D01*
X04285Y02844*
X04276Y0284*
X04269Y02833*
X04265Y02824*
X04262Y02814*
Y02805*
X04265Y02795*
X04269Y02786*
X04276Y02779*
X04285Y02775*
X04295Y02772*
X04304*
X04314Y02775*
X04323Y02779*
X0433Y02786*
X04334Y02795*
X04337Y02805*
Y02814*
X04334Y02824*
X0433Y02833*
X04323Y0284*
X04314Y02844*
X04304Y02847*
G37*
G36*
Y02547D02*
X04295D01*
X04285Y02544*
X04276Y0254*
X04269Y02533*
X04265Y02524*
X04262Y02514*
Y02505*
X04265Y02495*
X04269Y02486*
X04276Y02479*
X04285Y02475*
X04295Y02472*
X04304*
X04314Y02475*
X04323Y02479*
X0433Y02486*
X04334Y02495*
X04337Y02505*
Y02514*
X04334Y02524*
X0433Y02533*
X04323Y0254*
X04314Y02544*
X04304Y02547*
G37*
G36*
X05288Y02344D02*
X05274D01*
X05261Y02341*
X05248Y02336*
X05237Y02328*
X05227Y02318*
X0522Y02307*
X05215Y02295*
X05212Y02281*
Y02268*
X05215Y02254*
X0522Y02242*
X05227Y0223*
X05237Y02221*
X05248Y02213*
X05261Y02208*
X05274Y02205*
X05288*
X05301Y02208*
X05314Y02213*
X05325Y02221*
X05335Y0223*
X05342Y02242*
X05347Y02254*
X0535Y02268*
Y02281*
X05347Y02295*
X05342Y02307*
X05335Y02318*
X05325Y02328*
X05314Y02336*
X05301Y02341*
X05288Y02344*
G37*
G36*
X04323D02*
X04309D01*
X04296Y02341*
X04283Y02336*
X04272Y02328*
X04262Y02318*
X04255Y02307*
X0425Y02295*
X04247Y02281*
Y02268*
X0425Y02254*
X04255Y02242*
X04262Y0223*
X04272Y02221*
X04283Y02213*
X04296Y02208*
X04309Y02205*
X04323*
X04336Y02208*
X04349Y02213*
X0436Y02221*
X0437Y0223*
X04377Y02242*
X04382Y02254*
X04385Y02268*
Y02281*
X04382Y02295*
X04377Y02307*
X0437Y02318*
X0436Y02328*
X04349Y02336*
X04336Y02341*
X04323Y02344*
G37*
G36*
X05145Y02461D02*
X04449D01*
X04445Y02461*
X04442Y02458*
X04439Y02455*
X04439Y02451*
Y02196*
X04439Y02192*
X04442Y02189*
X04445Y02186*
X04449Y02186*
X05145*
X05149Y02186*
X05152Y02189*
X05155Y02192*
X05155Y02196*
Y02451*
X05155Y02455*
X05152Y02458*
X05149Y02461*
X05145Y02461*
G37*
G36*
X06208Y05208D02*
X06191D01*
X06174Y05205*
X06158Y052*
X06143Y05192*
X06129Y05182*
X06117Y0517*
X06107Y05156*
X06099Y05141*
X06094Y05125*
X06091Y05108*
Y05091*
X06094Y05074*
X06099Y05058*
X06107Y05043*
X06117Y05029*
X06129Y05017*
X06143Y05007*
X06158Y04999*
X06174Y04994*
X06191Y04991*
X06208*
X06225Y04994*
X06241Y04999*
X06256Y05007*
X0627Y05017*
X06282Y05029*
X06292Y05043*
X063Y05058*
X06305Y05074*
X06308Y05091*
Y05108*
X06305Y05125*
X063Y05141*
X06292Y05156*
X06282Y0517*
X0627Y05182*
X06256Y05192*
X06241Y052*
X06225Y05205*
X06208Y05208*
G37*
G36*
X02008D02*
X01991D01*
X01974Y05205*
X01958Y052*
X01943Y05192*
X01929Y05182*
X01917Y0517*
X01907Y05156*
X01899Y05141*
X01894Y05125*
X01891Y05108*
Y05091*
X01894Y05074*
X01899Y05058*
X01907Y05043*
X01917Y05029*
X01929Y05017*
X01943Y05007*
X01958Y04999*
X01974Y04994*
X01991Y04991*
X02008*
X02025Y04994*
X02041Y04999*
X02056Y05007*
X0207Y05017*
X02082Y05029*
X02092Y05043*
X021Y05058*
X02105Y05074*
X02108Y05091*
Y05108*
X02105Y05125*
X021Y05141*
X02092Y05156*
X02082Y0517*
X0207Y05182*
X02056Y05192*
X02041Y052*
X02025Y05205*
X02008Y05208*
G37*
G36*
X02605Y0506D02*
X02594D01*
X02582Y05057*
X02571Y05053*
X02561Y05046*
X02553Y05038*
X02546Y05028*
X02542Y05017*
X0254Y05005*
Y04994*
X02542Y04982*
X02546Y04971*
X02553Y04961*
X02561Y04953*
X02571Y04946*
X02582Y04942*
X02594Y0494*
X02605*
X02617Y04942*
X02628Y04946*
X02638Y04953*
X02646Y04961*
X02653Y04971*
X02657Y04982*
X0266Y04994*
Y05005*
X02657Y05017*
X02653Y05028*
X02646Y05038*
X02638Y05046*
X02628Y05053*
X02617Y05057*
X02605Y0506*
G37*
G36*
X05905Y04839D02*
X05894D01*
X05884Y04836*
X05875Y04831*
X05868Y04824*
X05863Y04815*
X0586Y04805*
Y04794*
X05863Y04784*
X05868Y04775*
X05875Y04768*
X05884Y04763*
X05894Y0476*
X05905*
X05915Y04763*
X05924Y04768*
X05931Y04775*
X05936Y04784*
X05939Y04794*
Y04805*
X05936Y04815*
X05931Y04824*
X05924Y04831*
X05915Y04836*
X05905Y04839*
G37*
G36*
X05805D02*
X05794D01*
X05784Y04836*
X05775Y04831*
X05768Y04824*
X05763Y04815*
X0576Y04805*
Y04794*
X05763Y04784*
X05768Y04775*
X05775Y04768*
X05784Y04763*
X05794Y0476*
X05805*
X05815Y04763*
X05824Y04768*
X05831Y04775*
X05836Y04784*
X05839Y04794*
Y04805*
X05836Y04815*
X05831Y04824*
X05824Y04831*
X05815Y04836*
X05805Y04839*
G37*
G36*
X05705D02*
X05694D01*
X05684Y04836*
X05675Y04831*
X05668Y04824*
X05663Y04815*
X0566Y04805*
Y04794*
X05663Y04784*
X05668Y04775*
X05675Y04768*
X05684Y04763*
X05694Y0476*
X05705*
X05715Y04763*
X05724Y04768*
X05731Y04775*
X05736Y04784*
X05739Y04794*
Y04805*
X05736Y04815*
X05731Y04824*
X05724Y04831*
X05715Y04836*
X05705Y04839*
G37*
G36*
X05284Y05155D02*
X05275D01*
X05266Y05152*
X05258Y05148*
X05251Y05141*
X05247Y05133*
X05245Y05124*
Y05115*
X05247Y05106*
X05251Y05098*
X05258Y05091*
X05266Y05087*
X05275Y05085*
X05284*
X05291Y05086*
X05484Y04893*
Y04836*
X05475Y04831*
X05468Y04824*
X05463Y04815*
X0546Y04805*
Y04794*
X05463Y04784*
X05468Y04775*
X05475Y04768*
X05484Y04763*
X05494Y0476*
X05505*
X05515Y04763*
X05524Y04768*
X05531Y04775*
X05536Y04784*
X05539Y04794*
Y04805*
X05536Y04815*
X05531Y04824*
X05524Y04831*
X05515Y04836*
Y049*
X05514Y04905*
X0551Y0491*
X05313Y05108*
X05315Y05115*
Y05124*
X05312Y05133*
X05308Y05141*
X05301Y05148*
X05293Y05152*
X05284Y05155*
G37*
G36*
X05405Y04839D02*
X05394D01*
X05384Y04836*
X05375Y04831*
X05368Y04824*
X05363Y04815*
X0536Y04805*
Y04794*
X05363Y04784*
X05368Y04775*
X05375Y04768*
X05384Y04763*
X05394Y0476*
X05405*
X05415Y04763*
X05424Y04768*
X05431Y04775*
X05436Y04784*
X05439Y04794*
Y04805*
X05436Y04815*
X05431Y04824*
X05424Y04831*
X05415Y04836*
X05405Y04839*
G37*
G36*
X05305D02*
X05294D01*
X05284Y04836*
X05275Y04831*
X05268Y04824*
X05263Y04815*
X0526Y04805*
Y04794*
X05263Y04784*
X05268Y04775*
X05275Y04768*
X05284Y04763*
X05294Y0476*
X05305*
X05315Y04763*
X05324Y04768*
X05331Y04775*
X05336Y04784*
X05339Y04794*
Y04805*
X05336Y04815*
X05331Y04824*
X05324Y04831*
X05315Y04836*
X05305Y04839*
G37*
G36*
X04505D02*
X04494D01*
X04484Y04836*
X04475Y04831*
X04468Y04824*
X04463Y04815*
X0446Y04805*
Y04794*
X04463Y04784*
X04411Y04732*
X04406*
X04401Y04738*
X04393Y04742*
X04384Y04745*
X04375*
X04366Y04742*
X04358Y04738*
X04351Y04731*
X04347Y04723*
X04345Y04714*
Y04705*
X04347Y04696*
X04351Y04688*
X04358Y04681*
X04366Y04677*
X04375Y04675*
X04384*
X04393Y04677*
X04401Y04681*
X04408Y04688*
X04412Y04696*
X04414Y04702*
X04417*
X04423Y04703*
X04428Y04706*
X04484Y04763*
X04494Y0476*
X04505*
X04515Y04763*
X04524Y04768*
X04531Y04775*
X04536Y04784*
X04539Y04794*
Y04805*
X04536Y04815*
X04531Y04824*
X04524Y04831*
X04515Y04836*
X04505Y04839*
G37*
G36*
X04405D02*
X04394D01*
X04384Y04836*
X04375Y04831*
X04368Y04824*
X04363Y04815*
X0436Y04805*
Y04794*
X04363Y04784*
X04368Y04775*
X04375Y04768*
X04384Y04763*
X04394Y0476*
X04405*
X04415Y04763*
X04424Y04768*
X04431Y04775*
X04436Y04784*
X04439Y04794*
Y04805*
X04436Y04815*
X04431Y04824*
X04424Y04831*
X04415Y04836*
X04405Y04839*
G37*
G36*
X03805Y0467D02*
X03805D01*
Y04635*
X0384*
Y04635*
X03837Y04645*
X03832Y04654*
X03824Y04662*
X03815Y04667*
X03805Y0467*
G37*
G36*
X03795D02*
X03794D01*
X03784Y04667*
X03775Y04662*
X03767Y04654*
X03762Y04645*
X0376Y04635*
Y04635*
X03795*
Y0467*
G37*
G36*
X0384Y04625D02*
X03805D01*
Y0459*
X03805*
X03815Y04592*
X03824Y04597*
X03832Y04605*
X03837Y04614*
X0384Y04624*
Y04625*
G37*
G36*
X03795D02*
X0376D01*
Y04624*
X03762Y04614*
X03767Y04605*
X03775Y04597*
X03784Y04592*
X03794Y0459*
X03795*
Y04625*
G37*
G36*
X0497Y05025D02*
X0433D01*
X04324Y05024*
X04319Y0502*
X04309Y0501*
X04305Y05005*
X04304Y05*
Y04991*
X04298Y04988*
X04291Y04981*
X04287Y04973*
X04285Y04964*
Y04955*
X04287Y04946*
X04291Y04938*
X04298Y04931*
X04306Y04927*
X04315Y04925*
X04324*
X04333Y04927*
X04341Y04931*
X04348Y04938*
X04352Y04946*
X04355Y04955*
Y04964*
X04352Y04973*
X04348Y04981*
X04341Y04988*
X04338Y04989*
X04339Y04994*
X0438*
X04381Y04989*
X04378Y04988*
X04371Y04981*
X04367Y04973*
X04365Y04964*
Y04955*
X04367Y04946*
X04371Y04938*
X04378Y04931*
X04386Y04927*
X04395Y04925*
X04404*
X04413Y04927*
X04421Y04931*
X04428Y04938*
X04431Y04944*
X04943*
X05054Y04833*
Y04516*
X05001Y04463*
X04994Y04465*
X04985*
X04976Y04462*
X04968Y04458*
X04961Y04451*
X04957Y04443*
X04955Y04434*
Y04425*
X04957Y04416*
X04961Y04408*
X04968Y04401*
X04976Y04397*
X04985Y04395*
X04994*
X05003Y04397*
X05011Y04401*
X05018Y04408*
X05022Y04416*
X05025Y04425*
Y04434*
X05023Y04441*
X0508Y04499*
X05084Y04504*
X05085Y0451*
Y0484*
X05084Y04845*
X0508Y0485*
X0496Y0497*
X04955Y04974*
X0495Y04975*
X04431*
X04428Y04981*
X04421Y04988*
X04418Y04989*
X04419Y04994*
X04963*
X05174Y04783*
Y0403*
X05175Y04024*
X05179Y04019*
X05234Y03963*
Y03901*
X05228Y03898*
X05221Y03891*
X05217Y03883*
X05215Y03883*
X05212Y03883*
X05208Y03891*
X05201Y03898*
X05193Y03902*
X05184Y03905*
X05175*
X05169Y03903*
X05165Y03906*
Y0417*
X05164Y04176*
X0516Y04181*
X04865Y04476*
Y04771*
X0487Y04773*
X04875Y04768*
X04884Y04763*
X04894Y0476*
X04905*
X04915Y04763*
X04924Y04768*
X04929Y04773*
X04934Y04771*
Y04561*
X04928Y04558*
X04921Y04551*
X04917Y04543*
X04915Y04534*
Y04525*
X04917Y04516*
X04921Y04508*
X04928Y04501*
X04936Y04497*
X04945Y04495*
X04954*
X04963Y04497*
X04971Y04501*
X04978Y04508*
X04982Y04516*
X04985Y04525*
Y04534*
X04982Y04543*
X04978Y04551*
X04971Y04558*
X04965Y04561*
Y0476*
X05039*
Y04839*
X04965*
Y0487*
X04964Y04875*
X0496Y0488*
X0493Y0491*
X04925Y04914*
X0492Y04915*
X0419*
X04184Y04914*
X04179Y0491*
X04107Y04838*
X04105Y04839*
X04094*
X04084Y04836*
X04075Y04831*
X04068Y04824*
X04063Y04815*
X0406Y04805*
Y04794*
X04063Y04784*
X04068Y04775*
X04075Y04768*
X04084Y04763*
X04094Y0476*
X04105*
X04115Y04763*
X04124Y04768*
X04131Y04775*
X04136Y04784*
X04139Y04794*
Y04805*
X04136Y04815*
X04133Y04821*
X04196Y04884*
X04913*
X04934Y04863*
Y04828*
X04929Y04826*
X04924Y04831*
X04915Y04836*
X04905Y04839*
X04894*
X04884Y04836*
X04875Y04831*
X0487Y04826*
X04865Y04828*
Y0485*
X04864Y04855*
X0486Y0486*
X0485Y0487*
X04845Y04874*
X0484Y04875*
X0466*
X04654Y04874*
X04649Y0487*
X04615Y04836*
X04605Y04839*
X04594*
X04584Y04836*
X04575Y04831*
X04568Y04824*
X04563Y04815*
X0456Y04805*
Y04794*
X04563Y04784*
X04568Y04775*
X04575Y04768*
X04584Y04763*
X04594Y0476*
X04605*
X04615Y04763*
X04624Y04768*
X04631Y04775*
X04636Y04784*
X04639Y04794*
Y04805*
X04636Y04815*
X04666Y04844*
X04833*
X04834Y04843*
Y04828*
X04829Y04826*
X04824Y04831*
X04815Y04836*
X04805Y04839*
X04794*
X04784Y04836*
X04775Y04831*
X04768Y04824*
X04763Y04815*
X0476Y04805*
Y04794*
X04763Y04784*
X04768Y04775*
X04775Y04768*
X04784Y04763*
Y04666*
X04713Y04595*
X04449*
X04448Y046*
X04451Y04601*
X04458Y04608*
X04462Y04616*
X04465Y04625*
Y04634*
X04463Y04641*
X04506Y04684*
X0464*
X04645Y04685*
X0465Y04689*
X04706Y04744*
X04709Y04749*
X0471Y04755*
Y04761*
X04715Y04763*
X04724Y04768*
X04731Y04775*
X04736Y04784*
X04739Y04794*
Y04805*
X04736Y04815*
X04731Y04824*
X04724Y04831*
X04715Y04836*
X04705Y04839*
X04694*
X04684Y04836*
X04675Y04831*
X04668Y04824*
X04663Y04815*
X0466Y04805*
Y04794*
X04663Y04784*
X04668Y04775*
X04675Y04768*
X04679Y04766*
X04679Y04761*
X04633Y04715*
X045*
X04494Y04714*
X04489Y0471*
X04441Y04663*
X04434Y04665*
X04425*
X04416Y04662*
X04408Y04658*
X04401Y04651*
X04397Y04643*
X04395Y04634*
Y04625*
X04397Y04616*
X04401Y04608*
X04408Y04601*
X04411Y046*
X0441Y04595*
X04366*
X0434Y0462*
X04335Y04624*
X0433Y04625*
X04261*
X04258Y04631*
X04251Y04638*
X04243Y04642*
X04234Y04645*
X04225*
X04216Y04642*
X04208Y04638*
X04201Y04631*
X04197Y04623*
X04195Y04614*
Y04605*
X04197Y04596*
X04201Y04588*
X04208Y04581*
X04216Y04577*
X04225Y04575*
X04234*
X04243Y04577*
X04251Y04581*
X04258Y04588*
X04261Y04594*
X04323*
X04348Y0457*
X04346Y04565*
X04346Y04565*
X04218*
X04185Y04598*
Y04663*
X04284Y04763*
X04294Y0476*
X04305*
X04315Y04763*
X04324Y04768*
X04331Y04775*
X04336Y04784*
X04339Y04794*
Y04805*
X04336Y04815*
X04331Y04824*
X04324Y04831*
X04315Y04836*
X04305Y04839*
X04294*
X04284Y04836*
X04275Y04831*
X04268Y04824*
X04263Y04815*
X0426Y04805*
Y04794*
X04263Y04784*
X0416Y04681*
X04155Y04683*
X04155Y04683*
Y04733*
X04184Y04763*
X04194Y0476*
X04205*
X04215Y04763*
X04224Y04768*
X04231Y04775*
X04236Y04784*
X04239Y04794*
Y04805*
X04236Y04815*
X04231Y04824*
X04224Y04831*
X04215Y04836*
X04205Y04839*
X04194*
X04184Y04836*
X04175Y04831*
X04168Y04824*
X04163Y04815*
X0416Y04805*
Y04794*
X04163Y04784*
X04129Y0475*
X04125Y04745*
X04124Y0474*
Y0457*
X04125Y04564*
X04129Y04559*
X04158Y0453*
X04156Y04525*
X0371*
X03588Y04648*
X03579Y04653*
X0357Y04655*
X03431*
X03424Y04662*
X03415Y04667*
X03405Y0467*
X03394*
X03384Y04667*
X03375Y04662*
X03367Y04654*
X03362Y04645*
X0336Y04635*
Y04624*
X03362Y04614*
X03367Y04605*
X03375Y04597*
X03384Y04592*
X03394Y0459*
X03405*
X03415Y04592*
X03424Y04597*
X03431Y04604*
X03559*
X03681Y04481*
X0369Y04476*
X037Y04474*
X04459*
X05014Y03919*
Y0383*
X05016Y0382*
X05021Y03811*
X05051Y03781*
X0506Y03776*
X0507Y03774*
X05287*
X05295Y03772*
X05304*
X05314Y03775*
X05323Y03779*
X0533Y03786*
X05334Y03795*
X05335Y03798*
X05352*
X05362Y038*
X0537Y03805*
X05497Y03932*
X05538*
Y03943*
X05557*
X05567Y03944*
X05575Y0395*
X0562Y03995*
X05677*
X05679Y03994*
X05687Y03989*
X05695Y03987*
X05704*
X05712Y03989*
X0572Y03994*
X05726Y04*
X05731Y04008*
X05733Y04016*
Y04025*
X05731Y04034*
X05726Y04041*
X0572Y04048*
X05712Y04052*
X05704Y04054*
X05695*
X05687Y04052*
X05679Y04048*
X05677Y04046*
X0561*
X056Y04044*
X05592Y04039*
X05546Y03993*
X05538*
Y04026*
X05461*
Y03995*
Y03968*
X05341Y03849*
X05313*
X05303Y03847*
X05303Y03847*
X05295*
X05285Y03844*
X05276Y0384*
X05269Y03833*
X05265Y03825*
X05131*
X05129Y0383*
X05131Y03831*
X05138Y03838*
X05142Y03846*
X05144Y03851*
X05149Y03852*
X05151Y03848*
X05158Y03841*
X05166Y03837*
X05175Y03835*
X05184*
X05193Y03837*
X05201Y03841*
X05208Y03848*
X05212Y03856*
X05215Y03856*
X05217Y03856*
X05221Y03848*
X05228Y03841*
X05236Y03837*
X05245Y03835*
X05254*
X05263Y03837*
X05271Y03841*
X05278Y03848*
X05282Y03856*
X05285Y03865*
Y03874*
X05282Y03883*
X05278Y03891*
X05271Y03898*
X05265Y03901*
Y0397*
X05264Y03975*
X0526Y0398*
X05205Y04036*
Y0479*
X05204Y04795*
X052Y048*
X0498Y0502*
X04975Y05024*
X0497Y05025*
G37*
G36*
X04228Y04442D02*
X04171D01*
Y04415*
X04128*
Y04442*
X04071*
Y04357*
X04128*
Y04384*
X04171*
Y04357*
X04184*
Y0403*
X04185Y04024*
X04189Y04019*
X04249Y03959*
X04254Y03955*
X0426Y03954*
X043*
X04301Y03949*
X04298Y03948*
X04291Y03941*
X04287Y03933*
X04285Y03924*
Y03915*
X04287Y03906*
X04291Y03898*
X04298Y03891*
X04306Y03887*
X04315Y03885*
X04324*
X04331Y03886*
X04394Y03823*
Y03741*
X04388Y03738*
X04381Y03731*
X04377Y03723*
X04375Y03714*
Y03705*
X04377Y03696*
X04381Y03688*
X04388Y03681*
X04396Y03677*
X04405Y03675*
X04414*
X04423Y03677*
X04431Y03681*
X04438Y03688*
X04442Y03696*
X04445Y03705*
Y03714*
X04442Y03723*
X04438Y03731*
X04431Y03738*
X04425Y03741*
Y0383*
X04424Y03835*
X0442Y0384*
X04353Y03908*
X04355Y03915*
Y03924*
X04352Y03933*
X04348Y03941*
X04341Y03948*
X04341Y03948*
X04342Y03953*
X04344Y03953*
X04464Y03833*
Y03596*
X04394Y03526*
X04333*
X0433Y03533*
X04323Y0354*
X04314Y03544*
X04304Y03547*
X04295*
X04285Y03544*
X04276Y0354*
X04269Y03533*
X04265Y03524*
X04262Y03514*
Y03505*
X04265Y03495*
X04269Y03486*
X04276Y03479*
X04285Y03475*
X04295Y03472*
X04304*
X04314Y03475*
X04323Y03479*
X0433Y03486*
X04334Y03495*
X04334*
X044*
X04406Y03496*
X04411Y035*
X0449Y03579*
X04494Y03584*
X04495Y0359*
Y0373*
X045Y03731*
X04501Y03728*
X04508Y03721*
X04516Y03717*
X04525Y03715*
X04534*
X04543Y03717*
X04551Y03721*
X04558Y03728*
X04562Y03736*
X04565Y03745*
Y03754*
X04562Y03763*
X04558Y03771*
X04551Y03778*
X04545Y03781*
Y04038*
X0455Y0404*
X04556Y04037*
X04565Y04035*
X04574*
X0458Y04036*
X04584Y04033*
Y03681*
X04578Y03678*
X04571Y03671*
X04567Y03663*
X04565Y03654*
Y03645*
X04567Y03636*
X04571Y03628*
X04578Y03621*
X04586Y03617*
X04595Y03615*
X04604*
X04613Y03617*
X04621Y03621*
X04628Y03628*
X04632Y03636*
X04635Y03645*
Y03654*
X04632Y03663*
X04628Y03671*
X04621Y03678*
X04615Y03681*
Y0373*
X0462Y03731*
X04621Y03728*
X04628Y03721*
X04636Y03717*
X04645Y03715*
X04654*
X04663Y03717*
X04671Y03721*
X04678Y03728*
X04682Y03736*
X04685Y03745*
Y03754*
X04682Y03763*
X04678Y03771*
X04671Y03778*
X04665Y03781*
Y04024*
X04664Y04029*
X0466Y04034*
X04655Y0404*
Y04088*
X04661Y04091*
X04668Y04098*
X04672Y04106*
X04675Y04115*
Y04124*
X04672Y04133*
X04668Y04141*
X04661Y04148*
X04653Y04152*
X04644Y04155*
X04635*
X04626Y04152*
X04618Y04148*
X04611Y04141*
X04607Y04133*
X04605Y04124*
Y04115*
X04607Y04106*
X04611Y04098*
X04618Y04091*
X04624Y04088*
Y04034*
X04625Y04028*
X04629Y04023*
X04634Y04017*
Y03781*
X04628Y03778*
X04621Y03771*
X0462Y03768*
X04615Y03769*
Y0404*
X04614Y04045*
X0461Y0405*
X04603Y04058*
X04605Y04065*
Y04074*
X04602Y04083*
X04598Y04091*
X04591Y04098*
X04583Y04102*
X04574Y04105*
X04565*
X04556Y04102*
X0455Y04099*
X04545Y04101*
Y0423*
X04544Y04235*
X0454Y0424*
X04523Y04258*
X04525Y04265*
Y04274*
X04522Y04283*
X04518Y04291*
X04511Y04298*
X04503Y04302*
X04494Y04305*
X04485*
X04476Y04302*
X04468Y04298*
X04461Y04291*
X04457Y04283*
X04455Y04274*
Y04265*
X04457Y04256*
X04461Y04248*
X04468Y04241*
X04476Y04237*
X04485Y04235*
X04494*
X04501Y04236*
X04514Y04223*
Y03781*
X04508Y03778*
X04501Y03771*
X045Y03768*
X04495Y03769*
Y0384*
X04494Y03845*
X0449Y0385*
X0436Y0398*
X04355Y03984*
X0435Y03985*
X04266*
X04215Y04036*
Y04357*
X04228*
Y04442*
G37*
G36*
X04333D02*
X04309D01*
Y04405*
X04333*
Y04442*
G37*
G36*
X04299D02*
X04275D01*
Y04405*
X04299*
Y04442*
G37*
G36*
X04333Y04395D02*
X04309D01*
Y04357*
X04333*
Y04395*
G37*
G36*
X04299D02*
X04275D01*
Y04357*
X04299*
Y04395*
G37*
G36*
X05733Y04133D02*
X05705D01*
Y04105*
X05733*
Y04133*
G37*
G36*
X05695D02*
X05666D01*
Y04105*
X05695*
Y04133*
G37*
G36*
X05733Y04095D02*
X05705D01*
Y04066*
X05733*
Y04095*
G37*
G36*
X05695D02*
X05666D01*
Y04066*
X05695*
Y04095*
G37*
G36*
X05288Y04192D02*
X05274D01*
X05261Y04189*
X05248Y04184*
X05237Y04177*
X05227Y04167*
X0522Y04156*
X05215Y04143*
X05212Y0413*
Y04116*
X05215Y04103*
X0522Y0409*
X05227Y04079*
X05237Y04069*
X05248Y04062*
X05261Y04056*
X05274Y04054*
X05288*
X05301Y04056*
X05314Y04062*
X05325Y04069*
X05335Y04079*
X05342Y0409*
X05347Y04103*
X0535Y04116*
Y0413*
X05347Y04143*
X05342Y04156*
X05335Y04167*
X05325Y04177*
X05314Y04184*
X05301Y04189*
X05288Y04192*
G37*
G36*
X04323D02*
X04309D01*
X04296Y04189*
X04283Y04184*
X04272Y04177*
X04262Y04167*
X04255Y04156*
X0425Y04143*
X04247Y0413*
Y04116*
X0425Y04103*
X04255Y0409*
X04262Y04079*
X04272Y04069*
X04283Y04062*
X04296Y04056*
X04309Y04054*
X04323*
X04336Y04056*
X04349Y04062*
X0436Y04069*
X0437Y04079*
X04377Y0409*
X04382Y04103*
X04385Y04116*
Y0413*
X04382Y04143*
X04377Y04156*
X0437Y04167*
X0436Y04177*
X04349Y04184*
X04336Y04189*
X04323Y04192*
G37*
G36*
X05538Y04067D02*
X05505D01*
Y04036*
X05538*
Y04067*
G37*
G36*
X05495D02*
X05461D01*
Y04036*
X05495*
Y04067*
G37*
G36*
X04138Y03967D02*
X04105D01*
Y03936*
X04138*
Y03967*
G37*
G36*
X04095D02*
X04061D01*
Y03936*
X04095*
Y03967*
G37*
G36*
X04138Y03926D02*
X04061D01*
Y03895*
Y03832*
X04074*
Y0381*
X03997Y03733*
X03995*
X03987Y03731*
X03979Y03726*
X03973Y0372*
X03968Y03712*
X03966Y03704*
Y03695*
X03968Y03687*
X03973Y03679*
X03979Y03673*
X03987Y03668*
X03995Y03666*
X04004*
X04012Y03668*
X0402Y03673*
X04026Y03679*
X04031Y03687*
X04033Y03695*
Y03697*
X04118Y03781*
X04123Y0379*
X04125Y038*
Y03832*
X04138*
Y03843*
X04231*
X0425Y03824*
Y0376*
X04349*
Y03859*
X04287*
X0426Y03886*
X04252Y03892*
X04242Y03893*
X04138*
Y03895*
Y03926*
G37*
G36*
X05305Y03747D02*
Y03715D01*
X05337*
X05334Y03724*
X0533Y03733*
X05323Y0374*
X05314Y03744*
X05305Y03747*
G37*
G36*
X05295D02*
X05285Y03744D01*
X05276Y0374*
X05269Y03733*
X05265Y03724*
X05262Y03715*
X05295*
Y03747*
G37*
G36*
X04305D02*
Y03715D01*
X04337*
X04334Y03724*
X0433Y03733*
X04323Y0374*
X04314Y03744*
X04305Y03747*
G37*
G36*
X04295D02*
X04285Y03744D01*
X04276Y0374*
X04269Y03733*
X04265Y03724*
X04262Y03715*
X04295*
Y03747*
G37*
G36*
X05337Y03705D02*
X05305D01*
Y03672*
X05314Y03675*
X05323Y03679*
X0533Y03686*
X05334Y03695*
X05337Y03705*
G37*
G36*
X05295D02*
X05262D01*
X05265Y03695*
X05269Y03686*
X05276Y03679*
X05285Y03675*
X05295Y03672*
Y03705*
G37*
G36*
X04337D02*
X04305D01*
Y03672*
X04314Y03675*
X04323Y03679*
X0433Y03686*
X04334Y03695*
X04337Y03705*
G37*
G36*
X04295D02*
X04262D01*
X04265Y03695*
X04269Y03686*
X04276Y03679*
X04285Y03675*
X04295Y03672*
Y03705*
G37*
G36*
X04724Y04015D02*
X04715D01*
X04706Y04012*
X04698Y04008*
X04691Y04001*
X04687Y03993*
X04685Y03984*
Y03975*
X04687Y03966*
X04691Y03958*
X04698Y03951*
X04704Y03948*
Y03701*
X04698Y03698*
X04691Y03691*
X04687Y03683*
X04685Y03674*
Y03665*
X04687Y03656*
X04691Y03648*
X04698Y03641*
X04706Y03637*
X04715Y03635*
X04724*
X04733Y03637*
X04741Y03641*
X04748Y03648*
X04752Y03656*
X04755Y03665*
Y03674*
X04752Y03683*
X04748Y03691*
X04741Y03698*
X04735Y03701*
Y03948*
X04741Y03951*
X04748Y03958*
X04752Y03966*
X04755Y03975*
Y03984*
X04752Y03993*
X04748Y04001*
X04741Y04008*
X04733Y04012*
X04724Y04015*
G37*
G36*
X04033Y03654D02*
X04005D01*
Y03626*
X04033*
Y03654*
G37*
G36*
X03995D02*
X03966D01*
Y03626*
X03995*
Y03654*
G37*
G36*
X04033Y03616D02*
X04005D01*
Y03587*
X04033*
Y03616*
G37*
G36*
X03995D02*
X03966D01*
Y03587*
X03995*
Y03616*
G37*
G36*
X04774Y04085D02*
X04765D01*
X04756Y04082*
X04748Y04078*
X04741Y04071*
X04737Y04063*
X04735Y04054*
Y04045*
X04737Y04036*
X04741Y04028*
X04748Y04021*
X04756Y04017*
X04765Y04015*
X04772*
X04774Y04012*
Y03781*
X04768Y03778*
X04761Y03771*
X04757Y03763*
X04755Y03754*
Y03745*
X04757Y03736*
X04761Y03728*
X04768Y03721*
X04776Y03717*
X04785Y03715*
X04794*
X04803Y03717*
X04811Y03721*
X04818Y03728*
X04822Y03736*
X04824Y03744*
X04829Y03743*
Y03678*
X04828Y03678*
X04821Y03671*
X04817Y03663*
X04815Y03654*
Y03645*
X04817Y03636*
X04821Y03628*
X04828Y03621*
X04836Y03617*
X04845Y03615*
X04854*
X04863Y03617*
X04871Y03621*
X04878Y03628*
X04882Y03636*
X04885Y03645*
Y03654*
X04882Y03663*
X04878Y03671*
X04871Y03678*
X04863Y03682*
X0486Y03683*
Y03931*
X04861Y03931*
X04868Y03938*
X0487Y03941*
X04875Y0394*
Y03935*
X04877Y03926*
X04881Y03918*
X04888Y03911*
X04894Y03908*
Y03771*
X04888Y03768*
X04881Y03761*
X04877Y03753*
X04875Y03744*
Y03735*
X04877Y03726*
X04881Y03718*
X04888Y03711*
X04896Y03707*
X04905Y03705*
X04914*
X04923Y03707*
X04931Y03711*
X04938Y03718*
X04942Y03726*
X04944Y03734*
X04949Y03733*
Y03648*
X04948Y03648*
X04941Y03641*
X04937Y03633*
X04935Y03624*
Y03615*
X04937Y03606*
X04941Y03598*
X04948Y03591*
X04956Y03587*
X04965Y03585*
X04974*
X04983Y03587*
X04991Y03591*
X04998Y03598*
X05002Y03606*
X05005Y03615*
Y03624*
X05002Y03633*
X04998Y03641*
X04991Y03648*
X04983Y03652*
X0498Y03653*
Y03841*
X04981Y03841*
X04988Y03848*
X04992Y03856*
X04995Y03865*
Y03874*
X04992Y03883*
X04988Y03891*
X04981Y03898*
X04973Y03902*
X04964Y03905*
X04955*
X04946Y03902*
X04938Y03898*
X04931Y03891*
X0493Y03888*
X04925Y03889*
Y03908*
X04931Y03911*
X04938Y03918*
X04942Y03926*
X04945Y03935*
Y03944*
X04942Y03953*
X04938Y03961*
X04931Y03968*
X04923Y03972*
X04914Y03975*
X04905*
X04896Y03972*
X04888Y03968*
X04881Y03961*
X0488Y03958*
X04875Y03959*
Y03964*
X04872Y03973*
X04868Y03981*
X04861Y03988*
X04853Y03992*
X04844Y03995*
X04835*
X04826Y03992*
X04818Y03988*
X04811Y03981*
X0481Y03978*
X04805Y03979*
Y04019*
X04804Y04025*
X048Y04029*
X04799Y04031*
X04802Y04036*
X04805Y04045*
Y04054*
X04802Y04063*
X04798Y04071*
X04791Y04078*
X04783Y04082*
X04774Y04085*
G37*
G36*
X04304Y03647D02*
X04295D01*
X04285Y03644*
X04276Y0364*
X04269Y03633*
X04265Y03624*
X04262Y03614*
Y03605*
X04265Y03595*
X04269Y03586*
X04276Y03579*
X04285Y03575*
X04295Y03572*
X04304*
X04314Y03575*
X04323Y03579*
X0433Y03586*
X04334Y03595*
X04337Y03605*
Y03614*
X04334Y03624*
X0433Y03633*
X04323Y0364*
X04314Y03644*
X04304Y03647*
G37*
G36*
X06205Y03539D02*
X06205D01*
Y03505*
X06239*
Y03505*
X06236Y03515*
X06231Y03524*
X06224Y03531*
X06215Y03536*
X06205Y03539*
G37*
G36*
X06195D02*
X06194D01*
X06184Y03536*
X06175Y03531*
X06168Y03524*
X06163Y03515*
X0616Y03505*
Y03505*
X06195*
Y03539*
G37*
G36*
X06239Y03495D02*
X06205D01*
Y0346*
X06205*
X06215Y03463*
X06224Y03468*
X06231Y03475*
X06236Y03484*
X06239Y03494*
Y03495*
G37*
G36*
X06195D02*
X0616D01*
Y03494*
X06163Y03484*
X06168Y03475*
X06175Y03468*
X06184Y03463*
X06194Y0346*
X06195*
Y03495*
G37*
G36*
X05739Y03395D02*
X05705D01*
Y0336*
X05705*
X05715Y03363*
X05724Y03368*
X05731Y03375*
X05736Y03384*
X05739Y03394*
Y03395*
G37*
G36*
X05695D02*
X0566D01*
Y03394*
X05663Y03384*
X05668Y03375*
X05675Y03368*
X05684Y03363*
X05694Y0336*
X05695*
Y03395*
G37*
G36*
X04024Y04442D02*
X03966D01*
Y04378*
X03699Y04112*
X03696Y04107*
X03695Y04101*
Y03587*
X03445Y03337*
X03445Y03337*
X03435Y0334*
X03424*
X03414Y03337*
X03405Y03332*
X03397Y03324*
X03392Y03315*
X0339Y03305*
Y03296*
X02581Y02488*
X02576Y02479*
X02574Y0247*
Y02054*
X02571Y02053*
X02561Y02046*
X02553Y02038*
X02546Y02028*
X02542Y02017*
X0254Y02005*
Y01994*
X02542Y01982*
X02546Y01971*
X02553Y01961*
X02561Y01953*
X02571Y01946*
X02582Y01942*
X02594Y0194*
X02605*
X02617Y01942*
X02628Y01946*
X02638Y01953*
X02646Y01961*
X02653Y01971*
X02657Y01982*
X0266Y01994*
Y02005*
X02657Y02017*
X02653Y02028*
X02646Y02038*
X02638Y02046*
X02628Y02053*
X02625Y02054*
Y02459*
X03426Y0326*
X03435*
X03445Y03262*
X03454Y03267*
X03462Y03275*
X03467Y03284*
X0347Y03294*
Y03305*
X03467Y03315*
X03467Y03315*
X03721Y03569*
X03724Y03574*
X03725Y0358*
Y04094*
X03988Y04357*
X04024*
Y04442*
G37*
G36*
X06105Y04839D02*
X06094D01*
X06084Y04836*
X06075Y04831*
X06068Y04824*
X06063Y04815*
X0606Y04805*
Y04794*
X06063Y04784*
X06068Y04775*
X06075Y04768*
X06084Y04763*
Y03486*
X05881Y03283*
X05874Y03285*
X05865*
X05856Y03282*
X05848Y03278*
X05841Y03271*
X05837Y03263*
X05835Y03254*
Y03245*
X05837Y03236*
X05841Y03228*
X05848Y03221*
X05856Y03217*
X05865Y03215*
X05874*
X05883Y03217*
X05891Y03221*
X05898Y03228*
X05902Y03236*
X05905Y03245*
Y03254*
X05903Y03261*
X0611Y03469*
X06114Y03474*
X06115Y0348*
Y04763*
X06124Y04768*
X06131Y04775*
X06136Y04784*
X06139Y04794*
Y04805*
X06136Y04815*
X06131Y04824*
X06124Y04831*
X06115Y04836*
X06105Y04839*
G37*
G36*
X05304Y03347D02*
X05295D01*
X05285Y03344*
X05276Y0334*
X05269Y03333*
X05265Y03324*
X05262Y03314*
Y03305*
X05265Y03295*
X05269Y03286*
X05276Y03279*
X05285Y03275*
X05295Y03272*
X05304*
X05314Y03275*
X05323Y03279*
X0533Y03286*
X05334Y03295*
X05337Y03305*
Y03314*
X05334Y03324*
X0533Y03333*
X05323Y0334*
X05314Y03344*
X05304Y03347*
G37*
G36*
X04184Y03815D02*
X04175D01*
X04166Y03812*
X04158Y03808*
X04151Y03801*
X04147Y03793*
X04145Y03784*
Y03775*
X04147Y03766*
X04151Y03758*
X04158Y03751*
X04164Y03748*
Y0338*
X04165Y03374*
X04169Y03369*
X04238Y033*
X04243Y03296*
X04249Y03295*
X04265*
X04265*
X04269Y03286*
X04276Y03279*
X04285Y03275*
X04295Y03272*
X04304*
X04314Y03275*
X04323Y03279*
X0433Y03286*
X04334Y03295*
X04337Y03305*
Y03314*
X04334Y03324*
X0433Y03333*
X04323Y0334*
X04314Y03344*
X04304Y03347*
X04295*
X04285Y03344*
X04276Y0334*
X04269Y03333*
X04266Y03326*
X04255*
X04195Y03386*
Y03748*
X04201Y03751*
X04208Y03758*
X04212Y03766*
X04215Y03775*
Y03784*
X04212Y03793*
X04208Y03801*
X04201Y03808*
X04193Y03812*
X04184Y03815*
G37*
G36*
X05739Y03339D02*
X0566D01*
Y0326*
X05739*
Y03339*
G37*
G36*
X03805Y0394D02*
X03794D01*
X03784Y03937*
X03775Y03932*
X03767Y03924*
X03762Y03915*
X0376Y03905*
Y03894*
X03762Y03884*
X03767Y03875*
X03774Y03868*
Y0335*
X03776Y0334*
X03781Y03331*
X0381Y03303*
Y03294*
X03812Y03284*
X03817Y03275*
X03825Y03267*
X03834Y03262*
X03844Y0326*
X03855*
X03865Y03262*
X03874Y03267*
X03882Y03275*
X03887Y03284*
X0389Y03294*
Y03305*
X03887Y03315*
X03882Y03324*
X03874Y03332*
X03865Y03337*
X03855Y0334*
X03846*
X03825Y0336*
Y03868*
X03832Y03875*
X03837Y03884*
X0384Y03894*
Y03905*
X03837Y03915*
X03832Y03924*
X03824Y03932*
X03815Y03937*
X03805Y0394*
G37*
G36*
X03725Y0334D02*
X03714D01*
X03704Y03337*
X03695Y03332*
X03687Y03324*
X03682Y03315*
X0368Y03305*
Y03294*
X03682Y03284*
X03687Y03275*
X03695Y03267*
X03704Y03262*
X03714Y0326*
X03725*
X03735Y03262*
X03744Y03267*
X03752Y03275*
X03757Y03284*
X0376Y03294*
Y03305*
X03757Y03315*
X03752Y03324*
X03744Y03332*
X03735Y03337*
X03725Y0334*
G37*
G36*
X03405Y0394D02*
X03394D01*
X03384Y03937*
X03375Y03932*
X03367Y03924*
X03362Y03915*
X0336Y03905*
Y03896*
X03281Y03818*
X03276Y03809*
X03274Y038*
Y03331*
X03267Y03324*
X03262Y03315*
X0326Y03305*
Y03294*
X03262Y03284*
X03267Y03275*
X03275Y03267*
X03284Y03262*
X03294Y0326*
X03305*
X03315Y03262*
X03324Y03267*
X03332Y03275*
X03337Y03284*
X0334Y03294*
Y03305*
X03337Y03315*
X03332Y03324*
X03325Y03331*
Y03789*
X03396Y0386*
X03405*
X03415Y03862*
X03424Y03867*
X03432Y03875*
X03437Y03884*
X0344Y03894*
Y03905*
X03437Y03915*
X03432Y03924*
X03424Y03932*
X03415Y03937*
X03405Y0394*
G37*
G36*
X06205Y02739D02*
X06205D01*
Y02705*
X06239*
Y02705*
X06236Y02715*
X06231Y02724*
X06224Y02731*
X06215Y02736*
X06205Y02739*
G37*
G36*
X06195D02*
X06194D01*
X06184Y02736*
X06175Y02731*
X06168Y02724*
X06163Y02715*
X0616Y02705*
Y02705*
X06195*
Y02739*
G37*
G36*
X06239Y02695D02*
X06205D01*
Y0266*
X06205*
X06215Y02663*
X06224Y02668*
X06231Y02675*
X06236Y02684*
X06239Y02694*
Y02695*
G37*
G36*
X06195D02*
X0616D01*
Y02694*
X06163Y02684*
X06168Y02675*
X06175Y02668*
X06184Y02663*
X06194Y0266*
X06195*
Y02695*
G37*
G36*
X05705Y02739D02*
X05694D01*
X05684Y02736*
X05675Y02731*
X05668Y02724*
X05663Y02715*
X0566Y02705*
Y02694*
X05663Y02684*
X05668Y02675*
X05675Y02668*
X05684Y02663*
X05694Y0266*
X05705*
X05715Y02663*
X05724Y02668*
X05731Y02675*
X05736Y02684*
X05739Y02694*
Y02705*
X05736Y02715*
X05731Y02724*
X05724Y02731*
X05715Y02736*
X05705Y02739*
G37*
G36*
Y02639D02*
X05705D01*
Y02605*
X05739*
Y02605*
X05736Y02615*
X05731Y02624*
X05724Y02631*
X05715Y02636*
X05705Y02639*
G37*
G36*
X05695D02*
X05694D01*
X05684Y02636*
X05675Y02631*
X05668Y02624*
X05663Y02615*
X0566Y02605*
Y02605*
X05695*
Y02639*
G37*
G36*
X05739Y02595D02*
X05705D01*
Y0256*
X05705*
X05715Y02563*
X05724Y02568*
X05731Y02575*
X05736Y02584*
X05739Y02594*
Y02595*
G37*
G36*
X05695D02*
X0566D01*
Y02594*
X05663Y02584*
X05668Y02575*
X05675Y02568*
X05684Y02563*
X05694Y0256*
X05695*
Y02595*
G37*
G36*
X06205Y02439D02*
X06205D01*
Y02405*
X06239*
Y02405*
X06236Y02415*
X06231Y02424*
X06224Y02431*
X06215Y02436*
X06205Y02439*
G37*
G36*
X06195D02*
X06194D01*
X06184Y02436*
X06175Y02431*
X06168Y02424*
X06163Y02415*
X0616Y02405*
Y02405*
X06195*
Y02439*
G37*
G36*
X06239Y02395D02*
X06205D01*
Y0236*
X06205*
X06215Y02363*
X06224Y02368*
X06231Y02375*
X06236Y02384*
X06239Y02394*
Y02395*
G37*
G36*
X06195D02*
X0616D01*
Y02394*
X06163Y02384*
X06168Y02375*
X06175Y02368*
X06184Y02363*
X06194Y0236*
X06195*
Y02395*
G37*
G36*
X05739Y02339D02*
X05705D01*
Y02305*
X05739*
Y02339*
G37*
G36*
X05695D02*
X0566D01*
Y02305*
X05695*
Y02339*
G37*
G36*
X06239D02*
X0616D01*
Y0226*
X06239*
Y02339*
G37*
G36*
X05739Y02295D02*
X05705D01*
Y0226*
X05739*
Y02295*
G37*
G36*
X05695D02*
X0566D01*
Y0226*
X05695*
Y02295*
G37*
G36*
X03855Y0244D02*
X03844D01*
X03834Y02437*
X03825Y02432*
X03817Y02424*
X03812Y02415*
X0381Y02405*
Y02396*
X03621Y02207*
X03615Y02199*
X03614Y02189*
Y0199*
X03607Y01984*
X03602Y01975*
X036Y01965*
Y01955*
X03602Y01945*
X03607Y01936*
X03615Y01928*
X03624Y01923*
X03634Y0192*
X03644*
X03654Y01923*
X03663Y01928*
X03671Y01936*
X03676Y01945*
X03679Y01955*
Y01965*
X03676Y01975*
X03671Y01984*
X03665Y0199*
Y02178*
X03846Y0236*
X03855*
X03865Y02362*
X03874Y02367*
X03882Y02375*
X03887Y02384*
X0389Y02394*
Y02405*
X03887Y02415*
X03882Y02424*
X03874Y02432*
X03865Y02437*
X03855Y0244*
G37*
G36*
X03305D02*
X03294D01*
X03284Y02437*
X03275Y02432*
X03267Y02424*
X03262Y02415*
X0326Y02405*
Y02394*
X03262Y02384*
X03267Y02375*
X03275Y02367*
X03284Y02362*
X03294Y0236*
X03303*
X03514Y02149*
Y02*
X035*
Y0192*
X03579*
Y02*
X03565*
Y0216*
X03563Y0217*
X03557Y02178*
X0334Y02396*
Y02405*
X03337Y02415*
X03332Y02424*
X03324Y02432*
X03315Y02437*
X03305Y0244*
G37*
G36*
X06208Y02108D02*
X06191D01*
X06174Y02105*
X06158Y021*
X06143Y02092*
X06129Y02082*
X06117Y0207*
X06107Y02056*
X06099Y02041*
X06094Y02025*
X06091Y02008*
Y01991*
X06094Y01974*
X06099Y01958*
X06107Y01943*
X06117Y01929*
X06129Y01917*
X06143Y01907*
X06158Y01899*
X06174Y01894*
X06191Y01891*
X06208*
X06225Y01894*
X06241Y01899*
X06256Y01907*
X0627Y01917*
X06282Y01929*
X06292Y01943*
X063Y01958*
X06305Y01974*
X06308Y01991*
Y02008*
X06305Y02025*
X063Y02041*
X06292Y02056*
X06282Y0207*
X0627Y02082*
X06256Y02092*
X06241Y021*
X06225Y02105*
X06208Y02108*
G37*
G36*
X02008D02*
X01991D01*
X01974Y02105*
X01958Y021*
X01943Y02092*
X01929Y02082*
X01917Y0207*
X01907Y02056*
X01899Y02041*
X01894Y02025*
X01891Y02008*
Y01991*
X01894Y01974*
X01899Y01958*
X01907Y01943*
X01917Y01929*
X01929Y01917*
X01943Y01907*
X01958Y01899*
X01974Y01894*
X01991Y01891*
X02008*
X02025Y01894*
X02041Y01899*
X02056Y01907*
X0207Y01917*
X02082Y01929*
X02092Y01943*
X021Y01958*
X02105Y01974*
X02108Y01991*
Y02008*
X02105Y02025*
X021Y02041*
X02092Y02056*
X02082Y0207*
X0207Y02082*
X02056Y02092*
X02041Y021*
X02025Y02105*
X02008Y02108*
G37*
%LNpcb1-3*%
%LPD*%
G36*
X05084Y0411D02*
Y03885D01*
X05085Y03883*
X05082Y03881*
X05077Y03873*
X05075Y03864*
Y03855*
X05077Y03846*
X05082Y03838*
X05088Y03831*
X0509Y0383*
X05089Y03825*
X0508*
X05065Y0384*
Y0393*
X05063Y03939*
X05058Y03948*
X04495Y0451*
X04497Y04514*
X04584*
X04872Y04226*
X0487Y04219*
Y0421*
X04872Y04201*
X04877Y04193*
X04883Y04186*
X04891Y04182*
X049Y0418*
X0491*
X04918Y04182*
X04926Y04186*
X04933Y04193*
X04938Y04201*
X0494Y0421*
Y04219*
X04938Y04228*
X04933Y04236*
X04926Y04243*
X04918Y04247*
X0491Y0425*
X049*
X04893Y04248*
X04611Y0453*
X04613Y04534*
X0466*
X05084Y0411*
G37*
G36*
X04834Y04771D02*
Y0447D01*
X04835Y04464*
X04839Y04459*
X05134Y04164*
Y039*
X05135Y03894*
X05139Y03889*
X05145Y03882*
X05144Y0388*
X05139Y03879*
X05138Y03881*
X05131Y03887*
X05123Y03892*
X05115Y03894*
Y04116*
X05114Y04122*
X0511Y04127*
X04678Y04559*
X04679Y04564*
X0468Y04564*
X0472*
X04725Y04565*
X0473Y04569*
X0481Y04649*
X04814Y04654*
X04815Y0466*
Y04763*
X04824Y04768*
X04829Y04773*
X04834Y04771*
G37*
G36*
X04811Y03938D02*
X04818Y03931D01*
X04826Y03927*
X04829Y03926*
Y03756*
X04824Y03755*
X04822Y03763*
X04818Y03771*
X04811Y03778*
X04805Y03781*
Y0394*
X0481Y03941*
X04811Y03938*
G37*
G54D13*
X0525Y0387D02*
Y0397D01*
X0519Y0403D02*
X0525Y0397D01*
X0495Y0453D02*
Y0487D01*
X0418Y0453D02*
X0459D01*
X04905Y04215*
X04666Y0455D02*
X051Y04116D01*
X05102Y03867D02*
X0511Y03859D01*
X05102Y03867D02*
Y03882D01*
X051Y03885D02*
X05102Y03882D01*
X051Y03885D02*
Y04116D01*
X0519Y0403D02*
Y0479D01*
X0497Y0501D02*
X0519Y0479D01*
X0569Y0316D02*
X0584Y0331D01*
X0527Y0316D02*
X0569D01*
X0523Y0312D02*
X0527Y0316D01*
X0586Y0311D02*
X0615Y034D01*
X062*
X053Y0311D02*
X0586D01*
X0629Y0329D02*
Y04085D01*
X0576Y0286D02*
X0586D01*
X0629Y0329*
X0555Y0265D02*
X0576Y0286D01*
X0534Y0256D02*
X054Y025D01*
X0523Y0256D02*
X0534D01*
X0509Y027D02*
X0523Y0256D01*
X048Y027D02*
X0509D01*
X05404Y025D02*
X057D01*
X054D02*
X05404D01*
X043Y0241D02*
X04309D01*
X0465Y0275D02*
Y0296D01*
X04309Y0241D02*
X0465Y0275D01*
X0431Y0261D02*
X0458Y0288D01*
X043Y0261D02*
X0431D01*
X0458Y0288D02*
Y0305D01*
X045Y029D02*
Y0307D01*
X043Y0271D02*
X0431D01*
X045Y029*
X043Y0291D02*
X0431D01*
X0442Y0302D02*
Y03044D01*
X0431Y0291D02*
X0442Y0302D01*
Y03044D02*
X0466Y03284D01*
Y0341*
X0458Y0305D02*
X0479Y0326D01*
X0472Y0367D02*
Y0398D01*
X04965Y03625D02*
X0497Y0362D01*
X04965Y03625D02*
Y03865D01*
X0496Y0387D02*
X04965Y03865D01*
X0491Y0374D02*
Y0394D01*
X04845Y03655D02*
X0485Y0365D01*
X04845Y03655D02*
Y03955D01*
X0484Y0396D02*
X04845Y03955D01*
X0479Y0375D02*
Y04019D01*
X0477Y04039D02*
Y0405D01*
Y04039D02*
X0479Y04019D01*
X0464Y04034D02*
Y0412D01*
Y04034D02*
X0465Y04024D01*
Y0375D02*
Y04024D01*
X046Y0365D02*
Y0404D01*
X0457Y0407D02*
X046Y0404D01*
X06224Y0415D02*
Y04805D01*
X0621Y0482D02*
X06224Y04805D01*
Y0415D02*
X0629Y04085D01*
X062Y048D02*
Y0481D01*
X0621Y0482*
X0587Y0325D02*
X061Y0348D01*
Y048*
X0554Y0288D02*
X057Y0304D01*
X0578*
X06Y0474D02*
Y048D01*
X0584Y0458D02*
X06Y0474D01*
X0584Y0331D02*
Y0458D01*
X0523Y0268D02*
Y0312D01*
Y0268D02*
X053Y0261D01*
X056Y0471D02*
Y048D01*
X0579Y0349D02*
Y0452D01*
X056Y0471D02*
X0579Y0452D01*
X0575Y0345D02*
X0579Y0349D01*
X0565Y0345D02*
X0575D01*
X0561Y0341D02*
X0565Y0345D01*
X053Y0341D02*
X0561D01*
X0535Y0351D02*
X0539Y0355D01*
X0554*
X053Y0351D02*
X0535D01*
X05574Y0388D02*
X0558Y03885D01*
Y0389*
X0557Y0388D02*
X05574D01*
X053Y0361D02*
X0557Y0388D01*
X0515Y039D02*
X0518Y0387D01*
X0485Y0447D02*
X0515Y0417D01*
Y039D02*
Y0417D01*
X0433Y0501D02*
X0497D01*
X0432Y05D02*
X0433Y0501D01*
X04387Y04717D02*
X04417D01*
X0438Y0471D02*
X04387Y04717D01*
X04417D02*
X045Y048D01*
X0432Y0496D02*
Y05D01*
X046Y048D02*
X0466Y0486D01*
X0484*
X0485Y0485*
Y0447D02*
Y0485D01*
X0417Y04591D02*
X04211Y0455D01*
X04666*
X0417Y04591D02*
Y0467D01*
X043Y048*
X0414Y0457D02*
X0418Y0453D01*
X0414Y0474D02*
X042Y048D01*
X0414Y0457D02*
Y0474D01*
X0507Y0451D02*
Y0484D01*
X0499Y0443D02*
X0507Y0451D01*
X045Y0307D02*
X0472Y0329D01*
X0473*
X046Y0331D02*
Y0347D01*
X043Y0301D02*
X046Y0331D01*
X0453Y0375D02*
Y0423D01*
X0449Y0427D02*
X0453Y0423D01*
X044Y0496D02*
X0495D01*
X0507Y0484*
X0472Y0458D02*
X048Y0466D01*
X0433Y0461D02*
X0436Y0458D01*
X0472*
X0443Y0463D02*
X045Y047D01*
X0464*
X0492Y049D02*
X0495Y0487D01*
X0419Y049D02*
X0492D01*
X041Y048D02*
Y0481D01*
X0419Y049*
X0528Y0512D02*
X055Y049D01*
Y048D02*
Y049D01*
X048Y0466D02*
Y048D01*
X0423Y0461D02*
X0433D01*
X0418Y0338D02*
Y0378D01*
X04249Y0331D02*
X043D01*
X0418Y0338D02*
X04249Y0331D01*
X04695Y04755D02*
Y04795D01*
X0464Y047D02*
X04695Y04755D01*
Y04795D02*
X047Y048D01*
X0441Y0371D02*
Y0383D01*
X0432Y0392D02*
X0441Y0383D01*
X044Y0351D02*
X0448Y0359D01*
X0435Y0397D02*
X0448Y0384D01*
Y0359D02*
Y0384D01*
X043Y0351D02*
X044D01*
X0426Y0397D02*
X0435D01*
X042Y0403D02*
X0426Y0397D01*
X042Y0403D02*
Y044D01*
X057Y024D02*
X0595D01*
X0605Y025D02*
X062D01*
X0595Y024D02*
X0605Y025D01*
X057D02*
X0593D01*
X0603Y026D02*
X062D01*
X0593Y025D02*
X0603Y026D01*
X0457Y0251D02*
X0516D01*
X0521Y0246*
X0533*
X0539Y024*
X057*
X043Y0341D02*
X0443D01*
X0458Y0356*
X0534*
X0538Y036D02*
X057D01*
X0534Y0356D02*
X0538Y036D01*
X0535Y0346D02*
X0539Y035D01*
X0515Y0346D02*
X0535D01*
X0465Y0296D02*
X0515Y0346D01*
X0539Y035D02*
X057D01*
X041Y03868D02*
Y0389D01*
X05289Y038D02*
X05313Y03823D01*
X041Y044D02*
X042D01*
X0371Y04101D02*
X03995Y04386D01*
Y044*
X0343Y033D02*
X0371Y0358D01*
Y04101*
G54D14*
X041Y03931D03*
Y03868D03*
X055Y03968D03*
Y04031D03*
G54D15*
X04304Y044D03*
X042D03*
X03995D03*
X041D03*
G54D20*
X04Y03621D03*
X057Y041D03*
G54D21*
X04Y037D03*
X057Y04021D03*
G54D29*
X0447Y045D02*
X0504Y0393D01*
Y0383D02*
Y0393D01*
Y0383D02*
X0507Y038D01*
X05289*
X037Y045D02*
X0447D01*
X05557Y03968D02*
X0561Y04021D01*
X05497Y03968D02*
X05557D01*
X04242Y03868D02*
X043Y0381D01*
X041Y03868D02*
X04242D01*
X041Y038D02*
Y03868D01*
X04Y037D02*
X041Y038D01*
X0561Y04021D02*
X057D01*
X05352Y03823D02*
X05497Y03968D01*
X05313Y03823D02*
X05352D01*
X0357Y0463D02*
X037Y045D01*
X034Y0463D02*
X0357D01*
X033Y038D02*
X034Y039D01*
X033Y033D02*
Y038D01*
X038Y0335D02*
X0385Y033D01*
X038Y0335D02*
Y039D01*
X026Y02D02*
Y0247D01*
X0343Y033*
X033Y024D02*
X03539Y0216D01*
Y0196D02*
Y0216D01*
X03639Y02189D02*
X0385Y024D01*
X03639Y0196D02*
Y02189D01*
G54D30*
X043Y0381D03*
G54D31*
X043Y0371D03*
Y0361D03*
Y0351D03*
Y0341D03*
Y0331D03*
Y0321D03*
Y0311D03*
Y0301D03*
Y0291D03*
Y0281D03*
Y0271D03*
Y0261D03*
Y0251D03*
Y0241D03*
X053Y0381D03*
Y0371D03*
Y0361D03*
Y0351D03*
Y0341D03*
Y0331D03*
Y0321D03*
Y0311D03*
Y0301D03*
Y0291D03*
Y0281D03*
Y0271D03*
Y0261D03*
Y0251D03*
Y0241D03*
G54D32*
X04316Y02274D03*
X05281D03*
Y04123D03*
X04316D03*
G54D33*
X062Y035D03*
Y034D03*
X057Y024D03*
Y025D03*
Y026D03*
Y027D03*
Y034D03*
Y035D03*
Y036D03*
X048Y048D03*
X041D03*
X042D03*
X043D03*
X044D03*
X045D03*
X046D03*
X047D03*
X049D03*
X03639Y0196D03*
X061Y048D03*
X059D03*
X058D03*
X057D03*
X056D03*
X055D03*
X054D03*
X053D03*
X06D03*
X062Y027D03*
Y026D03*
Y025D03*
Y024D03*
G54D34*
X062Y033D03*
X057Y023D03*
Y033D03*
X062Y023D03*
G54D35*
X05Y048D03*
X03539Y0196D03*
X062Y048D03*
G54D36*
X026Y02D03*
Y05D03*
G54D37*
X0385Y033D03*
X033D03*
X0343D03*
X0385Y024D03*
X0372Y033D03*
X033Y024D03*
X034Y039D03*
X038D03*
X034Y0463D03*
X038D03*
G54D38*
X0525Y0387D03*
X0495Y0453D03*
X04905Y04215D03*
X0555Y0265D03*
X048Y027D03*
X0479Y0326D03*
X0496Y0387D03*
X0491Y0394D03*
X0484Y0396D03*
X0477Y0405D03*
X0472Y0398D03*
X0497Y0362D03*
X0485Y0365D03*
X0472Y0367D03*
X0464Y0412D03*
X046Y0365D03*
X0587Y0325D03*
X0578Y0304D03*
X0554Y0288D03*
Y0355D03*
X0558Y0389D03*
X0438Y0471D03*
X0432Y0496D03*
X0518Y0387D03*
X0511Y03859D03*
X0499Y0443D03*
X0491Y0374D03*
X0479Y0375D03*
X0473Y0329D03*
X0466Y0341D03*
X0465Y0375D03*
X046Y0347D03*
X0453Y0375D03*
X044Y0496D03*
X0443Y0463D03*
X0528Y0512D03*
X0423Y0461D03*
X0418Y0378D03*
X0432Y0392D03*
X0441Y0371D03*
X0449Y0427D03*
X0457Y0407D03*
Y0251D03*
G54D39*
X062Y02D03*
Y051D03*
X02Y02D03*
Y051D03*
M02*